<svg width="148" height="147" viewBox="0 0 148 147" fill="none" xmlns="http://www.w3.org/2000/svg">
<rect x="0.5" width="147" height="147" rx="73.5" fill="#F3F3F3"/>
<mask id="mask0_2281_9983" style="mask-type:alpha" maskUnits="userSpaceOnUse" x="30" y="30" width="88" height="87">
<rect x="30.5" y="30" width="87" height="87" fill="#D9D9D9"/>
</mask>
<g mask="url(#mask0_2281_9983)">
<path d="M44.5767 104.586C43.0481 104.586 41.7483 104.05 40.6771 102.979C39.6059 101.907 39.0703 100.607 39.0703 99.0787V46.6548C39.0703 45.1263 39.6059 43.8264 40.6771 42.7552C41.7483 41.684 43.0481 41.1484 44.5767 41.1484H68.0005C69.5291 41.1484 70.8289 41.684 71.9001 42.7552C72.9713 43.8264 73.5069 45.1263 73.5069 46.6548V55.6484H103.414C104.943 55.6484 106.242 56.184 107.314 57.2552C108.385 58.3264 108.92 59.6263 108.92 61.1548V99.0787C108.92 100.607 108.385 101.907 107.314 102.979C106.242 104.05 104.943 104.586 103.414 104.586H44.5767ZM44.5069 99.1484H68.0703V90.0859H44.5069V99.1484ZM44.5069 84.6484H68.0703V75.5859H44.5069V84.6484ZM44.5069 70.1484H68.0703V61.0859H44.5069V70.1484ZM44.5069 55.6484H68.0703V46.5859H44.5069V55.6484ZM73.5069 99.1484H103.484V61.0859H73.5069V99.1484ZM84.1735 75.5859C83.4032 75.5859 82.7573 75.3252 82.2359 74.8038C81.7151 74.2824 81.4547 73.6363 81.4547 72.8654C81.4547 72.0951 81.7151 71.4495 82.2359 70.9287C82.7573 70.4085 83.4032 70.1484 84.1735 70.1484H92.1204C92.8907 70.1484 93.5362 70.4091 94.057 70.9305C94.5784 71.4513 94.8391 72.0972 94.8391 72.8681C94.8391 73.639 94.5784 74.2846 94.057 74.8047C93.5362 75.3255 92.8907 75.5859 92.1204 75.5859H84.1735ZM84.1735 90.0859C83.4032 90.0859 82.7573 89.8252 82.2359 89.3038C81.7151 88.7824 81.4547 88.1363 81.4547 87.3654C81.4547 86.5951 81.7151 85.9495 82.2359 85.4287C82.7573 84.9085 83.4032 84.6484 84.1735 84.6484H92.1204C92.8907 84.6484 93.5362 84.9091 94.057 85.4305C94.5784 85.9513 94.8391 86.5972 94.8391 87.3681C94.8391 88.139 94.5784 88.7846 94.057 89.3047C93.5362 89.8255 92.8907 90.0859 92.1204 90.0859H84.1735Z" fill="black"/>
</g>
</svg>
