<svg width="150" height="65"  viewBox="0 0 70 65" fill="none" xmlns="http://www.w3.org/2000/svg">
<path d="M5.57669 64.0859C4.04815 64.0859 2.74828 63.5504 1.67709 62.4792C0.605906 61.4074 0.0703125 60.1072 0.0703125 58.5787V6.15481C0.0703125 4.62627 0.605906 3.3264 1.67709 2.25522C2.74828 1.18403 4.04815 0.648438 5.57669 0.648438H29.0005C30.5291 0.648438 31.8289 1.18403 32.9001 2.25522C33.9713 3.3264 34.5069 4.62627 34.5069 6.15481V15.1484H64.4141C65.9426 15.1484 67.2425 15.684 68.3137 16.7552C69.3848 17.8264 69.9204 19.1263 69.9204 20.6548V58.5787C69.9204 60.1072 69.3848 61.4074 68.3137 62.4792C67.2425 63.5504 65.9426 64.0859 64.4141 64.0859H5.57669ZM5.50691 58.6484H29.0703V49.5859H5.50691V58.6484ZM5.50691 44.1484H29.0703V35.0859H5.50691V44.1484ZM5.50691 29.6484H29.0703V20.5859H5.50691V29.6484ZM5.50691 15.1484H29.0703V6.08594H5.50691V15.1484ZM34.5069 58.6484H64.4838V20.5859H34.5069V58.6484ZM45.1735 35.0859C44.4032 35.0859 43.7573 34.8252 43.2359 34.3038C42.7151 33.7824 42.4547 33.1363 42.4547 32.3654C42.4547 31.5951 42.7151 30.9495 43.2359 30.4287C43.7573 29.9085 44.4032 29.6484 45.1735 29.6484H53.1204C53.8907 29.6484 54.5362 29.9091 55.057 30.4305C55.5784 30.9513 55.8391 31.5972 55.8391 32.3681C55.8391 33.139 55.5784 33.7846 55.057 34.3047C54.5362 34.8255 53.8907 35.0859 53.1204 35.0859H45.1735ZM45.1735 49.5859C44.4032 49.5859 43.7573 49.3252 43.2359 48.8038C42.7151 48.2824 42.4547 47.6363 42.4547 46.8654C42.4547 46.0951 42.7151 45.4495 43.2359 44.9287C43.7573 44.4085 44.4032 44.1484 45.1735 44.1484H53.1204C53.8907 44.1484 54.5362 44.4091 55.057 44.9305C55.5784 45.4513 55.8391 46.0972 55.8391 46.8681C55.8391 47.639 55.5784 48.2846 55.057 48.8047C54.5362 49.3255 53.8907 49.5859 53.1204 49.5859H45.1735Z" fill="#265ABF"/>
</svg>
