<svg width="1440" height="181" viewBox="0 0 1440 181" fill="none" xmlns="http://www.w3.org/2000/svg">
<g clip-path="url(#clip0_3563_3715)">
<rect width="1440" height="181" fill="#F0F7FE"/>
<path d="M1259.28 252C1229.68 252 1203.32 245.311 1180.21 231.936C1157.09 218.156 1138.85 199.31 1125.46 175.396C1112.49 151.483 1106 123.72 1106 92.1071C1106 60.0889 1112.49 32.123 1125.46 8.21004C1138.85 -16.1082 1157.09 -34.9546 1180.21 -48.3295C1203.32 -62.1099 1229.68 -69 1259.28 -69C1296.59 -69 1327.81 -59.2728 1352.95 -39.8183C1378.09 -20.3636 1394.11 5.98095 1401 39.2159H1337.74C1333.69 21.3825 1324.36 7.60232 1309.76 -2.1249C1295.57 -11.8525 1278.54 -16.7159 1258.67 -16.7159C1242.45 -16.7159 1227.45 -12.4602 1213.66 -3.94907C1199.87 4.15711 1188.72 16.3162 1180.21 32.5283C1172.1 48.3351 1168.04 67.9923 1168.04 91.4987C1168.04 108.929 1170.47 124.531 1175.34 138.311C1180.21 151.686 1186.69 163.036 1194.8 172.358C1203.32 181.68 1213.05 188.771 1224 193.635C1234.95 198.093 1246.51 200.324 1258.67 200.324C1272.05 200.324 1284.01 198.296 1294.56 194.243C1305.51 189.785 1314.63 183.302 1321.93 174.788C1329.63 166.277 1334.91 156.144 1337.74 144.392H1401C1394.11 176.816 1378.09 202.957 1352.95 222.817C1327.81 242.272 1296.59 252 1259.28 252Z" fill="#C3DFFA"/>
<path d="M1556.76 252C1527.26 252 1500.99 245.311 1477.95 231.936C1454.92 218.156 1436.73 199.31 1423.4 175.396C1410.46 151.483 1404 123.72 1404 92.1071C1404 60.0889 1410.46 32.123 1423.4 8.21004C1436.73 -16.1082 1454.92 -34.9546 1477.95 -48.3295C1500.99 -62.1099 1527.26 -69 1556.76 -69C1593.94 -69 1625.06 -59.2728 1650.11 -39.8183C1675.17 -20.3636 1691.13 5.98095 1698 39.2159H1634.96C1630.92 21.3825 1621.62 7.60232 1607.07 -2.1249C1592.93 -11.8525 1575.96 -16.7159 1556.15 -16.7159C1539.99 -16.7159 1525.04 -12.4602 1511.3 -3.94907C1497.56 4.15711 1486.44 16.3162 1477.95 32.5283C1469.87 48.3351 1465.83 67.9923 1465.83 91.4987C1465.83 108.929 1468.26 124.531 1473.11 138.311C1477.95 151.686 1484.42 163.036 1492.5 172.358C1500.99 181.68 1510.69 188.771 1521.6 193.635C1532.51 198.093 1544.03 200.324 1556.15 200.324C1569.49 200.324 1581.41 198.296 1591.92 194.243C1602.83 189.785 1611.92 183.302 1619.2 174.788C1626.88 166.277 1632.13 156.144 1634.96 144.392H1698C1691.13 176.816 1675.17 202.957 1650.11 222.817C1625.06 242.272 1593.94 252 1556.76 252Z" fill="#C3DFFA"/>
<path d="M10.7596 252C-18.7428 252 -45.0099 245.311 -68.045 231.936C-91.0801 218.156 -109.266 199.31 -122.601 175.396C-135.536 151.483 -142 123.72 -142 92.1071C-142 60.0889 -135.536 32.123 -122.601 8.21004C-109.266 -16.1082 -91.0801 -34.9546 -68.045 -48.3295C-45.0099 -62.1099 -18.7428 -69 10.7596 -69C47.9393 -69 79.0561 -59.2728 104.113 -39.8183C129.167 -20.3636 145.132 5.98095 152 39.2159H88.9576C84.9168 21.3825 75.6218 7.60232 61.0728 -2.1249C46.9282 -11.8525 29.956 -16.7159 10.1529 -16.7159C-6.0137 -16.7159 -20.9638 -12.4602 -34.704 -3.94907C-48.4442 4.15711 -59.5589 16.3162 -68.045 32.5283C-76.1267 48.3351 -80.1708 67.9923 -80.1708 91.4987C-80.1708 108.929 -77.7444 124.531 -72.8947 138.311C-68.045 151.686 -61.581 163.036 -53.496 172.358C-45.0099 181.68 -35.3106 188.771 -24.4013 193.635C-13.4888 198.093 -1.96959 200.324 10.1529 200.324C23.4887 200.324 35.4123 198.296 45.9172 194.243C56.8298 189.785 65.9225 183.302 73.1953 174.788C80.8759 166.277 86.13 156.144 88.9576 144.392H152C145.132 176.816 129.167 202.957 104.113 222.817C79.0561 242.272 47.9393 252 10.7596 252Z" fill="#C3DFFA"/>
</g>
<defs>
<clipPath id="clip0_3563_3715">
<rect width="1440" height="181" fill="white"/>
</clipPath>
</defs>
</svg>
