<svg width="314" height="348" viewBox="0 0 314 348" fill="none" xmlns="http://www.w3.org/2000/svg">
<g clip-path="url(#clip0_3290_16811)">
<rect width="314" height="348" rx="10" fill="#F4FAFF"/>
<path opacity="0.2" d="M-166 355.519C-140.808 334.137 -113.365 292.148 -53.6559 292.148C24.6191 292.148 28.8456 329.328 99.851 324.932C150.278 321.811 173.676 342.984 183 355.519L-166 355.519Z" fill="#C3DFFA"/>
<path opacity="0.2" d="M104.455 -46.2114L362 -46.2114L362 96.1951C334.557 94.962 283.872 86.6228 270.135 42.9551C251.017 -17.8185 207.03 25.728 155.599 14.5622C117.33 6.25327 100.98 -22.9851 104.455 -46.2114Z" fill="#C3DFFA"/>
<g clip-path="url(#clip1_3290_16811)">
<g clip-path="url(#clip2_3290_16811)">
<path d="M230.637 227.965C232.206 227.965 233.48 226.695 233.48 225.131C233.48 223.567 232.206 222.297 230.637 222.297C229.069 222.297 227.794 223.567 227.794 225.131C227.794 226.695 229.069 227.965 230.637 227.965ZM230.637 223.083C231.776 223.083 232.7 224.004 232.7 225.139C232.7 226.274 231.776 227.195 230.637 227.195C229.499 227.195 228.575 226.274 228.575 225.139C228.575 224.004 229.499 223.083 230.637 223.083Z" fill="black"/>
<path d="M79.4766 149.871C79.4766 149.3 79.0067 148.831 78.4333 148.831C77.8599 148.831 77.3901 149.3 77.3901 149.871C77.3901 150.443 77.8599 150.911 78.4333 150.911C79.0067 150.911 79.4766 150.443 79.4766 149.871Z" fill="black"/>
<path d="M78.4337 151.3C79.2221 151.3 79.8672 150.657 79.8672 149.871C79.8672 149.085 79.2221 148.442 78.4337 148.442C77.6453 148.442 77.0002 149.085 77.0002 149.871C77.0002 150.657 77.6453 151.3 78.4337 151.3ZM78.4337 149.22C78.7921 149.22 79.0867 149.514 79.0867 149.871C79.0867 150.229 78.7921 150.522 78.4337 150.522C78.0753 150.522 77.7807 150.229 77.7807 149.871C77.7807 149.514 78.0753 149.22 78.4337 149.22Z" fill="black"/>
<path d="M113.442 141.138C114.581 147.474 111.698 154.579 105.996 157.611C102.89 159.263 99.2746 159.66 96.0493 161.057C92.8239 162.454 89.7898 165.511 90.3154 168.98C90.6578 171.282 92.7841 176.299 86.3574 180.428C81.0535 183.833 84.5496 197.274 103.105 200.259C108.791 201.172 104.61 197.298 110.097 195.559C115.513 193.844 120.06 189.93 123.254 185.238C126.447 180.547 128.366 175.101 129.664 169.583C131.162 163.232 131.83 156.365 129.338 150.324C126.853 144.282 120.418 139.479 113.442 141.138Z" fill="black"/>
<path d="M104.545 200.791C106.313 200.791 106.727 199.997 107.093 198.869C107.42 197.853 107.794 196.702 110.215 195.932C115.344 194.313 120.09 190.589 123.578 185.453C126.413 181.285 128.532 176.117 130.045 169.671C131.956 161.565 131.845 155.373 129.702 150.173C127.281 144.298 120.735 139.003 113.353 140.757C113.154 140.805 113.018 141.004 113.058 141.202C114.221 147.656 111.179 154.412 105.819 157.262C104.131 158.159 102.227 158.699 100.388 159.215C98.8985 159.636 97.3536 160.065 95.8962 160.7C92.6311 162.113 89.3739 165.328 89.9313 169.035C89.9791 169.337 90.0508 169.678 90.1304 170.044C90.6959 172.663 91.548 176.633 86.1485 180.102C84.1576 181.38 83.3055 184 83.9187 186.937C84.9858 192.01 90.6321 198.647 103.048 200.648C103.637 200.743 104.139 200.791 104.561 200.791H104.545ZM116.228 141.202C122.049 141.202 126.979 145.632 128.978 150.475C131.056 155.516 131.152 161.557 129.28 169.496C127.783 175.855 125.705 180.928 122.925 185.024C119.533 190.01 114.938 193.622 109.976 195.194C107.173 196.083 106.695 197.56 106.353 198.631C106.002 199.711 105.811 200.306 103.167 199.878C91.1418 197.941 85.6946 191.613 84.6832 186.779C84.1337 184.167 84.8584 181.857 86.5706 180.753C92.424 176.99 91.4683 172.536 90.8949 169.877C90.8153 169.512 90.7436 169.194 90.7038 168.916C90.2101 165.614 93.2124 162.708 96.2068 161.406C97.6084 160.795 99.1295 160.374 100.595 159.961C102.474 159.429 104.417 158.89 106.185 157.945C111.736 154.992 114.93 148.093 113.894 141.432C114.683 141.266 115.471 141.194 116.236 141.194L116.228 141.202Z" fill="black"/>
<path d="M135.764 125.809C133.885 134.954 144.174 147.918 147.933 156.468C149.151 159.247 150.927 161.779 151.931 164.645C153.125 168.051 153.157 171.751 152.831 175.347C152.217 182.135 150.171 189.105 145.376 193.971C140.582 198.838 132.571 200.957 126.662 197.528C121.477 194.511 119.104 188.041 119.431 182.063C119.757 176.085 122.313 170.48 125.013 165.138C131.496 152.301 126.94 136.875 135.756 125.801L135.764 125.809Z" fill="black"/>
<path d="M133.194 199.584C137.59 199.584 142.249 197.711 145.665 194.241C149.942 189.899 152.49 183.548 153.231 175.379C153.637 170.925 153.342 167.472 152.307 164.51C151.718 162.82 150.85 161.224 150.013 159.692C149.416 158.596 148.803 157.461 148.293 156.31C147.21 153.841 145.593 151.022 143.881 148.037C139.644 140.646 134.834 132.271 136.148 125.88C136.188 125.706 136.093 125.523 135.933 125.452C135.766 125.372 135.575 125.42 135.464 125.563C130.542 131.739 129.753 139.075 128.909 146.831C128.248 152.936 127.563 159.247 124.681 164.963C122.021 170.234 119.393 175.895 119.058 182.047C118.692 188.827 121.599 195.035 126.48 197.869C128.479 199.028 130.805 199.592 133.202 199.592L133.194 199.584ZM135.177 127.254C134.739 133.668 139.214 141.472 143.196 148.426C144.901 151.396 146.509 154.198 147.576 156.627C148.094 157.81 148.723 158.961 149.32 160.065C150.141 161.573 150.993 163.137 151.566 164.772C152.562 167.623 152.84 170.965 152.45 175.307C151.726 183.294 149.257 189.486 145.108 193.694C140.075 198.806 132.238 200.307 126.871 197.187C122.244 194.495 119.48 188.573 119.839 182.079C120.165 176.077 122.753 170.504 125.381 165.304C128.328 159.461 129.021 153.079 129.69 146.902C130.462 139.765 131.195 132.993 135.185 127.238L135.177 127.254Z" fill="black"/>
<path d="M123.159 172.942C123.326 168.067 123.246 163.256 123.047 159.612C125.022 158.628 127.149 157.945 129.331 157.588C130.31 157.429 131.417 157.366 132.166 157.961C132.636 158.334 134.873 156.365 135.104 156.905C136.697 160.628 138.322 169.591 139.915 173.315C140.034 173.6 147.52 174.625 147.639 174.91C148.157 176.125 144.334 181.015 143.944 181.269C123.525 194.797 112.511 174.537 112.511 174.537C112.511 174.537 117.401 174.037 123.151 172.942H123.159Z" fill="white"/>
<path d="M130.42 186.318C134.824 186.318 139.427 184.738 144.174 181.595C144.436 181.42 148.673 176.307 148.012 174.751C147.893 174.466 147.869 174.41 143.847 173.719C142.501 173.489 140.693 173.18 140.232 173.029C139.467 171.179 138.671 168.043 137.898 165.011C137.102 161.875 136.281 158.636 135.477 156.746C135.413 156.603 135.302 156.492 135.151 156.445C134.776 156.318 134.306 156.58 133.518 157.04C133.168 157.246 132.586 157.588 132.371 157.612C131.479 156.953 130.253 157.04 129.281 157.199C127.051 157.556 124.901 158.247 122.886 159.255C122.751 159.326 122.663 159.469 122.671 159.628C122.886 163.621 122.926 168.337 122.791 172.616C117.256 173.656 112.542 174.148 112.494 174.148C112.366 174.164 112.247 174.235 112.191 174.355C112.127 174.474 112.127 174.609 112.191 174.72C112.239 174.807 117.081 183.548 126.104 185.786C127.521 186.136 128.963 186.31 130.436 186.31L130.42 186.318ZM147.319 175.18C147.415 176.292 144.277 180.515 143.736 180.952C137.619 185.008 131.742 186.382 126.295 185.032C118.849 183.19 114.341 176.72 113.179 174.855C114.668 174.68 118.705 174.18 123.245 173.322C123.428 173.291 123.555 173.132 123.563 172.949C123.715 168.654 123.675 163.891 123.468 159.842C125.347 158.929 127.346 158.302 129.409 157.969C130.245 157.834 131.288 157.747 131.941 158.263C132.387 158.612 133.064 158.215 133.916 157.715C134.203 157.548 134.609 157.31 134.832 157.231C135.597 159.088 136.385 162.2 137.142 165.209C137.938 168.345 138.758 171.584 139.563 173.473C139.682 173.759 139.706 173.815 143.712 174.497C145.042 174.728 146.81 175.029 147.319 175.188V175.18Z" fill="black"/>
<path d="M141.981 125.595C143.088 130.016 143.988 134.756 146.735 138.503C148.232 140.551 152.78 152.158 144.768 159.144C140.555 162.812 134.782 164.677 128.506 163.621C124.254 162.899 117.524 158.104 115.812 151.38C113.287 153.285 109.72 152.483 108.676 149.951C108.071 148.49 108.963 146.013 110.715 145.418C112.069 144.957 112.228 144.91 113.55 145.283C113.048 142.012 112.252 138.789 110.827 135.359C112.642 130.54 117.102 126.69 121.968 123.872C123.577 122.943 125.273 122.094 127.097 121.617C132.305 120.276 140.85 121.054 141.989 125.595H141.981Z" fill="white"/>
<path d="M132.028 164.312C136.838 164.312 141.353 162.637 145.025 159.446C153.052 152.451 148.895 140.789 147.056 138.281C144.682 135.05 143.711 131.025 142.763 127.135C142.628 126.587 142.5 126.047 142.365 125.507C142.046 124.229 141.178 123.165 139.801 122.347C136.44 120.355 130.698 120.291 126.995 121.244C124.98 121.76 123.14 122.744 121.771 123.538C117.741 125.864 112.517 129.786 110.462 135.224C110.43 135.319 110.43 135.423 110.462 135.51C111.681 138.432 112.509 141.385 113.066 144.759C112.158 144.544 111.8 144.648 110.589 145.052C109.721 145.346 108.965 146.085 108.511 147.077C108.041 148.101 107.969 149.26 108.312 150.102C108.822 151.34 109.913 152.261 111.298 152.642C112.724 153.031 114.285 152.793 115.575 152.015C117.574 158.771 124.247 163.304 128.436 164.018C129.647 164.225 130.841 164.32 132.02 164.32L132.028 164.312ZM141.983 125.594L141.6 125.69C141.736 126.222 141.863 126.761 141.999 127.309C142.962 131.279 143.958 135.375 146.418 138.733C147.446 140.138 152.654 151.753 144.507 158.85C140.119 162.677 134.457 164.233 128.572 163.232C124.582 162.558 117.884 157.913 116.196 151.276C116.164 151.149 116.069 151.046 115.949 151.007C115.83 150.967 115.686 150.983 115.583 151.062C114.412 151.951 112.891 152.253 111.513 151.88C110.359 151.562 109.459 150.808 109.044 149.8C108.782 149.157 108.853 148.228 109.228 147.394C109.594 146.601 110.183 146.013 110.844 145.783C112.158 145.338 112.238 145.314 113.441 145.648C113.568 145.688 113.703 145.648 113.807 145.568C113.902 145.481 113.958 145.346 113.934 145.219C113.377 141.591 112.525 138.455 111.242 135.351C113.249 130.199 118.275 126.452 122.161 124.213C123.491 123.443 125.267 122.498 127.186 122.006C130.73 121.093 136.217 121.141 139.394 123.022C140.589 123.729 141.33 124.634 141.6 125.698L141.983 125.602V125.594Z" fill="black"/>
<path d="M126.159 151.054C126.645 151.054 127.139 150.999 127.625 150.872C129.321 150.443 130.73 149.308 131.591 147.688C132.443 146.077 132.65 144.171 132.18 142.322C131.208 138.487 127.577 136.09 124.081 136.979C120.593 137.86 118.546 141.694 119.525 145.529C120.362 148.823 123.165 151.054 126.151 151.054H126.159ZM125.554 137.582C128.19 137.582 130.675 139.583 131.423 142.52C131.845 144.179 131.662 145.886 130.898 147.331C130.141 148.76 128.915 149.752 127.433 150.125C124.367 150.903 121.158 148.76 120.29 145.346C119.422 141.933 121.214 138.527 124.28 137.749C124.702 137.638 125.132 137.59 125.554 137.59V137.582Z" fill="black"/>
<path d="M143.328 145.171C143.814 145.171 144.308 145.116 144.793 144.989C148.282 144.108 150.328 140.273 149.349 136.439C148.377 132.612 144.746 130.215 141.25 131.096C139.553 131.525 138.144 132.66 137.284 134.279C136.432 135.891 136.224 137.796 136.694 139.646C137.531 142.941 140.334 145.171 143.32 145.171H143.328ZM142.723 131.691C145.359 131.691 147.844 133.692 148.592 136.629C149.46 140.043 147.668 143.449 144.602 144.227C141.536 145.005 138.327 142.861 137.459 139.448C137.037 137.788 137.22 136.082 137.984 134.637C138.741 133.208 139.967 132.215 141.449 131.842C141.871 131.731 142.301 131.683 142.723 131.683V131.691Z" fill="black"/>
<path d="M96.5975 113.837C96.0719 107.502 100.802 101.953 107.149 101.429C113.505 100.905 119.071 105.62 119.597 111.948C120.122 118.275 115.392 123.832 109.045 124.356C102.69 124.88 97.1231 120.164 96.5975 113.837Z" fill="black"/>
<path d="M108.073 124.793C108.407 124.793 108.734 124.777 109.068 124.753C115.622 124.213 120.52 118.457 119.979 111.924C119.437 105.39 113.663 100.508 107.109 101.048C100.555 101.587 95.6573 107.343 96.1988 113.877C96.4616 117.044 97.9429 119.918 100.372 121.974C102.546 123.816 105.246 124.801 108.073 124.801V124.793ZM108.105 101.778C113.839 101.778 118.728 106.184 119.206 111.979C119.708 118.084 115.137 123.467 109.005 123.967C106.034 124.213 103.151 123.284 100.882 121.363C98.6118 119.442 97.2261 116.759 96.9793 113.797C96.7324 110.836 97.6642 107.962 99.5914 105.7C101.519 103.437 104.21 102.056 107.181 101.81C107.491 101.786 107.794 101.77 108.105 101.77V101.778Z" fill="black"/>
<path d="M114.092 145.569C115.143 140.281 115.605 136.598 114.459 131.12C126.866 133.089 136.781 130.239 146.258 126.079C145.812 124.364 144.036 120.887 142.738 119.609C139.56 116.473 136.176 114.012 129.335 113.718C124.541 113.512 118.584 114.464 114.427 116.838C110.293 119.196 107.466 123.038 105.531 127.087C103.986 130.302 103.397 134.819 104.122 138.757C104.743 142.131 106.431 144.14 109.107 146.775C109.728 146.037 110.301 145.315 111.289 145.132C112.276 144.949 113.049 145.18 114.084 145.569H114.092Z" fill="black"/>
<path d="M109.115 147.164C109.115 147.164 109.123 147.164 109.131 147.164C109.242 147.164 109.338 147.109 109.409 147.029L109.489 146.934C110.063 146.251 110.556 145.664 111.369 145.513C112.284 145.338 113.017 145.576 113.957 145.934C114.06 145.973 114.188 145.965 114.283 145.91C114.387 145.854 114.459 145.759 114.474 145.648C115.414 140.892 116.011 137.066 114.952 131.588C117.525 131.969 119.985 132.136 122.343 132.136C131.907 132.136 139.775 129.349 146.417 126.428C146.592 126.349 146.688 126.158 146.64 125.975C146.17 124.173 144.331 120.625 143.017 119.331C140.118 116.465 136.669 113.639 129.359 113.329C125.058 113.146 118.831 113.877 114.236 116.504C110.524 118.624 107.482 122.125 105.181 126.92C103.564 130.302 103.007 134.867 103.739 138.828C104.408 142.456 106.359 144.616 108.836 147.053C108.908 147.124 109.011 147.164 109.115 147.164ZM111.974 144.679C111.735 144.679 111.48 144.703 111.217 144.751C110.254 144.933 109.64 145.553 109.083 146.204C106.439 143.568 105.061 141.702 104.512 138.693C103.819 134.938 104.36 130.445 105.889 127.262C108.119 122.609 111.058 119.22 114.626 117.179C119.077 114.639 125.138 113.924 129.327 114.107C136.359 114.409 139.672 117.132 142.467 119.886C143.606 121.014 145.238 124.102 145.788 125.856C137.553 129.445 127.416 132.779 114.522 130.731C114.395 130.715 114.267 130.755 114.18 130.85C114.092 130.945 114.052 131.072 114.076 131.199C115.215 136.653 114.697 140.432 113.798 145.044C113.184 144.83 112.611 144.679 111.974 144.679Z" fill="black"/>
<path d="M133.461 156.175C134.918 156.175 136.137 155.54 136.726 154.46C136.83 154.269 136.758 154.031 136.567 153.928C136.376 153.825 136.137 153.896 136.033 154.087C135.571 154.928 134.568 155.413 133.381 155.397C132.035 155.373 130.721 154.817 129.678 153.841C129.519 153.69 129.272 153.698 129.129 153.857C128.977 154.015 128.985 154.262 129.145 154.404C130.331 155.516 131.828 156.151 133.373 156.175C133.405 156.175 133.437 156.175 133.469 156.175H133.461Z" fill="black"/>
<path d="M126.252 144.1C126.109 143.544 126.467 142.98 127.057 142.83C127.638 142.679 128.227 143.012 128.371 143.56C128.514 144.116 128.156 144.679 127.566 144.83C126.985 144.981 126.396 144.648 126.252 144.1Z" fill="black"/>
<path d="M141.584 138.963C141.441 138.408 141.799 137.844 142.389 137.693C142.97 137.542 143.559 137.876 143.703 138.423C143.846 138.979 143.488 139.543 142.898 139.694C142.317 139.844 141.728 139.511 141.584 138.963Z" fill="black"/>
<path d="M138.231 147.339C138.326 147.339 138.422 147.307 138.494 147.236L139.656 146.18C139.8 146.053 140.062 145.807 140.062 145.441C140.062 145.005 139.672 144.767 139.473 144.64C137.896 143.671 136.845 142.02 136.654 140.226C136.63 140.011 136.439 139.853 136.224 139.876C136.009 139.9 135.85 140.091 135.874 140.305C136.081 142.337 137.275 144.203 139.059 145.307C139.107 145.33 139.226 145.41 139.274 145.465C139.258 145.481 139.218 145.529 139.131 145.608L137.968 146.664C137.809 146.807 137.801 147.053 137.944 147.212C138.024 147.299 138.127 147.339 138.231 147.339Z" fill="black"/>
<path d="M131.049 140.107C131.192 140.107 131.327 140.027 131.399 139.892C132.02 138.694 133.326 137.796 134.712 137.622C135.413 137.534 136.225 137.717 136.424 138.233C136.504 138.432 136.727 138.535 136.926 138.463C137.125 138.384 137.229 138.162 137.157 137.963C136.799 137.018 135.62 136.725 134.617 136.852C132.976 137.058 131.447 138.114 130.706 139.535C130.611 139.726 130.682 139.964 130.874 140.059C130.929 140.091 130.993 140.099 131.057 140.099L131.049 140.107Z" fill="black"/>
<path d="M114.426 145.457C114.474 145.457 114.522 145.449 114.57 145.433L119.547 143.488C119.746 143.409 119.85 143.187 119.77 142.98C119.69 142.782 119.467 142.679 119.26 142.758L114.283 144.703C114.084 144.782 113.98 145.005 114.06 145.211C114.124 145.362 114.267 145.457 114.426 145.457Z" fill="black"/>
<path d="M114.891 149.26C114.939 149.26 114.986 149.252 115.042 149.228C115.241 149.149 115.337 148.919 115.257 148.72C114.763 147.521 114.524 146.196 114.556 144.902C114.556 144.687 114.389 144.505 114.174 144.505C113.959 144.505 113.776 144.671 113.776 144.886C113.744 146.291 114.007 147.72 114.54 149.022C114.604 149.173 114.747 149.268 114.899 149.268L114.891 149.26Z" fill="black"/>
<path d="M104.58 215.668C99.7456 212.866 91.7341 202.934 93.9241 194.884C95.0948 190.597 97.1574 175.156 119.743 173.712C120.197 180.888 127.221 184.127 131.696 184.659C134.133 184.953 143.339 184.675 143.339 174.029C149.432 174.362 157.125 175.299 168.975 180.007C177.95 183.571 193.248 185.929 193.248 185.929C193.248 185.929 208.722 166.201 214.272 158.112C217.323 153.674 222.826 172.076 226.234 164.304C226.752 163.129 210.386 195.75 209.056 198.219C202.104 211.111 170.018 202.95 163.814 202.95C164.419 211.937 160.573 217.248 157.443 219.971C156.479 240.715 161.56 255.068 161.56 255.068C161.56 255.068 133.106 265.611 103.64 256.934C101.378 256.267 109.278 238.111 104.58 215.676V215.668Z" fill="#3176DF"/>
<path d="M128.525 260.737C134.275 260.737 139.459 260.252 143.704 259.641C154.415 258.101 161.622 255.465 161.694 255.434C161.893 255.362 161.997 255.14 161.925 254.941C161.877 254.799 156.9 240.493 157.816 220.161C160.492 217.788 164.704 212.548 164.219 203.355C165.517 203.419 167.651 203.72 170.279 204.101C181.962 205.792 203.719 208.928 209.389 198.401C210.074 197.131 214.605 188.136 218.993 179.443C221.924 173.624 224.934 167.654 226.089 165.408C226.264 165.138 226.432 164.828 226.583 164.463C226.71 164.161 226.519 163.979 226.4 163.923C226.057 163.764 225.914 164.034 225.715 164.415C225.635 164.566 225.532 164.765 225.412 165.011C225.07 165.535 224.703 165.812 224.329 165.852C223.055 165.971 221.351 163.542 219.846 161.398C218.205 159.049 216.779 157.024 215.362 157.024C214.82 157.024 214.351 157.318 213.952 157.897C208.752 165.471 194.656 183.508 193.079 185.517C191.144 185.207 177.351 182.928 169.116 179.658C157.298 174.966 149.462 173.989 143.362 173.656C143.258 173.656 143.147 173.688 143.075 173.759C142.995 173.831 142.955 173.934 142.955 174.045C142.955 177.53 141.944 180.198 139.953 181.96C137.349 184.262 133.574 184.508 131.75 184.294C127.936 183.841 120.601 181.039 120.139 173.704C120.139 173.6 120.083 173.505 120.004 173.434C119.924 173.362 119.821 173.33 119.717 173.338C98.4379 174.696 95.0772 188.533 93.811 193.741C93.7154 194.138 93.6278 194.495 93.5482 194.797C91.2944 203.061 99.3458 212.993 104.236 215.93C107.262 230.545 104.881 243.565 103.598 250.575C102.794 254.981 102.428 256.99 103.535 257.315C112.263 259.887 120.896 260.745 128.533 260.745L128.525 260.737ZM161.065 254.83C159.496 255.37 152.87 257.537 143.569 258.871C133.765 260.276 118.889 261.015 103.75 256.561C103.75 256.561 103.535 256.442 103.646 255.156C103.742 254.1 104.013 252.599 104.363 250.702C105.661 243.613 108.074 230.426 104.96 215.589C104.936 215.478 104.873 215.39 104.777 215.335C99.9033 212.508 92.2182 202.641 94.3048 194.988C94.3844 194.686 94.472 194.321 94.5755 193.916C95.9134 188.422 99.0273 175.593 119.383 174.132C120.107 181.69 127.681 184.58 131.655 185.056C132.196 185.12 137.014 185.596 140.471 182.532C142.557 180.682 143.656 177.967 143.728 174.45C149.709 174.799 157.378 175.831 168.83 180.372C177.741 183.913 193.04 186.295 193.191 186.318C193.334 186.342 193.47 186.287 193.557 186.175C193.708 185.977 209.094 166.344 214.597 158.334C214.964 157.802 215.266 157.802 215.362 157.802C216.373 157.802 217.878 159.954 219.208 161.843C220.992 164.391 222.673 166.797 224.409 166.622C224.48 166.622 224.544 166.606 224.608 166.59C224.305 167.194 223.947 167.892 223.557 168.662C222.155 171.441 220.26 175.188 218.301 179.086C214.12 187.374 209.389 196.766 208.712 198.028C203.297 208.071 181.898 204.982 170.399 203.323C167.436 202.895 165.095 202.561 163.812 202.561C163.701 202.561 163.597 202.609 163.526 202.688C163.454 202.768 163.414 202.871 163.422 202.982C164.051 212.247 159.783 217.423 157.187 219.685C157.107 219.757 157.059 219.852 157.051 219.963C156.175 238.722 160.293 252.449 161.073 254.838L161.065 254.83Z" fill="black"/>
<path d="M210.984 113.853L226.235 129.977L232.805 203.855L171.428 210L163.313 118.783L210.984 113.853Z" fill="white"/>
<path d="M171.427 210.389C171.427 210.389 171.451 210.389 171.467 210.389L232.844 204.244C233.059 204.22 233.21 204.038 233.194 203.823L226.624 129.945C226.624 129.857 226.576 129.778 226.521 129.715L211.27 113.591C211.182 113.504 211.063 113.456 210.943 113.472L163.272 118.41C163.057 118.434 162.906 118.616 162.922 118.83L171.037 210.047C171.045 210.151 171.101 210.246 171.18 210.317C171.252 210.373 171.34 210.405 171.427 210.405V210.389ZM232.382 203.506L171.778 209.571L163.734 119.124L210.832 114.25L225.852 130.135L232.374 203.498L232.382 203.506Z" fill="black"/>
<path d="M226.234 129.977L212.361 131.025L210.984 113.853L226.234 129.977Z" fill="#3176DF"/>
<path d="M212.363 131.414C212.363 131.414 212.387 131.414 212.395 131.414L226.259 130.366C226.411 130.358 226.538 130.254 226.594 130.12C226.65 129.977 226.618 129.818 226.514 129.715L211.264 113.591C211.152 113.472 210.969 113.432 210.818 113.504C210.666 113.567 210.571 113.726 210.587 113.893L211.965 131.064C211.98 131.271 212.156 131.421 212.355 131.421L212.363 131.414ZM225.391 129.651L212.729 130.604L211.471 114.925L225.391 129.651Z" fill="black"/>
<path d="M176.093 131.072C176.093 131.072 176.101 131.072 176.109 131.072L187.306 129.913C187.377 129.913 187.433 129.842 187.425 129.77C187.425 129.699 187.353 129.651 187.282 129.651L176.085 130.81C176.013 130.81 175.957 130.882 175.965 130.953C175.965 131.017 176.029 131.072 176.093 131.072Z" fill="black"/>
<path d="M176.475 135.359C176.475 135.359 176.482 135.359 176.49 135.359L192.299 133.724C192.37 133.724 192.418 133.652 192.418 133.581C192.418 133.509 192.346 133.462 192.275 133.462L176.467 135.097C176.395 135.097 176.339 135.169 176.347 135.24C176.347 135.303 176.411 135.359 176.475 135.359Z" fill="black"/>
<path d="M178.165 154.349C178.165 154.349 178.173 154.349 178.181 154.349L217.044 150.324C217.116 150.324 217.171 150.252 217.163 150.181C217.163 150.109 217.092 150.062 217.02 150.062L178.157 154.087C178.085 154.087 178.029 154.158 178.037 154.23C178.037 154.293 178.101 154.349 178.165 154.349Z" fill="black"/>
<path d="M179.415 168.385C179.415 168.385 179.423 168.385 179.431 168.385L218.294 164.36C218.366 164.36 218.421 164.288 218.413 164.217C218.413 164.145 218.342 164.09 218.27 164.098L179.407 168.123C179.335 168.123 179.287 168.194 179.287 168.266C179.287 168.329 179.351 168.385 179.415 168.385Z" fill="black"/>
<path d="M180.665 182.412C180.665 182.412 180.673 182.412 180.681 182.412L219.544 178.387C219.616 178.387 219.671 178.316 219.663 178.245C219.663 178.173 219.592 178.118 219.52 178.126L180.657 182.15C180.585 182.15 180.529 182.222 180.537 182.293C180.537 182.357 180.601 182.412 180.665 182.412Z" fill="black"/>
<path d="M149.673 184.659C151.735 182.603 154.093 180.682 156.251 175.672C157.637 172.473 162.279 165.431 163.992 164.574C166.859 163.129 168.587 161.819 171.286 161.462C173.54 161.16 177.968 161.74 178.095 162.518C178.494 164.955 172.616 163.407 172.115 163.582C170.379 164.193 168.666 164.884 167.113 166.844C169.519 166.932 173.723 167.472 174.791 168.138C175.913 168.837 178.844 172.457 179.179 173.1C179.76 174.212 179.155 175.315 177.761 174.148C177.689 174.085 174.854 172.1 173.827 170.838C173.413 170.33 169.184 169.941 167.249 170.314C169.248 169.655 173.015 170.099 173.851 170.846C174.05 171.02 177.18 174.426 177.371 174.767C178.191 176.204 176.789 176.736 175.682 175.911C174.432 174.974 173.11 173.449 172.784 173.283C171.008 172.378 169.176 172.894 167.647 173.076C169.144 172.791 170.872 172.489 172.696 173.188C173.023 173.315 176.367 175.974 175.595 177.292C175.181 177.998 173.588 177.625 171.645 175.45C170.49 175.609 169.837 175.879 168.873 176.109C168.205 176.268 165.927 181.309 163.339 182.778C162.821 183.071 161.061 187.446 157.899 193.36C157.215 194.638 154.069 196.639 150.621 191.86C149.378 190.137 147.714 186.604 149.665 184.659H149.673Z" fill="white"/>
<path d="M155.15 195.281C155.238 195.281 155.317 195.281 155.397 195.273C156.775 195.178 157.85 194.313 158.256 193.55C159.769 190.716 160.972 188.224 161.848 186.398C162.612 184.81 163.337 183.301 163.56 183.111C165.256 182.15 166.761 179.8 167.868 178.086C168.306 177.403 168.808 176.625 168.999 176.49C169.326 176.411 169.612 176.331 169.891 176.252C170.393 176.109 170.863 175.974 171.492 175.879C172.814 177.308 174.144 178.102 175.075 178.006C175.45 177.967 175.752 177.792 175.92 177.498C176.079 177.228 176.127 176.927 176.063 176.577C176.644 176.792 177.242 176.736 177.624 176.395C177.791 176.244 178.293 175.68 177.719 174.632C178.627 175.283 179.177 175.005 179.384 174.839C179.854 174.466 179.901 173.68 179.511 172.925C179.145 172.219 176.166 168.551 174.988 167.813C173.873 167.114 170.17 166.654 167.916 166.503C169.23 165.098 170.648 164.51 172.208 163.963C172.336 163.955 172.79 164.01 173.188 164.066C175.227 164.336 177.281 164.534 178.126 163.669C178.333 163.454 178.564 163.065 178.468 162.454C178.261 161.168 173.156 160.811 171.221 161.073C169.119 161.359 167.558 162.208 165.742 163.2C165.137 163.534 164.508 163.875 163.807 164.225C161.983 165.145 157.292 172.274 155.883 175.521C153.995 179.896 152.012 181.825 150.093 183.69C149.854 183.921 149.615 184.159 149.384 184.389C147.25 186.517 148.954 190.232 150.3 192.098C152.172 194.694 153.924 195.289 155.142 195.289L155.15 195.281ZM171.651 175.061C171.651 175.061 171.611 175.061 171.595 175.061C170.807 175.172 170.241 175.331 169.684 175.49C169.405 175.569 169.111 175.648 168.792 175.728C168.402 175.823 168.051 176.355 167.215 177.657C166.212 179.213 164.707 181.563 163.162 182.436C162.803 182.643 162.389 183.468 161.147 186.048C160.271 187.866 159.076 190.359 157.571 193.169C157.316 193.654 156.504 194.4 155.349 194.479C154.338 194.543 152.745 194.106 150.953 191.621C149.838 190.073 148.19 186.683 149.958 184.921C150.189 184.691 150.428 184.461 150.659 184.23C152.538 182.396 154.664 180.324 156.615 175.807C158.033 172.521 162.636 165.669 164.173 164.899C164.89 164.542 165.519 164.193 166.132 163.859C167.948 162.867 169.381 162.089 171.34 161.819C173.594 161.517 177.313 162.113 177.711 162.581C177.751 162.875 177.656 163.01 177.576 163.089C176.939 163.74 174.478 163.415 173.3 163.256C172.471 163.145 172.177 163.113 171.978 163.185C170.154 163.828 168.386 164.566 166.801 166.574C166.714 166.694 166.69 166.844 166.753 166.979C166.817 167.114 166.944 167.202 167.096 167.202C169.748 167.305 173.674 167.876 174.582 168.44C175.617 169.083 178.492 172.608 178.826 173.251C179.065 173.719 179.025 174.1 178.906 174.196C178.81 174.267 178.5 174.227 178.006 173.823C177.998 173.815 177.942 173.775 177.863 173.719C176.358 172.632 175.418 171.854 174.829 171.298C174.438 170.877 174.16 170.584 174.104 170.536C173.085 169.615 169.103 169.266 167.12 169.925C166.921 169.988 166.809 170.195 166.865 170.393C166.921 170.591 167.112 170.718 167.319 170.679C169.27 170.298 173.116 170.742 173.53 171.076C173.682 171.266 173.921 171.52 174.287 171.862C175.259 172.91 176.875 174.696 177.027 174.942C177.242 175.323 177.281 175.641 177.122 175.783C176.915 175.966 176.397 175.942 175.92 175.585C175.744 175.458 175.569 175.315 175.394 175.164C174.526 174.005 173.124 172.918 172.846 172.806C172.551 172.695 172.264 172.608 171.978 172.544C171.468 172.409 170.966 172.362 170.472 172.362C169.381 172.33 168.394 172.529 167.574 172.687C167.367 172.727 167.231 172.925 167.263 173.132C167.295 173.338 167.486 173.481 167.693 173.457C167.956 173.426 168.219 173.386 168.497 173.346C169.166 173.243 169.851 173.14 170.536 173.148C170.926 173.164 171.325 173.203 171.723 173.291C172.017 173.362 172.312 173.473 172.607 173.624C172.702 173.68 173.053 174.021 173.355 174.331C173.769 174.736 174.287 175.252 174.837 175.72C175.044 176.006 175.203 176.292 175.283 176.554C175.346 176.776 175.346 176.95 175.267 177.085C175.243 177.133 175.179 177.197 175.02 177.212C174.486 177.268 173.371 176.768 171.954 175.18C171.882 175.093 171.77 175.053 171.659 175.053L171.651 175.061Z" fill="black"/>
<path d="M236.46 166.924C237.121 163.502 235.457 157.183 234.031 155.897C231.65 153.745 230.328 152.03 227.827 150.967C225.741 150.078 221.313 149.466 220.986 150.189C219.959 152.435 226.036 152.499 226.466 152.793C227.979 153.841 229.444 154.96 230.424 157.262C228.082 156.714 223.885 156.127 222.675 156.484C221.409 156.857 217.618 159.58 217.124 160.112C216.272 161.033 216.559 162.256 218.215 161.501C218.303 161.462 221.568 160.295 222.89 159.35C223.423 158.969 227.604 159.707 229.372 160.581C227.62 159.422 223.869 158.85 222.866 159.35C222.627 159.469 218.709 161.922 218.43 162.2C217.259 163.367 218.462 164.256 219.752 163.748C221.209 163.177 222.89 162.057 223.248 161.978C225.199 161.573 226.832 162.557 228.249 163.137C226.88 162.462 225.295 161.724 223.352 161.906C223.001 161.938 219.075 163.621 219.473 165.098C219.688 165.892 221.321 165.947 223.766 164.367C224.833 164.828 225.39 165.264 226.258 165.733C226.864 166.066 227.716 171.528 229.826 173.624C230.248 174.045 230.615 177.927 231.013 181.476C231.467 185.532 235.767 170.568 236.468 166.916L236.46 166.924Z" fill="white"/>
<path d="M231.346 182.571C231.744 182.571 232.429 182.277 234.436 175.895C235.559 172.322 236.538 168.567 236.849 166.995C237.526 163.478 235.861 157.016 234.3 155.603C233.719 155.079 233.201 154.579 232.708 154.103C231.218 152.674 229.936 151.435 227.985 150.609C226.185 149.847 221.176 148.847 220.635 150.03C220.38 150.594 220.491 151.022 220.635 151.292C221.216 152.348 223.255 152.705 225.293 152.975C225.692 153.031 226.137 153.086 226.265 153.134C227.627 154.079 228.837 155.023 229.729 156.714C227.515 156.262 223.82 155.738 222.562 156.111C221.224 156.508 217.385 159.263 216.836 159.842C216.254 160.462 216.095 161.24 216.454 161.724C216.605 161.938 217.059 162.351 218.118 161.962C217.282 162.827 217.616 163.502 217.736 163.693C218.014 164.121 218.572 164.328 219.193 164.28C219.042 164.598 219.01 164.907 219.09 165.209C219.177 165.534 219.416 165.788 219.766 165.923C220.642 166.257 222.14 165.844 223.788 164.82C224.37 165.082 224.792 165.336 225.238 165.606C225.484 165.757 225.747 165.916 226.034 166.074C226.185 166.257 226.456 167.138 226.703 167.908C227.308 169.853 228.144 172.521 229.538 173.91C229.825 174.307 230.175 177.53 230.454 180.11C230.502 180.586 230.557 181.063 230.613 181.531C230.645 181.809 230.725 182.547 231.29 182.571C231.306 182.571 231.33 182.571 231.346 182.571ZM236.076 166.852C235.415 170.274 232.556 179.975 231.417 181.603C231.417 181.555 231.402 181.507 231.394 181.444C231.338 180.975 231.29 180.499 231.234 180.023C230.749 175.617 230.51 173.775 230.088 173.354C228.829 172.1 228.001 169.432 227.444 167.67C226.982 166.193 226.783 165.59 226.432 165.399C226.145 165.241 225.883 165.082 225.636 164.931C225.142 164.637 224.632 164.328 223.908 164.01C223.788 163.955 223.653 163.97 223.541 164.042C221.757 165.193 220.539 165.376 220.045 165.185C219.894 165.13 219.854 165.05 219.838 164.995C219.798 164.844 219.838 164.677 219.966 164.479C220.109 164.248 220.34 164.01 220.619 163.788C221.264 163.478 221.909 163.121 222.41 162.835C222.785 162.621 223.215 162.383 223.326 162.351C223.661 162.28 223.979 162.256 224.298 162.264C224.68 162.287 225.046 162.343 225.405 162.422C226.082 162.597 226.719 162.883 227.356 163.161C227.611 163.272 227.858 163.383 228.105 163.486C228.296 163.566 228.519 163.478 228.606 163.288C228.694 163.097 228.606 162.867 228.423 162.78C227.682 162.414 226.775 161.97 225.715 161.708C225.238 161.581 224.736 161.494 224.21 161.494C223.916 161.486 223.621 161.494 223.31 161.517C223.016 161.549 221.375 162.224 220.228 163.113C220.021 163.208 219.814 163.304 219.607 163.383C219.05 163.597 218.54 163.486 218.389 163.256C218.269 163.073 218.389 162.78 218.707 162.47C218.914 162.28 220.953 160.986 222.164 160.223C222.602 159.993 222.904 159.803 223.111 159.66C223.135 159.652 223.159 159.644 223.183 159.636C223.876 159.493 227.483 160.073 229.196 160.922C229.379 161.017 229.602 160.946 229.705 160.771C229.809 160.597 229.753 160.366 229.586 160.255C227.842 159.096 223.908 158.39 222.689 159.001C222.625 159.033 222.275 159.247 221.789 159.549C221.073 159.922 219.966 160.422 218.222 161.081C218.126 161.12 218.062 161.144 218.054 161.144C217.473 161.406 217.154 161.367 217.091 161.271C216.995 161.144 217.059 160.763 217.417 160.382C217.903 159.858 221.622 157.215 222.793 156.865C223.812 156.564 227.754 157.048 230.342 157.651C230.486 157.683 230.637 157.635 230.733 157.524C230.828 157.413 230.852 157.254 230.796 157.119C229.801 154.769 228.296 153.587 226.703 152.483C226.528 152.364 226.233 152.316 225.413 152.205C224.234 152.046 221.781 151.713 221.335 150.911C221.28 150.816 221.224 150.657 221.335 150.379C221.853 150.038 225.588 150.435 227.682 151.324C229.498 152.094 230.677 153.229 232.166 154.666C232.668 155.15 233.185 155.651 233.783 156.183C235.041 157.318 236.737 163.486 236.084 166.844L236.076 166.852Z" fill="black"/>
<path d="M127.595 204.196C127.595 204.196 127.635 204.196 127.65 204.196C128.726 204.069 145.25 189.47 149.941 184.937C150.092 184.786 150.1 184.54 149.949 184.389C149.798 184.23 149.551 184.23 149.4 184.381C143.817 189.772 128.869 202.783 127.539 203.426C125.938 203.299 111.898 192.582 106.594 188.533C106.419 188.406 106.18 188.438 106.045 188.605C105.917 188.779 105.949 189.017 106.116 189.152C120.435 200.084 126.313 204.204 127.587 204.204L127.595 204.196Z" fill="black"/>
<path d="M130.159 228.862C130.995 228.862 131.751 228.751 132.412 228.529C137.238 226.925 152.25 206.173 157.18 199.354L157.753 198.568C158.972 196.885 160.198 193.344 159.218 191.352C159.123 191.161 158.892 191.082 158.693 191.169C158.502 191.264 158.422 191.494 158.51 191.693C159.314 193.328 158.215 196.583 157.108 198.107L156.535 198.893C143.394 217.049 135.192 226.767 132.15 227.783C127.379 229.37 117.226 224.504 101.959 213.326C101.784 213.199 101.537 213.239 101.41 213.413C101.282 213.588 101.322 213.834 101.497 213.961C115.147 223.956 124.568 228.862 130.143 228.862H130.159Z" fill="black"/>
<path d="M155.075 198.012C155.139 198.012 155.194 197.965 155.202 197.901C155.21 197.83 155.162 197.766 155.091 197.758C152.319 197.377 150.233 195.226 148.162 192.868C148.115 192.812 148.035 192.812 147.979 192.852C147.923 192.9 147.915 192.979 147.963 193.035C150.066 195.432 152.192 197.623 155.059 198.012H155.075Z" fill="black"/>
<path d="M153.514 200.14C153.578 200.14 153.626 200.1 153.641 200.037C153.657 199.965 153.61 199.894 153.546 199.886C152.383 199.632 151.324 199.06 150.464 198.243C150.416 198.195 150.329 198.195 150.281 198.243C150.233 198.29 150.233 198.377 150.281 198.425C151.173 199.282 152.28 199.87 153.482 200.14C153.49 200.14 153.498 200.14 153.514 200.14Z" fill="black"/>
<path d="M127.913 256.101C141.833 256.101 154.137 253.52 158.764 252.417C158.836 252.401 158.876 252.33 158.86 252.258C158.844 252.187 158.772 252.147 158.701 252.163C151.748 253.822 127.435 258.824 106.387 253.346C106.315 253.322 106.243 253.37 106.227 253.441C106.211 253.512 106.251 253.584 106.323 253.6C113.411 255.442 120.865 256.108 127.913 256.108V256.101Z" fill="black"/>
<path d="M163.997 203.728C164.045 203.728 164.093 203.72 164.141 203.704C164.34 203.625 164.443 203.403 164.364 203.196L161.489 195.821C161.409 195.623 161.186 195.519 160.979 195.599C160.78 195.678 160.676 195.901 160.756 196.107L163.631 203.482C163.695 203.633 163.838 203.728 163.997 203.728Z" fill="black"/>
<path d="M164.082 289.197C164.082 289.197 164.122 289.197 164.138 289.197C164.353 289.165 164.496 288.967 164.464 288.753C163.596 282.965 162.649 276.535 161.733 270.311C160.944 264.968 160.204 259.927 159.622 256.045C159.59 255.83 159.391 255.687 159.176 255.719C158.961 255.751 158.818 255.949 158.85 256.164C159.431 260.046 160.172 265.087 160.96 270.43C161.876 276.654 162.824 283.092 163.692 288.88C163.724 289.07 163.891 289.213 164.082 289.213V289.197Z" fill="black"/>
<path d="M148.889 290.817C148.889 290.817 148.92 290.817 148.936 290.817C149.151 290.793 149.303 290.594 149.279 290.38L147.367 275.273C147.344 275.058 147.144 274.907 146.929 274.931C146.714 274.955 146.563 275.153 146.587 275.368L148.498 290.475C148.522 290.674 148.689 290.817 148.889 290.817Z" fill="black"/>
<path d="M137.371 293C137.587 293 137.762 292.825 137.762 292.611V282.449C137.762 282.235 137.587 282.06 137.371 282.06C137.156 282.06 136.981 282.235 136.981 282.449V292.611C136.981 292.825 137.156 293 137.371 293Z" fill="black"/>
<path d="M96.1593 289.197C96.3026 289.197 96.438 289.118 96.5097 288.983C98.7077 284.672 100.372 278.766 102.124 272.51C103.502 267.62 104.919 262.563 106.719 257.815C106.799 257.617 106.695 257.387 106.488 257.315C106.289 257.236 106.058 257.339 105.987 257.545C104.179 262.324 102.753 267.397 101.376 272.304C99.6315 278.52 97.975 284.386 95.8168 288.634C95.7213 288.824 95.793 289.062 95.9921 289.158C96.0478 289.189 96.1115 289.197 96.1673 289.197H96.1593Z" fill="black"/>
<path d="M193.343 270.946C193.446 270.946 193.55 270.906 193.622 270.827C195.581 268.818 196.584 265.905 196.361 262.825C196.266 261.451 195.923 260.141 195.39 258.958C197.404 258.403 199.236 257.204 200.423 255.489C201.92 253.314 202.254 250.472 201.546 247.939C201.554 247.939 201.562 247.931 201.57 247.923C207.208 245.018 210.123 237.778 208.06 231.792C207.988 231.585 207.765 231.482 207.566 231.546C207.359 231.617 207.256 231.839 207.327 232.038C209.263 237.643 206.563 244.407 201.315 247.177C200.861 245.963 200.152 244.851 199.204 243.954C198.48 243.263 197.341 242.501 196.09 242.739C195.175 242.922 194.498 243.644 194.275 244.676C193.996 246.002 194.498 247.415 195.501 248.114C196.855 249.059 198.814 249.098 200.853 248.257C201.458 250.535 201.139 253.084 199.794 255.037C198.687 256.648 196.951 257.76 195.055 258.244C194.41 257.077 193.558 256.069 192.531 255.283C191.471 254.473 190.5 254.116 189.568 254.195C188.907 254.251 188.262 254.6 187.848 255.124C187.506 255.561 187.362 256.069 187.442 256.561C187.561 257.339 188.159 257.99 189.218 258.49C190.898 259.284 192.809 259.466 194.633 259.125C195.175 260.26 195.509 261.531 195.605 262.864C195.812 265.722 194.896 268.421 193.088 270.271C192.937 270.422 192.937 270.676 193.088 270.819C193.168 270.89 193.263 270.93 193.359 270.93L193.343 270.946ZM194.227 258.419C192.634 258.673 190.986 258.49 189.528 257.799C188.971 257.537 188.286 257.085 188.19 256.458C188.135 256.1 188.294 255.807 188.445 255.616C188.724 255.259 189.17 255.021 189.616 254.981C190.341 254.918 191.137 255.219 192.029 255.91C192.913 256.585 193.654 257.442 194.227 258.419ZM200.598 247.519C199.483 247.979 197.468 248.551 195.931 247.487C195.087 246.899 194.84 245.716 195.023 244.851C195.095 244.51 195.358 243.684 196.226 243.517C197.205 243.327 198.169 244.073 198.655 244.526C199.531 245.351 200.184 246.391 200.598 247.519Z" fill="black"/>
<path d="M224.798 117.846C225.005 117.846 225.172 117.687 225.188 117.481C225.411 113.607 223.978 109.59 221.342 106.74C221.198 106.581 220.952 106.573 220.792 106.716C220.633 106.859 220.625 107.105 220.768 107.264C223.261 109.963 224.623 113.766 224.416 117.433C224.4 117.648 224.567 117.83 224.782 117.846C224.782 117.846 224.798 117.846 224.806 117.846H224.798Z" fill="black"/>
<path d="M230.973 117.092C230.973 117.092 231.037 117.092 231.077 117.092C231.547 117.052 231.491 116.465 231.451 115.989C231.268 113.94 230.973 111.876 230.583 109.852C230.543 109.645 230.352 109.51 230.145 109.542C229.938 109.574 229.795 109.757 229.811 109.963C230.424 116.616 230.583 117.092 230.981 117.092H230.973Z" fill="black"/>
</g>
</g>
<rect x="44.5" y="288.5" width="226" height="39" rx="9.5" fill="white"/>
<rect x="44.5" y="288.5" width="226" height="39" rx="9.5" stroke="#265ABF"/>
<path d="M113.596 309.312L114.716 310.256C113.74 311.424 112.268 312.16 110.54 312.16C107.42 312.16 104.956 309.648 104.956 306.512C104.956 303.392 107.42 300.848 110.54 300.848C112.252 300.848 113.708 301.568 114.684 302.72L113.564 303.648C112.812 302.832 111.756 302.288 110.54 302.288C108.22 302.288 106.444 304.16 106.444 306.512C106.444 308.864 108.22 310.72 110.54 310.72C111.772 310.72 112.844 310.192 113.596 309.312ZM117.766 309.28V312H116.31V304.528H117.766V306.208C118.15 304.88 118.87 304.368 119.846 304.368C120.374 304.368 120.934 304.512 121.142 304.656L120.918 306.016C120.518 305.824 120.118 305.76 119.814 305.76C118.374 305.76 117.766 307.296 117.766 309.28ZM123.395 307.68H128.035C127.859 306.416 126.979 305.68 125.763 305.68C124.531 305.68 123.571 306.416 123.395 307.68ZM129.475 308.24C129.475 308.416 129.475 308.64 129.459 308.816H123.395C123.571 310.08 124.531 310.848 125.811 310.848C126.707 310.848 127.523 310.448 127.955 309.696C128.339 309.872 128.803 310 129.203 310.176C128.563 311.504 127.219 312.16 125.763 312.16C123.635 312.16 121.939 310.608 121.939 308.24C121.939 305.872 123.635 304.368 125.763 304.368C127.891 304.368 129.475 305.872 129.475 308.24ZM137.245 312V310.848C136.749 311.68 135.661 312.16 134.621 312.16C132.573 312.16 130.829 310.624 130.829 308.256C130.829 305.872 132.573 304.368 134.621 304.368C135.661 304.368 136.733 304.8 137.245 305.648V304.528H138.685V312H137.245ZM137.229 308.24C137.229 306.64 135.965 305.792 134.749 305.792C133.405 305.792 132.317 306.768 132.317 308.24C132.317 309.712 133.405 310.736 134.749 310.736C136.077 310.736 137.229 309.824 137.229 308.24ZM143.138 304.528H144.722V305.76H143.138V312H141.682V305.76H140.338V304.528H141.682V301.712H143.138V304.528ZM147.223 307.68H151.863C151.687 306.416 150.807 305.68 149.591 305.68C148.359 305.68 147.399 306.416 147.223 307.68ZM153.303 308.24C153.303 308.416 153.303 308.64 153.287 308.816H147.223C147.399 310.08 148.359 310.848 149.639 310.848C150.535 310.848 151.351 310.448 151.783 309.696C152.167 309.872 152.631 310 153.031 310.176C152.391 311.504 151.047 312.16 149.591 312.16C147.463 312.16 145.767 310.608 145.767 308.24C145.767 305.872 147.463 304.368 149.591 304.368C151.719 304.368 153.303 305.872 153.303 308.24ZM159.598 300.976H161.086V310.608H165.582V312H159.598V300.976ZM168.672 304.528V312H167.232V304.528H168.672ZM166.944 301.776C166.944 301.216 167.392 300.832 167.952 300.832C168.512 300.832 168.96 301.216 168.96 301.776C168.96 302.336 168.512 302.72 167.952 302.72C167.392 302.72 166.944 302.336 166.944 301.776ZM170.163 304.528H171.699L173.971 310.144L176.227 304.528H177.779L174.659 312H174.675H173.267L170.163 304.528ZM180.051 307.68H184.691C184.515 306.416 183.635 305.68 182.419 305.68C181.187 305.68 180.227 306.416 180.051 307.68ZM186.131 308.24C186.131 308.416 186.131 308.64 186.115 308.816H180.051C180.227 310.08 181.187 310.848 182.467 310.848C183.363 310.848 184.179 310.448 184.611 309.696C184.995 309.872 185.459 310 185.859 310.176C185.219 311.504 183.875 312.16 182.419 312.16C180.291 312.16 178.595 310.608 178.595 308.24C178.595 305.872 180.291 304.368 182.419 304.368C184.547 304.368 186.131 305.872 186.131 308.24ZM200.346 309.312L201.466 310.256C200.49 311.424 199.018 312.16 197.29 312.16C194.17 312.16 191.706 309.648 191.706 306.512C191.706 303.392 194.17 300.848 197.29 300.848C199.002 300.848 200.458 301.568 201.434 302.72L200.314 303.648C199.562 302.832 198.506 302.288 197.29 302.288C194.97 302.288 193.194 304.16 193.194 306.512C193.194 308.864 194.97 310.72 197.29 310.72C198.522 310.72 199.594 310.192 200.346 309.312ZM203.844 300.976L206.34 309.488L208.836 300.976H210.372L207.06 312H205.636L202.292 300.976H203.844Z" fill="#265ABF"/>
<path d="M44.8933 39.996L46.6973 41.426C45.3773 43.164 43.2873 44.22 40.8013 44.22C36.5113 44.22 33.1453 40.766 33.1453 36.454C33.1453 32.164 36.5113 28.666 40.8013 28.666C43.2433 28.666 45.3113 29.722 46.6533 31.394L44.8493 32.802C43.8593 31.68 42.4733 30.91 40.8013 30.91C37.7873 30.91 35.4773 33.396 35.4773 36.454C35.4773 39.534 37.7873 41.976 40.8013 41.976C42.4733 41.976 43.9473 41.228 44.8933 39.996ZM53.4204 42.02C55.1364 42.02 56.5444 40.766 56.5444 38.83C56.5444 36.96 55.1364 35.728 53.4204 35.728C51.7264 35.728 50.3184 36.96 50.3184 38.83C50.3184 40.766 51.7264 42.02 53.4204 42.02ZM53.4204 44.22C50.5164 44.22 48.0744 42.086 48.0744 38.83C48.0744 35.574 50.5164 33.506 53.4204 33.506C56.3464 33.506 58.8104 35.574 58.8104 38.83C58.8104 42.086 56.3464 44.22 53.4204 44.22ZM63.5902 38.478V44H61.3242V33.726H63.5902V35.266C64.1842 34.1 65.6142 33.506 66.7362 33.506C69.2222 33.506 70.6522 35.09 70.6522 38.016V44H68.3862V38.28C68.3862 36.63 67.5502 35.728 66.2302 35.728C64.8882 35.728 63.5902 36.454 63.5902 38.478ZM76.5623 44L72.2723 33.726H74.6703L77.6183 41.118L80.5223 33.726H82.9423L78.6523 44H76.5623ZM94.3598 38.83C94.3598 39.072 94.3598 39.424 94.3378 39.666H86.1758C86.4178 41.25 87.6498 42.24 89.3218 42.24C90.4658 42.24 91.5878 41.712 92.1158 40.766L93.9638 41.58C93.0838 43.406 91.1258 44.22 89.2118 44.22C86.3078 44.22 83.9318 42.086 83.9318 38.83C83.9318 35.574 86.3078 33.506 89.2118 33.506C92.1158 33.506 94.3598 35.574 94.3598 38.83ZM86.1758 38.016H92.1378C91.8958 36.41 90.7738 35.486 89.2118 35.486C87.6278 35.486 86.4178 36.432 86.1758 38.016ZM99.018 40.304V44H96.752V33.726H99.018V36.08C99.546 34.232 100.536 33.506 101.834 33.506C102.56 33.506 103.33 33.66 103.66 33.902L103.286 35.992C102.692 35.706 102.208 35.64 101.768 35.64C99.832 35.64 99.018 37.576 99.018 40.304ZM108.619 29.832V33.726H110.797V35.596H108.619V44H106.353V35.596H104.505V33.726H106.353V29.832H108.619ZM127.37 33.726L121.012 49.016H118.636L120.858 43.516L116.788 33.726H119.208L122.068 40.766L124.95 33.726H127.37ZM133.708 42.02C135.424 42.02 136.832 40.766 136.832 38.83C136.832 36.96 135.424 35.728 133.708 35.728C132.014 35.728 130.606 36.96 130.606 38.83C130.606 40.766 132.014 42.02 133.708 42.02ZM133.708 44.22C130.804 44.22 128.362 42.086 128.362 38.83C128.362 35.574 130.804 33.506 133.708 33.506C136.634 33.506 139.098 35.574 139.098 38.83C139.098 42.086 136.634 44.22 133.708 44.22ZM148.541 39.248V33.726H150.807V44H148.541V42.504C147.947 43.67 146.561 44.22 145.483 44.22C142.953 44.22 141.479 42.636 141.501 39.71V33.726H143.767V39.446C143.767 41.14 144.669 42.02 145.901 42.02C147.221 42.02 148.541 41.294 148.541 39.248ZM156.231 40.304V44H153.965V33.726H156.231V36.08C156.759 34.232 157.749 33.506 159.047 33.506C159.773 33.506 160.543 33.66 160.873 33.902L160.499 35.992C159.905 35.706 159.421 35.64 158.981 35.64C157.045 35.64 156.231 37.576 156.231 40.304ZM175.786 44V42.504C175.148 43.626 173.718 44.22 172.31 44.22C169.538 44.22 167.184 42.108 167.184 38.874C167.184 35.574 169.538 33.506 172.31 33.506C173.784 33.506 175.148 34.078 175.786 35.2V28.138H178.03V44H175.786ZM175.742 38.83C175.742 36.828 174.114 35.706 172.596 35.706C170.902 35.706 169.516 36.938 169.516 38.83C169.516 40.722 170.902 42.02 172.596 42.02C174.268 42.02 175.742 40.832 175.742 38.83ZM190.975 38.83C190.975 39.072 190.975 39.424 190.953 39.666H182.791C183.033 41.25 184.265 42.24 185.937 42.24C187.081 42.24 188.203 41.712 188.731 40.766L190.579 41.58C189.699 43.406 187.741 44.22 185.827 44.22C182.923 44.22 180.547 42.086 180.547 38.83C180.547 35.574 182.923 33.506 185.827 33.506C188.731 33.506 190.975 35.574 190.975 38.83ZM182.791 38.016H188.753C188.511 36.41 187.389 35.486 185.827 35.486C184.243 35.486 183.033 36.432 182.791 38.016ZM196.447 29.832V33.726H198.625V35.596H196.447V44H194.181V35.596H192.333V33.726H194.181V29.832H196.447ZM208.615 44V42.526C207.911 43.648 206.481 44.22 205.161 44.22C202.411 44.22 199.947 42.13 199.947 38.852C199.947 35.574 202.411 33.506 205.161 33.506C206.393 33.506 207.911 34.012 208.615 35.178V33.726H210.859V44H208.615ZM202.279 38.83C202.279 40.722 203.731 42.02 205.425 42.02C207.097 42.02 208.593 40.854 208.593 38.83C208.593 36.828 206.965 35.706 205.425 35.706C203.731 35.706 202.279 36.938 202.279 38.83ZM216.279 33.726V44H214.035V33.726H216.279ZM213.639 29.568C213.639 28.754 214.343 28.138 215.157 28.138C216.015 28.138 216.653 28.754 216.653 29.568C216.653 30.382 216.015 30.998 215.157 30.998C214.343 30.998 213.639 30.382 213.639 29.568ZM219.449 44V28.138H221.715V44H219.449ZM228.669 39.886L227.283 39.556C225.083 38.962 224.291 37.884 224.445 36.212C224.555 34.694 226.249 33.506 228.119 33.506C229.923 33.506 231.749 34.342 231.859 36.542H229.703C229.615 35.772 228.911 35.442 228.207 35.442C227.613 35.442 226.997 35.662 226.755 36.014C226.579 36.3 226.557 36.608 226.667 36.938C226.821 37.356 227.371 37.576 227.921 37.73L229.505 38.126C231.705 38.654 232.189 40.106 232.189 41.118C232.189 43.098 230.451 44.22 228.097 44.22C226.161 44.22 224.225 43.032 224.159 40.854H226.249C226.359 41.734 227.063 42.328 228.273 42.328C229.307 42.328 230.099 41.866 230.099 41.096C230.099 40.414 229.439 40.062 228.669 39.886ZM242.49 33.726V44H240.246V33.726H242.49ZM239.85 29.568C239.85 28.754 240.554 28.138 241.368 28.138C242.226 28.138 242.864 28.754 242.864 29.568C242.864 30.382 242.226 30.998 241.368 30.998C240.554 30.998 239.85 30.382 239.85 29.568ZM247.926 38.478V44H245.66V33.726H247.926V35.266C248.52 34.1 249.95 33.506 251.072 33.506C253.558 33.506 254.988 35.09 254.988 38.016V44H252.722V38.28C252.722 36.63 251.886 35.728 250.566 35.728C249.224 35.728 247.926 36.454 247.926 38.478ZM261.137 29.832V33.726H263.315V35.596H261.137V44H258.871V35.596H257.023V33.726H258.871V29.832H261.137ZM269.983 42.02C271.699 42.02 273.107 40.766 273.107 38.83C273.107 36.96 271.699 35.728 269.983 35.728C268.289 35.728 266.881 36.96 266.881 38.83C266.881 40.766 268.289 42.02 269.983 42.02ZM269.983 44.22C267.079 44.22 264.637 42.086 264.637 38.83C264.637 35.574 267.079 33.506 269.983 33.506C272.909 33.506 275.373 35.574 275.373 38.83C275.373 42.086 272.909 44.22 269.983 44.22Z" fill="black"/>
<path d="M122.65 70V54.842H124.982V67.866H131.054V70H122.65ZM135.476 59.726V70H133.232V59.726H135.476ZM132.836 55.568C132.836 54.754 133.54 54.138 134.354 54.138C135.212 54.138 135.85 54.754 135.85 55.568C135.85 56.382 135.212 56.998 134.354 56.998C133.54 56.998 132.836 56.382 132.836 55.568ZM141.639 70L137.349 59.726H139.747L142.695 67.118L145.599 59.726H148.019L143.729 70H141.639ZM159.436 64.83C159.436 65.072 159.436 65.424 159.414 65.666H151.252C151.494 67.25 152.726 68.24 154.398 68.24C155.542 68.24 156.664 67.712 157.192 66.766L159.04 67.58C158.16 69.406 156.202 70.22 154.288 70.22C151.384 70.22 149.008 68.086 149.008 64.83C149.008 61.574 151.384 59.506 154.288 59.506C157.192 59.506 159.436 61.574 159.436 64.83ZM151.252 64.016H157.214C156.972 62.41 155.85 61.486 154.288 61.486C152.704 61.486 151.494 62.432 151.252 64.016ZM178.612 65.996L180.416 67.426C179.096 69.164 177.006 70.22 174.52 70.22C170.23 70.22 166.864 66.766 166.864 62.454C166.864 58.164 170.23 54.666 174.52 54.666C176.962 54.666 179.03 55.722 180.372 57.394L178.568 58.802C177.578 57.68 176.192 56.91 174.52 56.91C171.506 56.91 169.196 59.396 169.196 62.454C169.196 65.534 171.506 67.976 174.52 67.976C176.192 67.976 177.666 67.228 178.612 65.996ZM181.419 54.842H183.861L187.095 66.106L190.351 54.842H192.771L188.195 70H186.017L181.419 54.842Z" fill="#265ABF"/>
</g>
<defs>
<clipPath id="clip0_3290_16811">
<rect width="314" height="348" rx="10" fill="white"/>
</clipPath>
<clipPath id="clip1_3290_16811">
<rect width="314" height="348" fill="white" transform="translate(314 348) rotate(-180)"/>
</clipPath>
<clipPath id="clip2_3290_16811">
<rect width="160" height="192" fill="white" transform="matrix(-1 0 0 1 237 101)"/>
</clipPath>
</defs>
</svg>
