<svg width="20" height="20" viewBox="0 0 20 20" fill="none" xmlns="http://www.w3.org/2000/svg">
<path d="M17 0.999908H3C1.89543 0.999908 1 1.89534 1 2.99991V16.9999C1 18.1045 1.89543 18.9999 3 18.9999H17C18.1046 18.9999 19 18.1045 19 16.9999V2.99991C19 1.89534 18.1046 0.999908 17 0.999908Z" stroke="#2D425C" stroke-width="1.2" stroke-linecap="round" stroke-linejoin="round"/>
<path d="M7 8.99991C8.10457 8.99991 9 8.10448 9 6.99991C9 5.89534 8.10457 4.99991 7 4.99991C5.89543 4.99991 5 5.89534 5 6.99991C5 8.10448 5.89543 8.99991 7 8.99991Z" stroke="#2D425C" stroke-width="1.2" stroke-linecap="round" stroke-linejoin="round"/>
<path d="M19 13.0001L15.914 9.91409C15.5389 9.53915 15.0303 9.32852 14.5 9.32852C13.9697 9.32852 13.4611 9.53915 13.086 9.91409L4 19.0001" stroke="#2D425C" stroke-width="1.2" stroke-linecap="round" stroke-linejoin="round"/>
</svg>
