<svg width="32" height="32" viewBox="0 0 32 32" fill="none" xmlns="http://www.w3.org/2000/svg">
<rect width="32" height="32" rx="16" fill="#1668DC"/>
<path d="M12.5712 10.8577H11.3926V9.8577C11.3926 9.77913 11.3284 9.71484 11.2498 9.71484H10.3212C10.2426 9.71484 10.1784 9.77913 10.1784 9.8577V10.8577H8.99979C8.92122 10.8577 8.85693 10.922 8.85693 11.0006V21.0006C8.85693 21.0791 8.92122 21.1434 8.99979 21.1434H10.1784V22.1434C10.1784 22.222 10.2426 22.2863 10.3212 22.2863H11.2498C11.3284 22.2863 11.3926 22.222 11.3926 22.1434V21.1434H12.5712C12.6498 21.1434 12.7141 21.0791 12.7141 21.0006V11.0006C12.7141 10.922 12.6498 10.8577 12.5712 10.8577ZM11.4998 19.9291H10.0712V12.072H11.4998V19.9291ZM22.9998 12.1434H21.8212V10.4291C21.8212 10.3506 21.7569 10.2863 21.6784 10.2863H20.7498C20.6712 10.2863 20.6069 10.3506 20.6069 10.4291V12.1434H19.4284C19.3498 12.1434 19.2855 12.2077 19.2855 12.2863V19.7148C19.2855 19.7934 19.3498 19.8577 19.4284 19.8577H20.6069V21.572C20.6069 21.6506 20.6712 21.7148 20.7498 21.7148H21.6784C21.7569 21.7148 21.8212 21.6506 21.8212 21.572V19.8577H22.9998C23.0784 19.8577 23.1426 19.7934 23.1426 19.7148V12.2863C23.1426 12.2077 23.0784 12.1434 22.9998 12.1434ZM21.9284 18.6434H20.4998V13.3577H21.9284V18.6434ZM17.7855 14.072H16.6069V11.0006C16.6069 10.922 16.5426 10.8577 16.4641 10.8577H15.5355C15.4569 10.8577 15.3926 10.922 15.3926 11.0006V14.072H14.2141C14.1355 14.072 14.0712 14.1363 14.0712 14.2148V17.7863C14.0712 17.8648 14.1355 17.9291 14.2141 17.9291H15.3926V21.0006C15.3926 21.0791 15.4569 21.1434 15.5355 21.1434H16.4641C16.5426 21.1434 16.6069 21.0791 16.6069 21.0006V17.9291H17.7855C17.8641 17.9291 17.9284 17.8648 17.9284 17.7863V14.2148C17.9284 14.1363 17.8641 14.072 17.7855 14.072ZM16.7141 16.6613C16.7141 16.6755 16.7084 16.6891 16.6984 16.6992C16.6883 16.7092 16.6747 16.7148 16.6605 16.7148H15.3391C15.3249 16.7148 15.3112 16.7092 15.3012 16.6992C15.2912 16.6891 15.2855 16.6755 15.2855 16.6613V15.3398C15.2855 15.3256 15.2912 15.312 15.3012 15.302C15.3112 15.2919 15.3249 15.2863 15.3391 15.2863H16.6605C16.6747 15.2863 16.6883 15.2919 16.6984 15.302C16.7084 15.312 16.7141 15.3256 16.7141 15.3398V16.6613Z" fill="white"/>
</svg>
