<svg width="32" height="32" viewBox="0 0 32 32" fill="none" xmlns="http://www.w3.org/2000/svg">
<rect width="32" height="32" rx="16" fill="#1668DC"/>
<path d="M21.9999 13.2721H18.0659L21.6034 8.80246C21.6767 8.70781 21.6106 8.57031 21.4909 8.57031H14.6427C14.5927 8.57031 14.5445 8.5971 14.5195 8.64174L9.89273 16.6328C9.83737 16.7275 9.90523 16.8471 10.0159 16.8471H13.1302L11.5338 23.2328C11.4999 23.3721 11.6677 23.4703 11.7713 23.3703L22.0981 13.5167C22.1909 13.4292 22.1284 13.2721 21.9999 13.2721ZM13.6106 19.9364L14.6874 15.6328H11.8767L15.2624 9.78638H19.2731L15.5534 14.4882H19.3213L13.6106 19.9364Z" fill="white"/>
</svg>
