<svg width="32" height="32" viewBox="0 0 32 32" fill="none" xmlns="http://www.w3.org/2000/svg">
<rect width="32" height="32" rx="16" fill="#1668DC"/>
<g clip-path="url(#clip0_386_7029)">
<path d="M14.8538 17.3706L14.7235 16.7903C14.7199 16.7724 14.7128 16.7564 14.7038 16.7421C14.6935 16.7264 14.6801 16.7129 14.6645 16.7024C14.6489 16.6919 14.6314 16.6846 14.613 16.6809C14.5945 16.6773 14.5755 16.6773 14.5571 16.6811C14.5387 16.6848 14.5212 16.6922 14.5056 16.7028L14.0895 16.9814V14.1956C14.0895 14.1171 14.0253 14.0528 13.9467 14.0528H12.5003C12.4217 14.0528 12.3574 14.1171 12.3574 14.1956V14.8385C12.3574 14.9171 12.4217 14.9814 12.5003 14.9814H13.161V18.4171C13.1609 18.4435 13.1681 18.4694 13.1818 18.4919C13.1956 18.5144 13.2153 18.5327 13.2387 18.5447C13.2622 18.5567 13.2886 18.562 13.3149 18.56C13.3412 18.5579 13.3664 18.5486 13.3878 18.5332L14.7985 17.5189C14.8449 17.4849 14.8663 17.4278 14.8538 17.3706ZM13.8413 13.5028L13.8449 13.5064C13.902 13.5599 13.9931 13.5564 14.0467 13.4974L14.477 13.0296C14.5021 13.002 14.5155 12.9658 14.5145 12.9285C14.5135 12.8912 14.4982 12.8558 14.4717 12.8296L13.5128 11.8992C13.4858 11.8733 13.4498 11.8589 13.4124 11.8593C13.375 11.8596 13.3392 11.8746 13.3128 11.901L12.8717 12.3421C12.8163 12.3974 12.8163 12.4885 12.8735 12.5439L13.8413 13.5028Z" fill="white"/>
<path d="M22.3372 9.88661L16.2694 7.81875C16.1961 7.79375 16.0979 7.78125 15.9997 7.78125C15.9015 7.78125 15.8033 7.79375 15.7301 7.81875L9.66222 9.88661C9.51401 9.93661 9.39258 10.108 9.39258 10.2652V18.8795C9.39258 19.0366 9.49436 19.2438 9.61758 19.342L15.7729 24.1384C15.8354 24.1866 15.9158 24.2116 15.9979 24.2116C16.0801 24.2116 16.1622 24.1866 16.2229 24.1384L22.3783 19.342C22.5015 19.2455 22.6033 19.0384 22.6033 18.8795V10.2652C22.6069 10.108 22.4854 9.93839 22.3372 9.88661ZM21.3212 18.5366L15.9997 22.683L10.6783 18.5366V10.9009L15.9997 9.08661L21.3212 10.9009V18.5366Z" fill="white"/>
<path d="M14.9282 12.1584V12.8013C14.9282 12.8798 14.9924 12.9441 15.071 12.9441H16.9996V17.837H16.321V14.087C16.321 14.0084 16.2567 13.9441 16.1782 13.9441H15.5532C15.4746 13.9441 15.4103 14.0084 15.4103 14.087V17.837H14.8567C14.7782 17.837 14.7139 17.9013 14.7139 17.9798V18.6406C14.7139 18.7191 14.7782 18.7834 14.8567 18.7834H19.2139C19.2924 18.7834 19.3567 18.7191 19.3567 18.6406V17.9798C19.3567 17.9013 19.2924 17.837 19.2139 17.837H17.9282V15.6584H18.9639C19.0424 15.6584 19.1067 15.5941 19.1067 15.5156V14.8906C19.1067 14.812 19.0424 14.7477 18.9639 14.7477H17.9282V12.9441H19.0532C19.1317 12.9441 19.196 12.8798 19.196 12.8013V12.1584C19.196 12.0798 19.1317 12.0156 19.0532 12.0156H15.071C14.9924 12.0156 14.9282 12.0798 14.9282 12.1584Z" fill="white"/>
</g>
<defs>
<clipPath id="clip0_386_7029">
<rect width="16" height="16" fill="white" transform="translate(8 8)"/>
</clipPath>
</defs>
</svg>
