<svg width="32" height="32" viewBox="0 0 32 32" fill="none" xmlns="http://www.w3.org/2000/svg">
<rect width="32" height="32" rx="16" fill="#1668DC"/>
<path d="M22.187 20.4906C21.8501 19.6927 21.3613 18.968 20.7477 18.3567C20.136 17.7437 19.4113 17.2549 18.6138 16.9174C18.6066 16.9138 18.5995 16.9121 18.5923 16.9085C19.7048 16.1049 20.4281 14.796 20.4281 13.3192C20.4281 10.8728 18.4459 8.89062 15.9995 8.89062C13.5531 8.89062 11.5709 10.8728 11.5709 13.3192C11.5709 14.796 12.2941 16.1049 13.4066 16.9103C13.3995 16.9138 13.3923 16.9156 13.3852 16.9192C12.5852 17.2567 11.8673 17.7406 11.2513 18.3585C10.6383 18.9702 10.1495 19.6949 9.81199 20.4924C9.48042 21.2732 9.3016 22.1104 9.2852 22.9585C9.28472 22.9775 9.28807 22.9965 9.29503 23.0143C9.302 23.032 9.31245 23.0482 9.32576 23.0618C9.33907 23.0755 9.35498 23.0863 9.37255 23.0937C9.39012 23.1011 9.40899 23.1049 9.42806 23.1049H10.4995C10.5781 23.1049 10.6406 23.0424 10.6423 22.9656C10.6781 21.5871 11.2316 20.296 12.2102 19.3174C13.2227 18.3049 14.5673 17.7478 15.9995 17.7478C17.4316 17.7478 18.7763 18.3049 19.7888 19.3174C20.7673 20.296 21.3209 21.5871 21.3566 22.9656C21.3584 23.0442 21.4209 23.1049 21.4995 23.1049H22.5709C22.59 23.1049 22.6089 23.1011 22.6264 23.0937C22.644 23.0863 22.6599 23.0755 22.6732 23.0618C22.6865 23.0482 22.697 23.032 22.7039 23.0143C22.7109 22.9965 22.7142 22.9775 22.7138 22.9585C22.6959 22.1049 22.5191 21.2746 22.187 20.4906ZM15.9995 16.3906C15.1798 16.3906 14.4084 16.071 13.8281 15.4906C13.2477 14.9103 12.9281 14.1388 12.9281 13.3192C12.9281 12.4996 13.2477 11.7281 13.8281 11.1478C14.4084 10.5674 15.1798 10.2478 15.9995 10.2478C16.8191 10.2478 17.5906 10.5674 18.1709 11.1478C18.7513 11.7281 19.0709 12.4996 19.0709 13.3192C19.0709 14.1388 18.7513 14.9103 18.1709 15.4906C17.5906 16.071 16.8191 16.3906 15.9995 16.3906Z" fill="white"/>
</svg>
