<svg width="148" height="147" viewBox="0 0 148 147" fill="none" xmlns="http://www.w3.org/2000/svg">
<rect x="0.5" width="147" height="147" rx="73.5" fill="#F0F7FE"/>
<mask id="mask0_2281_9980" style="mask-type:alpha" maskUnits="userSpaceOnUse" x="30" y="30" width="88" height="87">
<rect x="30.5" y="30" width="87" height="87" fill="#D9D9D9"/>
</mask>
<g mask="url(#mask0_2281_9980)">
<path d="M52.349 92.6883C55.4302 90.4021 58.787 88.5966 62.4192 87.2717C66.0509 85.9473 69.9163 85.2851 74.0156 85.2851C78.1149 85.2851 81.9804 85.9473 85.612 87.2717C89.2442 88.5966 92.601 90.4021 95.6822 92.6883C97.9358 90.2112 99.7214 87.3438 101.039 84.0862C102.357 80.8285 103.016 77.3011 103.016 73.5039C103.016 65.4685 100.191 58.6263 94.5422 52.9773C88.8932 47.3284 82.051 44.5039 74.0156 44.5039C65.9802 44.5039 59.138 47.3284 53.4891 52.9773C47.8401 58.6263 45.0156 65.4685 45.0156 73.5039C45.0156 77.3011 45.6745 80.8285 46.9922 84.0862C48.3098 87.3438 50.0955 90.2112 52.349 92.6883ZM74.0165 76.2227C70.7069 76.2227 67.916 75.0868 65.6437 72.8152C63.3708 70.5429 62.2344 67.7519 62.2344 64.4423C62.2344 61.1327 63.3702 58.3417 65.6419 56.0695C67.9141 53.7966 70.7051 52.6602 74.0147 52.6602C77.3243 52.6602 80.1153 53.796 82.3876 56.0677C84.6604 58.3399 85.7969 61.1309 85.7969 64.4405C85.7969 67.7501 84.661 70.5411 82.3894 72.8133C80.1171 75.0862 77.3262 76.2227 74.0165 76.2227ZM74.0156 107.941C69.2336 107.941 64.7477 107.042 60.5578 105.243C56.3679 103.445 52.7233 100.996 49.6239 97.8956C46.5239 94.7962 44.0746 91.1516 42.276 86.9617C40.4774 82.7718 39.5781 78.2859 39.5781 73.5039C39.5781 68.7219 40.4774 64.236 42.276 60.0461C44.0746 55.8562 46.5239 52.2116 49.6239 49.1122C52.7233 46.0122 56.3679 43.5629 60.5578 41.7643C64.7477 39.9657 69.2336 39.0664 74.0156 39.0664C78.7976 39.0664 83.2835 39.9657 87.4734 41.7643C91.6633 43.5629 95.308 46.0122 98.4073 49.1122C101.507 52.2116 103.957 55.8562 105.755 60.0461C107.554 64.236 108.453 68.7219 108.453 73.5039C108.453 78.2859 107.554 82.7718 105.755 86.9617C103.957 91.1516 101.507 94.7962 98.4073 97.8956C95.308 100.996 91.6633 103.445 87.4734 105.243C83.2835 107.042 78.7976 107.941 74.0156 107.941ZM74.0156 102.504C77.2872 102.504 80.4415 101.978 83.4787 100.925C86.5158 99.8722 89.2125 98.4001 91.5688 96.5091C89.2125 94.6869 86.5509 93.2671 83.5838 92.2497C80.6161 91.2317 77.4267 90.7226 74.0156 90.7226C70.6045 90.7226 67.4094 91.2256 64.4302 92.2316C61.4511 93.2381 58.7952 94.6639 56.4625 96.5091C58.8187 98.4001 61.5154 99.8722 64.5526 100.925C67.5897 101.978 70.7441 102.504 74.0156 102.504ZM74.0156 70.7852C75.8191 70.7852 77.3271 70.1786 78.5396 68.9654C79.7528 67.7528 80.3594 66.2448 80.3594 64.4414C80.3594 62.638 79.7528 61.13 78.5396 59.9174C77.3271 58.7042 75.8191 58.0977 74.0156 58.0977C72.2122 58.0977 70.7042 58.7042 69.4916 59.9174C68.2785 61.13 67.6719 62.638 67.6719 64.4414C67.6719 66.2448 68.2785 67.7528 69.4916 68.9654C70.7042 70.1786 72.2122 70.7852 74.0156 70.7852Z" fill="#265ABF"/>
</g>
</svg>
