<svg width="246" height="225" viewBox="0 0 246 225" fill="none" xmlns="http://www.w3.org/2000/svg">
<mask id="mask0_2_421" style="mask-type:luminance" maskUnits="userSpaceOnUse" x="0" y="0" width="246" height="225">
<path d="M246 0H0V224.718H246V0Z" fill="white"/>
</mask>
<g mask="url(#mask0_2_421)">
<path d="M144.683 80.8534C145.267 91.9994 141.941 103.775 158.615 103.775C175.379 103.73 173.851 85.3477 171.963 78.4714C170.076 71.595 147.065 72.1343 144.683 80.8534Z" fill="#381109"/>
<path d="M173.716 57.5725C173.716 57.5725 178.615 54.2017 189.581 44.7187C191.334 47.3254 195.559 51.7748 198.435 54.5613C193.447 60.6287 189.402 66.0668 185.222 72.6286L173.716 57.5725Z" fill="#ECCCB4"/>
<path d="M183.514 72.9882L178.75 69.0332L196.278 50.3367L200.772 54.831L183.514 72.9882Z" fill="white"/>
<path d="M203.873 96.179L180.413 73.5724C184.593 67.0106 195.379 57.6624 200.323 51.5501C215.559 66.2466 238.705 82.8757 238.66 98.7407C238.57 120.314 194.885 154.336 194.885 154.336L174.525 114.022L203.873 96.179Z" fill="#E8E8E8"/>
<path d="M203.873 96.1791L208.413 100.269" stroke="white" stroke-width="0.5" stroke-miterlimit="10" stroke-linecap="round" stroke-linejoin="round"/>
<path d="M205.177 56.0894L184.458 77.0781" stroke="white" stroke-width="0.5" stroke-miterlimit="10" stroke-linecap="round" stroke-linejoin="round"/>
<path d="M138.615 65.2579C146.256 55.9097 146.795 53.6175 149.896 42.9659C152.952 32.3143 152.054 21.0335 148.368 24.6739C149.177 16.7189 146.436 14.3819 144.323 18.0223C145.447 11.865 142.076 11.91 140.908 16.0448C139.649 11.4605 135.919 16.4043 134.526 24.6739C133.177 32.8986 129.177 38.8761 126.076 41.9322C124.144 43.8199 123.335 44.3592 123.2 48.8535C123.155 51.5501 138.615 65.2579 138.615 65.2579Z" fill="#ECCCB4"/>
<path d="M140.907 16.0447C140.997 15.9548 138.615 27.0109 137.806 30.112" stroke="#AB6453" stroke-width="0.5" stroke-miterlimit="10" stroke-linecap="round" stroke-linejoin="round"/>
<path d="M144.323 18.0224C144.323 18.0224 142.301 28.3594 141.492 31.5504" stroke="#AB6453" stroke-width="0.5" stroke-miterlimit="10" stroke-linecap="round" stroke-linejoin="round"/>
<path d="M148.368 24.6739L145.716 34.4267" stroke="#AB6453" stroke-width="0.5" stroke-miterlimit="10" stroke-linecap="round" stroke-linejoin="round"/>
<path d="M123.155 48.494C123.2 36.8986 130.391 37.348 129.672 30.4717C128.908 23.5953 133.222 24.0447 133.627 29.7975C134.076 35.5503 133.042 38.8761 133.042 38.8761C133.042 38.8761 138.391 43.3704 134.211 50.921" fill="#ECCCB4"/>
<path d="M133.672 28.4941C133.672 28.4941 132.683 31.775 129.222 36.2244" stroke="#AB6453" stroke-width="0.5" stroke-miterlimit="10" stroke-linecap="round" stroke-linejoin="round"/>
<path d="M139.379 64.2692C139.379 64.2692 134.166 55.9097 123.2 46.4266C121.447 49.0333 119.02 51.7749 116.099 54.5614C121.087 60.6287 126.84 66.4714 131.02 73.0331L139.379 64.2692Z" fill="#ECCCB4"/>
<path d="M113.492 55.3253L117.941 51.5501L135.424 69.5724L131.559 73.7522L113.492 55.3253Z" fill="white"/>
<path d="M108.458 96.179L134.166 73.5724C129.986 67.0106 119.2 57.6624 114.256 51.5501C99.0202 66.2466 73.6271 82.8757 73.6721 98.7407C73.7619 120.314 116.998 154.336 116.998 154.336L137.357 114.022L108.458 96.179Z" fill="#E8E8E8"/>
<path d="M123.874 209.841L121.537 248.807H200.413L194.121 208.942L123.874 209.841Z" fill="#303030"/>
<path d="M121.537 210.56V225.931L159.919 212.897L199.289 227.414L193.806 206.291L121.537 210.56Z" fill="white"/>
<path d="M197.716 120.988C189.357 117.842 172.907 112.583 156.368 112.449C140.368 112.314 125.087 116.763 116.953 119.595C113.043 120.988 121.312 202.515 119.739 212.808C118.166 223.145 197.491 216.718 197.491 216.718C197.491 216.718 201.402 122.381 197.716 120.988Z" fill="#E8E8E8"/>
<path d="M135.424 112.943C138.885 125.213 159.919 131.639 159.919 131.639C159.919 131.639 180.997 121.527 179.154 111.46" stroke="white" stroke-width="0.5" stroke-miterlimit="10" stroke-linecap="round" stroke-linejoin="round"/>
<path d="M143.784 112.449C144.458 114.965 155.874 138.83 172.638 113.932C172.638 113.932 164.997 106.157 143.784 112.449Z" fill="#ECCCB4"/>
<path d="M151.155 98.2913C151.155 98.2913 148.728 114.875 149.222 114.516C149.716 114.201 168.773 114.516 168.548 113.527C168.323 112.538 165.042 96.134 165.042 96.134L151.155 98.2913Z" fill="#ECCCB4"/>
<path d="M159.469 71.9095C140.773 72.1342 142.975 107.1 158.525 106.876C174.121 106.696 176.952 71.6847 159.469 71.9095Z" fill="#ECCCB4"/>
<path d="M147.424 88.6286C140.728 80.4489 143.604 101.617 148.593 93.887L147.424 88.6286Z" fill="#ECCCB4"/>
<path d="M170.256 88.269C175.514 81.5724 174.705 100.584 169.492 94.2914L170.256 88.269Z" fill="#ECCCB4"/>
<path d="M151.065 103.999C154.121 108.269 162.57 108.943 165.986 103.819L151.065 103.999Z" fill="#ECCCB4"/>
<path d="M151.065 103.999C154.121 108.269 162.57 108.943 165.986 103.819" stroke="#AB6453" stroke-width="0.5" stroke-miterlimit="10" stroke-linecap="round" stroke-linejoin="round"/>
<path d="M155.874 97.2577C155.649 100.763 158.795 101.617 160.817 97.7521C160.188 97.9319 159.334 98.1116 158.346 98.0667C157.267 97.9319 156.458 97.5723 155.874 97.2577Z" fill="#ECCCB4" stroke="#AB6453" stroke-width="0.5" stroke-miterlimit="10" stroke-linecap="round" stroke-linejoin="round"/>
<path d="M153.132 86.651C153.132 86.651 154.031 85.5274 155.424 85.9768" stroke="#381109" stroke-width="0.5" stroke-miterlimit="10" stroke-linecap="round" stroke-linejoin="round"/>
<path d="M162.975 86.0219C162.975 86.0219 164.773 85.5275 165.312 86.8758" stroke="#381109" stroke-width="0.5" stroke-miterlimit="10" stroke-linecap="round" stroke-linejoin="round"/>
<path d="M149.492 111.37L149.042 115.685" stroke="#AB6453" stroke-width="0.5" stroke-miterlimit="10" stroke-linecap="round" stroke-linejoin="round"/>
<path d="M167.919 111.37L168.638 114.831" stroke="#AB6453" stroke-width="0.5" stroke-miterlimit="10" stroke-linecap="round" stroke-linejoin="round"/>
<path d="M146.256 92.4487L146.84 95.5498" stroke="#AB6453" stroke-width="0.5" stroke-miterlimit="10" stroke-linecap="round" stroke-linejoin="round"/>
<path d="M170.795 93.0779L170.391 95.5049" stroke="#AB6453" stroke-width="0.5" stroke-miterlimit="10" stroke-linecap="round" stroke-linejoin="round"/>
<path d="M119.874 212.133C122.436 219.055 197.716 213.122 197.716 213.122" stroke="white" stroke-width="0.5" stroke-miterlimit="10" stroke-linecap="round" stroke-linejoin="round"/>
<path d="M153.986 93.078C151.739 93.078 149.896 91.1454 149.896 88.8084C149.896 86.4713 151.739 84.5387 153.986 84.5387C156.233 84.5387 158.076 86.4713 158.076 88.8084C158.076 91.1904 156.233 93.078 153.986 93.078Z" stroke="#9E9E9E" stroke-width="0.5" stroke-miterlimit="10" stroke-linecap="round" stroke-linejoin="round"/>
<path d="M154.93 89.2577C154.93 89.887 154.525 90.3813 153.986 90.3813C153.447 90.3813 153.042 89.887 153.042 89.2577C153.042 88.6285 153.447 88.1342 153.986 88.1342C154.525 88.1342 154.93 88.6735 154.93 89.2577Z" fill="black"/>
<path d="M163.919 93.078C161.671 93.078 159.829 91.1454 159.829 88.8084C159.829 86.4713 161.671 84.5387 163.919 84.5387C166.166 84.5387 168.008 86.4713 168.008 88.8084C168.008 91.1904 166.166 93.078 163.919 93.078Z" stroke="#9E9E9E" stroke-width="0.5" stroke-miterlimit="10" stroke-linecap="round" stroke-linejoin="round"/>
<path d="M164.862 89.2577C164.862 89.887 164.458 90.3813 163.919 90.3813C163.379 90.3813 162.975 89.887 162.975 89.2577C162.975 88.6285 163.379 88.1342 163.919 88.1342C164.458 88.1791 164.862 88.6735 164.862 89.2577Z" fill="black"/>
<path d="M152.323 120.179L143.155 124.538L145.177 111.37L152.323 120.179Z" fill="white"/>
<path d="M163.739 118.426L169.986 111.37L173.806 122.471L163.739 118.426Z" fill="white"/>
<path d="M152.323 120.179L158.795 123.55L169.986 111.37L177.806 115.055L159.289 127.684L137.312 114.022L145.177 111.37" fill="white"/>
<path d="M172.638 119.055L169.986 111.37" stroke="#DAE4FE" stroke-width="0.5" stroke-miterlimit="10"/>
<path d="M163.739 118.426L169.492 120.718" stroke="#DAE4FE" stroke-width="0.5" stroke-miterlimit="10"/>
<path d="M149.267 121.617L152.323 120.179" stroke="#DAE4FE" stroke-width="0.5" stroke-miterlimit="10"/>
<path d="M144.143 118.246L145.177 111.37" stroke="#DAE4FE" stroke-width="0.5" stroke-miterlimit="10"/>
<path d="M192.503 51.8648C189.446 42.3817 191.244 46.6064 187.199 36.2694C183.199 25.9324 175.604 17.5279 174.93 22.6515C170.75 15.8201 167.155 15.6403 167.649 19.82C164.817 14.247 162.166 16.3144 163.739 20.3144C159.964 17.438 160.008 23.6402 163.874 31.011C167.739 38.3817 168.233 45.5727 167.604 49.8423C166.975 54.1569 168.907 55.5951 174.84 59.7299C179.469 59.7299 184.368 59.7299 184.368 59.7299L192.503 51.8648Z" fill="#ECCCB4"/>
<path d="M163.784 20.2696C163.829 20.1347 168.638 30.3818 169.851 33.3481" stroke="#AB6453" stroke-width="0.5" stroke-miterlimit="10" stroke-linecap="round" stroke-linejoin="round"/>
<path d="M167.649 19.7751C167.649 19.7751 172.323 29.2132 173.581 32.2694" stroke="#AB6453" stroke-width="0.5" stroke-miterlimit="10" stroke-linecap="round" stroke-linejoin="round"/>
<path d="M174.93 22.6066L178.75 31.9997" stroke="#AB6453" stroke-width="0.5" stroke-miterlimit="10" stroke-linecap="round" stroke-linejoin="round"/>
<path d="M169.042 55.1455C162.031 45.8871 168.278 43.595 163.514 38.6063C158.75 33.6176 162.435 31.3704 166.256 35.64C170.076 39.9097 171.289 43.2355 171.289 43.2355C171.289 43.2355 178.256 41.258 179.514 49.7972" fill="#ECCCB4"/>
<path d="M164.413 33.9772C164.997 34.3367 165.626 34.8761 166.301 35.5952C170.121 39.8648 171.334 43.1906 171.334 43.1906" stroke="#AB6453" stroke-width="0.5" stroke-miterlimit="10" stroke-linecap="round" stroke-linejoin="round"/>
<path d="M168.593 34.2019C172.907 32.1794 178.84 32.0895 178.84 32.0895C178.84 32.0895 176.008 43.685 182.121 48.7186" stroke="#AB6453" stroke-width="0.5" stroke-miterlimit="10" stroke-linecap="round" stroke-linejoin="round"/>
<path d="M108.458 96.1791L103.919 100.269" stroke="white" stroke-width="0.5" stroke-miterlimit="10" stroke-linecap="round" stroke-linejoin="round"/>
<path d="M109.402 56.0894L130.121 77.0781" stroke="white" stroke-width="0.5" stroke-miterlimit="10" stroke-linecap="round" stroke-linejoin="round"/>
<path d="M146.031 86.8757C146.031 86.8757 146.66 92.7183 149.267 86.0667C150.885 82.0218 148.413 81.6622 149.896 79.9544C151.334 78.2465 158.346 86.2465 167.199 80.9881C167.065 84.0892 169.941 92.6734 171.649 86.3813C173.042 81.3027 174.345 67.3702 167.919 66.5612C161.492 65.7522 159.514 70.2915 155.379 69.3927C151.245 68.4938 140.233 71.505 146.031 86.8757Z" fill="#381109"/>
<path d="M151.065 76.4039C151.065 76.4039 161.357 82.3814 166.615 77.7972" stroke="#5C1C0F" stroke-width="0.5" stroke-miterlimit="10" stroke-linecap="round" stroke-linejoin="round"/>
<path d="M153.986 74.4264C153.986 74.4264 162.885 76.9433 166.256 74.4264" stroke="#5C1C0F" stroke-width="0.5" stroke-miterlimit="10" stroke-linecap="round" stroke-linejoin="round"/>
<path d="M153.986 71.9096C153.986 71.9096 165.087 72.8085 166.256 69.0332" stroke="#5C1C0F" stroke-width="0.5" stroke-miterlimit="10" stroke-linecap="round" stroke-linejoin="round"/>
<path d="M147.739 75.55C147.739 75.55 145.941 79.505 147.514 82.3814" stroke="#5C1C0F" stroke-width="0.5" stroke-miterlimit="10" stroke-linecap="round" stroke-linejoin="round"/>
<path d="M168.773 75.3253C168.773 75.3253 170.166 79.2803 169.447 81.7073" stroke="#5C1C0F" stroke-width="0.5" stroke-miterlimit="10" stroke-linecap="round" stroke-linejoin="round"/>
<path d="M168.638 71.9995C168.638 71.9995 171.784 73.9321 171.199 77.0332" stroke="#5C1C0F" stroke-width="0.5" stroke-miterlimit="10" stroke-linecap="round" stroke-linejoin="round"/>
<path d="M117.267 156.358C132.863 152.089 141.896 154.111 146.795 157.257C151.694 160.403 167.155 150.741 174.48 155.999C181.806 161.302 192.682 150.83 199.109 154.291" stroke="white" stroke-width="0.5" stroke-miterlimit="10" stroke-linecap="round" stroke-linejoin="round"/>
<path d="M197.446 190.56C182.615 194.83 174.076 192.808 169.402 189.662C164.773 186.516 150.076 196.178 143.11 190.92C136.144 185.617 125.807 196.088 119.739 192.628" stroke="white" stroke-width="0.5" stroke-miterlimit="10" stroke-linecap="round" stroke-linejoin="round"/>
<path d="M118.975 179.999C134.211 175.729 143.02 177.752 147.784 180.898C152.548 184.044 167.649 174.381 174.795 179.639C181.941 184.943 192.548 174.471 198.84 177.931" stroke="white" stroke-width="0.5" stroke-miterlimit="10" stroke-linecap="round" stroke-linejoin="round"/>
<path d="M199.154 166.965C183.559 171.235 174.525 169.212 169.626 166.066C164.728 162.92 149.267 172.583 141.941 167.325C134.615 162.021 123.739 172.493 117.312 169.032" stroke="white" stroke-width="0.5" stroke-miterlimit="10" stroke-linecap="round" stroke-linejoin="round"/>
<path d="M81.7169 81.3477C89.9865 89.3926 79.2001 114.606 79.2001 114.606" stroke="white" stroke-width="0.5" stroke-miterlimit="10" stroke-linecap="round" stroke-linejoin="round"/>
<path d="M226.974 76.7635C221.716 86.8758 228.368 107.055 234.3 112.314" stroke="white" stroke-width="0.5" stroke-miterlimit="10" stroke-linecap="round" stroke-linejoin="round"/>
<path d="M160.143 91.3251C162.705 91.1004 161.581 93.7071 159.919 94.3364L160.143 91.3251Z" fill="#ECCCB4"/>
<path d="M160.143 91.3251C162.705 91.1004 161.581 93.7071 159.919 94.3364" stroke="#AB6453" stroke-width="0.5" stroke-miterlimit="10" stroke-linecap="round" stroke-linejoin="round"/>
<path d="M158.076 88.8084H159.829" stroke="#9E9E9E" stroke-width="0.5" stroke-miterlimit="10" stroke-linecap="round" stroke-linejoin="round"/>
<path d="M149.896 88.8084L146.031 86.8758" stroke="#9E9E9E" stroke-width="0.5" stroke-miterlimit="10" stroke-linecap="round" stroke-linejoin="round"/>
<path d="M168.008 88.8082L171.649 86.3813" stroke="#9E9E9E" stroke-width="0.5" stroke-miterlimit="10" stroke-linecap="round" stroke-linejoin="round"/>
</g>
<mask id="mask1_2_421" style="mask-type:luminance" maskUnits="userSpaceOnUse" x="0" y="10" width="243" height="215">
<path d="M242.244 10.6412H0V224.718H242.244V10.6412Z" fill="white"/>
</mask>
<g mask="url(#mask1_2_421)">
<path d="M58.6159 65.1681C47.1104 71.595 47.9643 80.8983 49.5374 90.0668C51.1104 99.2802 44.5936 103.909 41.6722 103.415C51.9643 117.482 90.7056 117.033 93.3123 99.2352C86.3011 101.617 84.3686 84.4938 83.6045 76.5837C82.7506 68.7186 78.5709 58.067 58.6159 65.1681Z" fill="black"/>
<path d="M32.5038 207.145L30.2566 245.616H108.054L101.852 206.291L32.5038 207.145Z" fill="#21262B"/>
<path d="M66.4362 211.324C81.762 210.56 88.863 213.122 91.8742 199.729C97.7618 173.302 87.6046 120.988 93.3124 112.628C85.1327 109.932 75.4249 108.359 64.3239 108.269C54.3015 108.179 43.8746 110.966 34.8859 114.426C38.2117 118.696 30.6162 175.01 39.4252 202.246C43.6049 215.279 51.6049 212.043 66.4362 211.324Z" fill="white"/>
<path d="M51.425 203.864C64.5035 202.47 60.5934 197.212 62.8856 190.336C65.1777 183.459 67.9192 169.662 49.807 181.617" stroke="#DCE6FE" stroke-width="0.5" stroke-miterlimit="10" stroke-linecap="round" stroke-linejoin="round"/>
<path d="M81.4473 207.998C64.234 200.673 64.9081 187.819 76.8631 186.875C88.8181 185.976 86.7507 177.257 72.7283 171.055C58.7509 164.853 66.7508 143.729 83.7394 156.808" stroke="#DCE6FE" stroke-width="0.5" stroke-miterlimit="10" stroke-linecap="round" stroke-linejoin="round"/>
<path d="M47.5149 174.74C63.1103 167.639 68.1889 153.842 54.616 156.358" stroke="#DCE6FE" stroke-width="0.5" stroke-miterlimit="10" stroke-linecap="round" stroke-linejoin="round"/>
<path d="M29.1331 132.493C42.8858 148.314 55.9643 145.347 61.0429 136.628C66.0766 127.909 86.7506 132.943 91.1102 135.954C95.4697 138.92 93.1776 121.977 85.1327 119.19C77.0878 116.449 65.1777 136.853 60.0991 128.583C55.0655 120.314 46.7959 110.696 29.8072 125.617" stroke="#DCE6FE" stroke-width="0.5" stroke-miterlimit="10" stroke-linecap="round" stroke-linejoin="round"/>
<path d="M44.998 111.01L47.6048 112.718C59.2002 120.359 74.436 119.37 84.9528 110.246C84.9079 110.291 67.6945 104.269 44.998 111.01Z" fill="#ECCCB4"/>
<path d="M42.7959 111.505L42.8858 111.595C55.6048 123.28 75.2451 123.01 87.6046 110.965" stroke="#DCE6FE" stroke-width="0.5" stroke-miterlimit="10" stroke-linecap="round" stroke-linejoin="round"/>
<path d="M58.7509 93.797C58.7509 93.797 56.1891 111.505 56.6835 111.145C57.1778 110.786 77.5822 111.145 77.3575 110.112C77.0878 109.078 73.6272 91.5499 73.6272 91.5499L58.7509 93.797Z" fill="#ECCCB4"/>
<path d="M67.6047 64.9432C47.6048 65.2129 49.9869 102.561 66.616 102.336C83.29 102.112 86.2563 64.7185 67.6047 64.9432Z" fill="#ECCCB4"/>
<path d="M55.9644 88.4487C50.6161 96.6734 47.515 74.1118 54.7059 82.8308L55.9644 88.4487Z" fill="#ECCCB4"/>
<path d="M79.1102 82.4262C84.7282 75.2353 83.8293 95.5498 78.3013 88.8981L79.1102 82.4262Z" fill="#ECCCB4"/>
<path d="M58.1665 98.8306C61.4474 103.415 71.335 104.134 74.9304 98.6059" stroke="#762F0E" stroke-width="0.5" stroke-miterlimit="10" stroke-linecap="round" stroke-linejoin="round"/>
<path d="M67.8744 86.561C71.4249 85.5273 70.9755 89.3475 68.3238 89.4374" stroke="#762F0E" stroke-width="0.5" stroke-miterlimit="10" stroke-linecap="round" stroke-linejoin="round"/>
<path d="M68.7733 92.6284C69.3126 91.2801 64.998 92.5385 63.6497 91.7745C63.0654 98.6958 67.9643 97.2127 68.7733 92.6284Z" stroke="#762F0E" stroke-width="0.5" stroke-miterlimit="10" stroke-linecap="round" stroke-linejoin="round"/>
<path d="M60.8182 81.2578C60.8182 81.2578 62.4362 80.5836 63.5598 81.123" stroke="#762F0E" stroke-width="0.5" stroke-miterlimit="10" stroke-linecap="round" stroke-linejoin="round"/>
<path d="M71.2002 81.0331C71.2002 81.0331 72.6833 80.4039 74.1665 81.3477" stroke="#762F0E" stroke-width="0.5" stroke-miterlimit="10" stroke-linecap="round" stroke-linejoin="round"/>
<path d="M56.9082 107.145L56.4587 111.774" stroke="#762F0E" stroke-width="0.5" stroke-miterlimit="10" stroke-linecap="round" stroke-linejoin="round"/>
<path d="M76.6383 107.145L77.4024 110.786" stroke="#762F0E" stroke-width="0.5" stroke-miterlimit="10" stroke-linecap="round" stroke-linejoin="round"/>
<path d="M53.4924 86.8757L54.0767 90.2015" stroke="#762F0E" stroke-width="0.5" stroke-miterlimit="10" stroke-linecap="round" stroke-linejoin="round"/>
<path d="M79.7395 87.5948L79.2451 90.1566" stroke="#762F0E" stroke-width="0.5" stroke-miterlimit="10" stroke-linecap="round" stroke-linejoin="round"/>
<path d="M63.2452 84.0443C63.2452 84.6735 62.8407 85.1678 62.3014 85.1678C61.762 85.1678 61.3575 84.6735 61.3575 84.0443C61.3575 83.415 61.762 82.9207 62.3014 82.9207C62.8407 82.9207 63.2452 83.415 63.2452 84.0443Z" fill="black"/>
<path d="M73.1777 84.0443C73.1777 84.6735 72.7732 85.1678 72.2339 85.1678C71.6945 85.1678 71.29 84.6735 71.29 84.0443C71.29 83.415 71.6945 82.9207 72.2339 82.9207C72.7732 82.9207 73.1777 83.415 73.1777 84.0443Z" fill="black"/>
<path d="M24.9982 121.033C12.6387 134.471 0.818581 183.504 13.6275 192.268C26.4364 201.032 41.3576 171.369 41.3576 171.369L24.9982 121.033Z" fill="#DCE0E9"/>
<path d="M102.436 118.336C102.436 118.336 141.851 177.257 128.998 188.763C120.773 196.133 93.3124 156.583 93.3124 156.583L102.436 118.336Z" fill="#DCE0E9"/>
<path d="M34.8408 114.426C28.2791 117.887 25.2229 120.538 24.9982 121.033C21.4027 129.707 28.0094 168.403 32.0543 180.268C34.3465 186.965 27.0656 211.729 26.796 218.605C34.6611 222.425 43.6947 223.099 52.6385 223.189L56.4587 126.875C55.6047 126.696 54.7059 126.516 53.852 126.291C46.8408 124.718 39.7846 120.763 34.8408 114.426ZM95.4696 179.19C93.582 155.235 102.436 118.336 102.436 118.336C102.436 118.336 99.4696 115.19 93.2674 112.628C88.1888 120.089 80.3237 124.808 71.7844 126.651L81.1327 222.335C88.4135 220.987 98.6157 218.335 105.717 215.819C105.402 211.684 95.964 185.347 95.4696 179.19Z" fill="#DCE0E9"/>
<path d="M56.4587 126.875C50.0767 140.583 31.0207 129.482 32.7285 115.595C34.8409 114.426 34.8409 114.426 34.8409 114.426C34.8409 114.426 42.7959 124.538 56.4587 126.875Z" fill="#FFEFEF"/>
<path d="M71.7844 126.651C71.7844 126.651 83.2001 124.538 93.2674 112.628C96.9977 114.426 96.9977 114.426 96.9977 114.426C96.9977 114.426 87.6045 144.718 71.7844 126.651Z" fill="#FFEFEF"/>
<path d="M119.739 198.381C129.221 198.381 136.908 190.191 136.908 180.089C136.908 169.986 129.221 161.797 119.739 161.797C110.257 161.797 102.571 169.986 102.571 180.089C102.571 190.191 110.257 198.381 119.739 198.381Z" fill="#FFEFEF"/>
<path d="M97.8966 149.976C97.8966 149.976 80.9529 160.493 81.7169 176.448C79.3349 176.089 78.1215 174.246 78.1215 174.246C78.1215 174.246 79.5147 155.01 93.4472 147.504C94.9753 149.077 97.8966 149.976 97.8966 149.976Z" fill="#E56F6F"/>
<path d="M71.7395 154.201C71.7395 154.201 111.964 212.987 128.998 188.763C143.335 168.358 99.6494 162.516 82.8406 141.437" fill="#ECCCB4"/>
<path d="M23.0207 198.381C32.5026 198.381 40.1891 189.124 40.1891 177.707C40.1891 166.289 32.5026 157.033 23.0207 157.033C13.5389 157.033 5.85229 166.289 5.85229 177.707C5.85229 189.124 13.5389 198.381 23.0207 198.381Z" fill="#FFEFEF"/>
<path d="M47.5599 148.223C47.5599 148.223 38.4363 202.201 19.3803 195.055C0.27929 187.909 9.49271 171.819 31.4251 145.212" fill="#ECCCB4"/>
<path d="M98.3911 138.246L96.5034 152.718" stroke="#FFEFEF" stroke-width="0.5" stroke-miterlimit="10" stroke-linecap="round" stroke-linejoin="round"/>
<path d="M24.2792 140.134L25.987 151.549" stroke="#FFEFEF" stroke-width="0.5" stroke-miterlimit="10" stroke-linecap="round" stroke-linejoin="round"/>
<path d="M82.0766 139.729C82.0766 139.729 83.1552 134.875 84.8181 128.943C86.5709 122.786 78.9305 121.932 77.3575 126.381C76.4586 128.898 77.4923 132.403 74.8856 137.662" fill="#ECCCB4"/>
<path d="M85.9417 140.044C85.9417 140.044 88.3237 147.954 92.9079 154.336C92.7731 163.639 81.8069 166.92 81.8069 166.92C81.8069 166.92 77.8519 162.83 77.8968 162.606C72.6384 162.875 69.762 159.19 69.6272 156.403C69.5373 153.617 85.9417 140.044 85.9417 140.044Z" fill="#ECCCB4"/>
<path d="M72.0542 158.516C66.6609 157.752 64.0542 154.965 66.7508 152.089C64.8182 149.752 66.3463 147.37 66.3463 147.37C63.6947 145.617 66.9755 140.808 66.9755 140.808C64.6385 136.898 70.3014 133.437 72.0092 133.482C73.7171 133.572 81.4923 133.887 84.9979 137.572C86.7057 139.415 85.672 141.212 85.6271 142.156C85.2226 147.864 85.4024 153.078 82.3013 154.291" fill="#ECCCB4"/>
<path d="M85.9866 140.044C85.9866 140.943 85.672 141.707 85.6271 142.201C85.2226 147.909 85.4024 153.122 82.3013 154.336" stroke="#762F0E" stroke-width="0.5" stroke-miterlimit="10" stroke-linecap="round" stroke-linejoin="round"/>
<path d="M66.6609 141.212C69.4474 138.336 70.4361 137.932 72.3238 138.875C74.2563 139.819 77.6271 141.078 79.5147 140.853" stroke="#762F0E" stroke-width="0.5" stroke-miterlimit="10" stroke-linecap="round" stroke-linejoin="round"/>
<path d="M66.3463 147.37C70.571 144.628 69.6272 145.167 77.2226 147.145" stroke="#762F0E" stroke-width="0.5" stroke-miterlimit="10" stroke-linecap="round" stroke-linejoin="round"/>
<path d="M66.7509 152.089C69.3576 150.606 72.9081 154.021 75.9193 152.988" stroke="#762F0E" stroke-width="0.5" stroke-miterlimit="10" stroke-linecap="round" stroke-linejoin="round"/>
<path d="M75.6497 133.527C75.6497 133.527 81.4923 134.83 83.2451 136.224" stroke="#762F0E" stroke-width="0.5" stroke-miterlimit="10" stroke-linecap="round" stroke-linejoin="round"/>
<path d="M69.6721 157.976C69.6721 157.976 72.2788 159.1 73.8519 158.516" stroke="#762F0E" stroke-width="0.5" stroke-miterlimit="10" stroke-linecap="round" stroke-linejoin="round"/>
<path d="M39.56 134.651C39.56 134.651 38.4813 129.797 36.8184 123.864C35.0656 117.707 42.706 116.853 44.279 121.303C45.1779 123.819 44.1442 127.325 46.7509 132.583" fill="#ECCCB4"/>
<path d="M35.6948 134.965C35.6948 134.965 33.3128 142.875 28.7285 149.257C28.8633 158.561 39.8296 161.841 39.8296 161.841C39.8296 161.841 43.7846 157.752 43.7397 157.527C48.998 157.797 51.8744 154.111 52.0093 151.325C52.0991 148.493 35.6948 134.965 35.6948 134.965Z" fill="#ECCCB4"/>
<path d="M49.5823 153.437C54.9756 152.673 57.5823 149.887 54.8857 147.01C56.8182 144.673 55.2902 142.291 55.2902 142.291C57.9418 140.538 54.661 135.729 54.661 135.729C56.998 131.819 51.3351 128.359 49.6273 128.404C47.9194 128.493 40.1442 128.808 36.6386 132.493C34.9308 134.336 35.9645 136.134 36.0094 137.078C36.4139 142.785 36.2341 147.999 39.3352 149.212" fill="#ECCCB4"/>
<path d="M35.6948 134.965C35.6948 135.864 36.0094 136.628 36.0544 137.123C36.4589 142.83 36.2791 148.044 39.3802 149.257" stroke="#762F0E" stroke-width="0.5" stroke-miterlimit="10" stroke-linecap="round" stroke-linejoin="round"/>
<path d="M54.9756 136.089C52.1891 133.213 51.2003 132.808 49.3127 133.752C47.3801 134.696 44.0093 135.954 42.1217 135.729" stroke="#762F0E" stroke-width="0.5" stroke-miterlimit="10" stroke-linecap="round" stroke-linejoin="round"/>
<path d="M55.3351 142.291C51.1104 139.549 52.0542 140.089 44.4587 142.066" stroke="#762F0E" stroke-width="0.5" stroke-miterlimit="10" stroke-linecap="round" stroke-linejoin="round"/>
<path d="M54.9306 147.01C52.3238 145.527 48.7733 148.943 45.7621 147.909" stroke="#762F0E" stroke-width="0.5" stroke-miterlimit="10" stroke-linecap="round" stroke-linejoin="round"/>
<path d="M46.0317 128.449C46.0317 128.449 40.1891 129.752 38.4363 131.145" stroke="#762F0E" stroke-width="0.5" stroke-miterlimit="10" stroke-linecap="round" stroke-linejoin="round"/>
<path d="M51.9643 152.898C51.9643 152.898 49.3576 154.021 47.7845 153.437" stroke="#762F0E" stroke-width="0.5" stroke-miterlimit="10" stroke-linecap="round" stroke-linejoin="round"/>
<path d="M68.3688 63.4602C53.9419 63.4602 52.8633 70.2017 52.5037 78.6511C52.5037 78.6511 51.2003 90.651 53.4475 96.0892C55.3801 93.6622 57.0879 83.2353 56.6835 79.2803C57.6273 79.2803 61.7171 79.1904 65.9418 79.0556L66.6609 73.3028L68.6834 78.9657C69.5373 78.9207 70.3463 78.9207 71.1553 78.8758L71.2451 74.1118L72.8631 78.8308C75.2451 78.741 76.908 78.696 76.908 78.696C79.1552 90.2016 77.4024 95.3251 79.8743 98.2015C82.4361 73.0331 82.7956 63.4602 68.3688 63.4602Z" fill="black"/>
<path d="M59.7396 68.7186C59.7396 68.7186 59.425 74.1567 60.8632 76.0893" stroke="#333333" stroke-width="0.5" stroke-miterlimit="10" stroke-linecap="round" stroke-linejoin="round"/>
<path d="M63.2451 66.9657C63.2451 66.9657 64.2339 71.7747 64.4586 76.0892" stroke="#333333" stroke-width="0.5" stroke-miterlimit="10" stroke-linecap="round" stroke-linejoin="round"/>
<path d="M66.4362 66.3365C66.4362 66.3365 69.4923 72.9882 69.1777 76.0893" stroke="#333333" stroke-width="0.5" stroke-miterlimit="10" stroke-linecap="round" stroke-linejoin="round"/>
<path d="M71.335 66.3365C71.335 66.3365 73.5821 70.1567 73.2226 74.5163" stroke="#333333" stroke-width="0.5" stroke-miterlimit="10" stroke-linecap="round" stroke-linejoin="round"/>
<path d="M75.3799 66.9657C75.3799 66.9657 77.4023 73.1679 76.6383 76.0892" stroke="#333333" stroke-width="0.5" stroke-miterlimit="10" stroke-linecap="round" stroke-linejoin="round"/>
<path d="M52.5036 78.6511C51.9643 67.55 60.6384 61.3928 74.8855 63.4602C65.3125 56.0894 47.5599 62.831 52.5036 78.6511Z" fill="#E5E4E5"/>
<path d="M55.9643 64.9432C55.9643 64.9432 49.5823 69.5275 44.998 60.4489C49.1778 58.4264 56.3688 62.8309 56.3688 62.8309C50.6609 52.4489 59.6946 46.6962 59.6946 46.6962C63.0204 53.5276 59.6946 63.4601 59.6946 63.4601" fill="#E5E4E5"/>
<path d="M32.0544 197.347L48.7285 196.898C48.7285 196.898 53.4026 212.987 40.5038 214.111C27.605 215.234 32.0544 197.347 32.0544 197.347Z" stroke="#FFEFEF" stroke-width="0.5" stroke-miterlimit="10"/>
<path d="M82.0765 196.358L97.7618 194.156C97.7618 194.156 103.11 208.807 92.2787 211.19C80.7282 213.751 82.0765 196.358 82.0765 196.358Z" stroke="#FFEFEF" stroke-width="0.5" stroke-miterlimit="10"/>
<path d="M78.0765 174.246C78.0765 174.246 94.1663 163.459 93.4023 147.504C98.0764 149.842 97.8517 149.931 97.8517 149.931C97.8517 149.931 95.5596 168.898 81.672 176.403C80.1439 174.875 78.0765 174.246 78.0765 174.246Z" fill="#D74B4B"/>
</g>
</svg>
