<svg width="98" height="98" viewBox="0 0 98 98" fill="none" xmlns="http://www.w3.org/2000/svg">
<path d="M90.5867 87.3192C90.9314 87.4257 91.4868 87.037 91.71 87.5554C91.9297 88.066 91.3626 88.2915 91.0775 88.5789C90.3403 89.3191 89.564 90.0205 88.814 90.7482C88.3673 91.1824 88.0516 91.117 87.8837 90.5204C87.6629 89.7369 87.4566 88.9494 87.265 88.1578C87.1258 87.5835 87.5568 87.525 87.9459 87.492C88.8085 87.4211 89.6737 87.3774 90.5867 87.3192Z" fill="#7BFF7F"/>
<path d="M10.894 54.8764C10.7979 55.8253 10.6978 56.8648 10.5852 57.9028C10.5371 58.3436 10.2861 58.5083 9.89994 58.2632C9.16962 57.8 8.44574 57.3224 7.75044 56.8077C7.3863 56.5379 7.47134 56.1871 7.77122 55.8875C8.49343 55.1662 9.21217 54.4402 9.9422 53.729C10.1399 53.5368 10.3718 53.2977 10.6758 53.4239C11.0107 53.5628 10.876 53.905 10.8905 54.1713C10.9026 54.375 10.894 54.58 10.894 54.8764Z" fill="#7BE4FF"/>
<path d="M19.3681 31.5053C19.3779 31.9974 19.1654 32.1163 18.8279 32.0341C18.1596 31.872 17.4939 31.6998 16.8306 31.5175C16.5064 31.4289 16.3486 31.2245 16.5081 30.8864C16.9203 30.0102 17.3245 29.1297 17.7642 28.2676C17.9378 27.9275 18.2887 27.6887 18.4627 28.2207C18.8259 29.332 19.0902 30.4754 19.3681 31.5053Z" fill="#7BFF7F"/>
<path d="M52.2148 89.021C52.6993 89.066 53.1869 88.974 53.6217 88.7555C54.0874 88.5127 54.5407 88.5022 54.7998 89.0178C55.0892 89.5938 54.713 89.9067 54.2368 90.1467C53.4744 90.5105 52.6194 90.634 51.7853 90.501C51.2686 90.4388 50.8643 90.2257 50.9132 89.6572C50.9621 89.0887 51.378 88.9147 51.9115 88.9888C52.0119 89.0051 52.1138 89.0123 52.2148 89.021Z" fill="#B97BFF"/>
<path d="M17.1538 11.8024C17.1526 11.9964 17.0746 12.1821 16.9369 12.3187C16.7992 12.4554 16.6129 12.532 16.4189 12.5318C15.7279 12.5367 15.058 12.7709 14.5145 13.1976C14.4407 13.2702 14.3518 13.3254 14.254 13.3591C14.1562 13.3929 14.052 13.4044 13.9492 13.3928C13.8464 13.3812 13.7476 13.3468 13.6598 13.2921C13.572 13.2374 13.4974 13.1638 13.4417 13.0766C13.3759 12.9967 13.3279 12.9038 13.3008 12.8039C13.2737 12.704 13.2682 12.5995 13.2847 12.4974C13.3011 12.3952 13.339 12.2977 13.396 12.2114C13.4531 12.125 13.5279 12.0518 13.6154 11.9966C14.3709 11.3347 15.3548 10.9938 16.3578 11.0463C16.4604 11.041 16.563 11.0566 16.6593 11.0922C16.7556 11.1278 16.8438 11.1827 16.9182 11.2534C16.9927 11.3241 17.052 11.4093 17.0925 11.5036C17.133 11.598 17.1539 11.6997 17.1538 11.8024Z" fill="#7B8DFF"/>
<path d="M45.0467 46.6344C38.0888 46.5843 33.2684 41.6695 33.3202 35.4382C33.3587 32.5283 34.5508 29.7528 36.6348 27.7216C38.7188 25.6904 41.5241 24.5697 44.4339 24.6058C50.6337 24.6927 54.551 29.5143 55.1626 33.7636C55.699 37.4882 54.7574 40.7299 52.081 43.4066C49.9401 45.5486 47.323 46.5982 45.0467 46.6344ZM54.0247 32.1901L54.0335 32.2066C54.1953 32.0619 54.067 31.9224 54.0167 31.7947C52.132 27.0382 47.1161 24.3172 42.205 25.3975C34.2222 27.1551 31.2453 36.4087 36.629 42.6206C37.0817 43.065 37.3594 43.0384 37.5264 42.3602C37.6963 41.6686 38.0161 41.0107 38.1536 40.3151C38.2911 39.6195 38.4776 38.9074 37.5802 38.4171C36.8438 38.0147 36.683 36.9579 37.0402 36.1045C37.3644 36.4834 37.3851 35.7803 37.6465 35.9346C37.1871 37.1484 37.3632 37.626 38.5485 38.2503C38.8091 38.3875 38.8036 38.5714 38.8259 38.8096C38.9607 40.2592 38.4336 41.549 37.8995 42.8424C37.7377 43.2329 37.6057 43.6367 38.0613 43.9652C39.0725 44.7062 40.2031 45.2687 41.404 45.6282C41.5945 45.6843 41.8288 45.8039 41.9304 45.5298C42.162 44.9077 42.5093 44.2776 42.5212 43.6454C42.5287 43.2094 41.7642 43.2833 41.4137 43.0039C41.3746 42.9724 41.321 42.959 41.2811 42.9283C41.0724 42.7691 40.6622 42.6649 40.8634 42.3248C41.0817 41.9558 41.3413 42.2976 41.5633 42.4302C42.4176 42.9663 43.4481 43.1463 44.4335 42.9314C45.419 42.7165 46.2809 42.1239 46.8345 41.2807C48.0071 39.568 47.9529 37.6349 47.8571 35.4176C47.5965 36.0545 47.2366 35.9705 46.9535 35.8585C46.6177 35.7253 45.9113 35.9326 46.0242 35.3664C46.118 34.8923 46.6811 35.3204 47.0328 35.2955C47.2751 35.2781 47.6189 35.574 47.7275 35.327C47.898 34.936 47.7304 34.4812 47.6424 34.0609C47.5772 33.7503 47.3144 33.8059 47.0889 33.794C46.479 33.7622 45.8694 33.7243 45.2598 33.6884C46.0535 33.128 47.5176 33.3989 47.9918 34.1958C48.142 33.4102 48.2696 33.3506 49.1597 33.6516C48.3115 33.6429 48.1817 34.0514 48.3229 34.8303C48.6367 36.4672 48.5817 38.1535 48.1619 39.7665C47.5732 41.974 46.025 43.4514 44.0584 43.5351C43.3556 43.564 43.0367 43.808 42.9333 44.4614C42.885 44.6593 42.8203 44.853 42.74 45.0403C42.4427 45.9191 42.4531 45.9469 43.4057 46.0126C46.9592 46.2575 49.9765 45.0826 52.2537 42.3532C54.6939 39.4282 55.4089 36.0738 54.2258 32.3875C54.1778 32.3007 54.2025 32.1441 54.0247 32.1901Z" fill="#265ABF"/>
<path d="M43.2761 56.9783C43.2761 57.8977 43.288 58.817 43.273 59.7361C43.2573 60.6742 42.79 61.2453 41.8779 61.3547C39.6421 61.6003 37.3862 61.598 35.1509 61.3481C34.7984 61.3289 34.4662 61.1772 34.2207 60.9236C33.9752 60.6699 33.8345 60.333 33.8268 59.9801C33.6279 57.9458 33.607 55.8981 33.7643 53.8602C33.8404 52.9837 34.3081 52.5119 35.1783 52.4248C37.3687 52.2051 39.5669 52.287 41.7608 52.3452C42.6451 52.3686 43.2095 53.0399 43.241 53.9911C43.2737 54.986 43.2484 55.9826 43.2484 56.9783H43.2761ZM35.1421 60.7008C37.2687 60.9474 39.416 60.9602 41.5454 60.7391C42.4048 60.6479 42.6431 60.3917 42.6454 59.5051C42.6503 57.8233 42.6352 56.1415 42.6195 54.4597C42.6397 54.0772 42.5493 53.6969 42.3591 53.3644C42.2473 52.9542 41.896 52.9175 41.5729 52.9114C39.5374 52.872 37.5015 52.8474 35.4672 52.9519C34.7516 52.9887 34.3652 53.3525 34.3148 54.1016C34.1983 56.0069 34.2229 57.9181 34.3883 59.8197C34.426 60.2724 34.5912 60.6644 35.1429 60.7008H35.1421Z" fill="#265ABF"/>
<path d="M43.2398 68.7939C43.2169 67.6361 42.6131 67.0629 41.4604 67.038C40.5159 67.0178 39.5708 67.034 38.6257 67.034V67.1228C37.5032 67.1228 36.3785 67.0809 35.2589 67.1356C34.297 67.1828 33.8383 67.6809 33.7595 68.6408C33.6139 70.6284 33.6332 72.6246 33.8173 74.609C33.8885 75.46 34.3809 76.0013 35.2169 76.0737C37.4284 76.3083 39.6585 76.3067 41.8696 76.069C42.762 75.9558 43.2623 75.4157 43.2678 74.5381C43.2802 72.6235 43.2777 70.7084 43.2398 68.7939ZM41.5426 75.5069C39.4381 75.733 37.3143 75.7082 35.2158 75.4331C34.6122 75.4389 34.427 75.0246 34.3876 74.5392C34.2209 72.6332 34.1967 70.7174 34.3153 68.8078C34.3665 68.0645 34.7382 67.7078 35.4731 67.6685C37.5121 67.5591 39.5513 67.5648 41.5909 67.6277C41.7574 67.6148 41.9241 67.6486 42.0724 67.7253C42.2207 67.802 42.3446 67.9186 42.4303 68.0619C42.6052 68.4042 42.6844 68.7875 42.6596 69.1711C42.6717 70.8538 42.6865 72.5364 42.6828 74.2191C42.6807 75.1451 42.4578 75.4186 41.5434 75.5066L41.5426 75.5069Z" fill="#265ABF"/>
<path d="M37.041 36.1058C36.6852 36.9594 36.8449 38.0163 37.5816 38.4186C38.479 38.909 38.292 39.6245 38.1547 40.3166C38.0175 41.0087 37.6977 41.6702 37.5275 42.3617C37.361 43.039 37.0836 43.0657 36.6303 42.6222C36.6858 42.2118 36.3589 41.9805 36.1823 41.6823C34.3078 38.5191 34.0334 35.2443 35.6014 31.8984C37.1674 28.5566 39.8826 26.6794 43.5018 26.2539C46.6251 25.8874 49.378 26.8383 51.6896 29.0469C52.6616 29.9761 53.2418 31.1623 54.0343 32.2058L54.0255 32.1893C53.9995 32.3477 53.9905 32.4886 54.2238 32.3873C55.408 36.0736 54.6922 39.4277 52.252 42.353C49.9751 45.0824 46.9574 46.2573 43.404 46.0124C42.4522 45.9467 42.4417 45.9189 42.7381 45.0401C42.8186 44.8528 42.8834 44.6592 42.9319 44.4612C43.035 43.8093 43.3539 43.5662 44.0567 43.5349C46.0233 43.4513 47.5717 41.9738 48.1605 39.7664C48.5801 38.1533 48.6349 36.467 48.3211 34.8301C48.1798 34.0512 48.3098 33.6433 49.1582 33.6511L49.7161 33.5336C50.2587 33.4974 50.7673 33.2566 51.1394 32.86L51.2924 32.7179L51.4438 32.5642L51.4568 32.5509L51.5808 32.3772C51.5978 32.3686 51.6117 32.3551 51.6209 32.3384C51.6301 32.3217 51.634 32.3027 51.6322 32.2837L51.7405 32.0811L51.8623 31.5916C51.9349 31.4696 51.9607 31.3254 51.9347 31.1859C51.9087 31.0464 51.8328 30.9211 51.7211 30.8335C51.3631 30.2748 50.7689 30.1741 50.1925 30.1116C49.7071 30.0592 49.5406 29.9828 49.7449 29.4362C50.0599 28.593 49.6871 27.9967 48.8121 27.7698C48.1084 27.5872 47.5129 27.83 46.9704 28.2662C46.4606 28.6938 45.8578 28.996 45.2102 29.1486C44.5625 29.3013 43.8881 29.3002 43.241 29.1453C42.7673 29.0457 42.2867 28.9817 41.8034 28.9537C39.2159 28.8032 37.2132 30.2754 36.9029 32.5373C36.7073 33.0985 36.7113 33.71 36.9142 34.2686C36.8294 34.888 37.276 35.4736 37.041 36.1058Z" fill="#FFCA7B"/>
<path d="M45.2586 33.6888C45.8682 33.7247 46.4778 33.7626 47.0877 33.7945C47.3132 33.8063 47.576 33.7505 47.6412 34.0613C47.728 34.4816 47.8967 34.9364 47.7262 35.3275C47.6186 35.5741 47.2747 35.2785 47.0316 35.2959C46.6796 35.3211 46.1169 34.893 46.0231 35.3668C45.9108 35.9336 46.6165 35.7266 46.9523 35.8589C47.2354 35.9709 47.5943 36.0555 47.856 35.4181C47.9521 37.6354 48.0062 39.5684 46.8333 41.2812C46.2798 42.1244 45.4178 42.717 44.4323 42.9319C43.4468 43.1468 42.4164 42.9668 41.5621 42.4306C41.3401 42.298 41.0805 41.9562 40.8622 42.3252C40.6596 42.6654 41.0712 42.7696 41.2799 42.9288C41.3198 42.9595 41.3734 42.9728 41.4124 43.0043C41.7627 43.2837 42.5278 43.2099 42.52 43.6458C42.5084 44.278 42.1593 44.9084 41.9292 45.5302C41.8276 45.8043 41.5934 45.6848 41.4033 45.6286C40.2022 45.2692 39.0714 44.7067 38.0601 43.9656C37.6048 43.6371 37.7368 43.2333 37.8983 42.8428C38.4332 41.5492 38.9604 40.2596 38.8246 38.81C38.8024 38.5718 38.8081 38.388 38.5473 38.2508C37.3605 37.6275 37.1868 37.1508 37.6453 35.935L37.6511 35.9284L37.9664 35.6172L38.1112 35.5139C39.1373 35.1375 40.0065 35.3434 40.7062 36.2031C41.0663 36.6451 41.2692 36.4132 41.3638 36.0126C41.4686 35.5694 41.5193 35.1133 41.5931 34.6626C41.7012 34.4755 41.7482 34.2594 41.7276 34.0443C41.8055 33.9349 41.8605 33.8108 41.8893 33.6797C41.9181 33.5485 41.9202 33.4129 41.8953 33.2809L42.1989 33.1255C43.0839 33.4715 44.025 33.6523 44.9752 33.6587L45.2586 33.6888ZM45.8861 38.0455C45.8761 37.8799 45.8574 37.7148 45.83 37.5511C45.7759 37.2782 45.7035 37.0084 45.6273 36.7406C45.5723 36.5473 45.5162 36.2983 45.2511 36.3568C44.9249 36.4288 45.0194 36.683 45.0857 36.9068C45.1213 37.0278 45.1347 37.1551 45.1636 37.2784C45.4429 38.4789 45.4433 38.4809 44.2214 38.5382C44.0579 38.546 43.9097 38.5753 43.8521 38.7408C43.8404 38.7709 43.835 38.803 43.8366 38.8352C43.8381 38.8674 43.8465 38.899 43.861 38.9277C43.8755 38.9565 43.8959 38.9819 43.9209 39.0023C43.9459 39.0226 43.9749 39.0375 44.006 39.0459C44.4915 39.1782 44.9807 39.3553 45.4873 39.1348C45.9365 38.9394 45.8737 38.531 45.8861 38.0455ZM44.4278 41.4812C44.6336 41.4893 44.8687 41.4939 44.9017 41.2322C44.9379 40.9451 44.6956 40.9309 44.491 40.9234C43.9806 40.9074 43.4969 40.6911 43.1448 40.3213C43.0155 40.1916 42.8502 40.0941 42.6852 40.2657C42.5202 40.4374 42.6378 40.5885 42.7556 40.7265C42.9624 40.9667 43.2192 41.1587 43.5081 41.289C43.797 41.4193 44.1109 41.4851 44.4278 41.4812ZM38.8793 35.9458C38.6376 35.9474 38.4055 36.0402 38.2292 36.2056C38.0529 36.371 37.9455 36.5968 37.9284 36.8379C37.927 36.9948 37.9414 37.1583 38.1088 37.2168C38.1449 37.229 38.1832 37.2333 38.2211 37.2294C38.259 37.2255 38.2956 37.2136 38.3285 37.1944C38.3615 37.1752 38.3898 37.1492 38.4118 37.1181C38.4338 37.087 38.449 37.0516 38.4562 37.0142C38.5395 36.7189 38.6619 36.5073 39.0136 36.5203C39.1919 36.527 39.4125 36.5064 39.3923 36.2682C39.368 35.9779 39.1179 35.9478 38.8793 35.9458ZM43.181 35.7585C43.4019 35.7156 43.7528 35.6525 44.1013 35.5784C44.2863 35.5393 44.4706 35.4473 44.4173 35.2293C44.3675 35.0267 44.1649 34.9943 43.9768 35.0267C43.6248 35.0846 43.2729 35.146 42.9249 35.2238C42.7512 35.2629 42.5566 35.3329 42.6145 35.5726C42.6698 35.7984 42.8658 35.7862 43.181 35.7582V35.7585ZM43.9137 37.1189C44.023 37.1107 44.1253 37.0625 44.2012 36.9835C44.2771 36.9045 44.3211 36.8003 44.325 36.6908C44.3307 36.6399 44.326 36.5885 44.3112 36.5395C44.2964 36.4904 44.2718 36.4449 44.239 36.4056C44.2061 36.3663 44.1657 36.3341 44.1201 36.3108C44.0745 36.2876 44.0247 36.2737 43.9737 36.2702C43.917 36.2598 43.8588 36.2615 43.8028 36.2752C43.7468 36.2889 43.6944 36.3142 43.6489 36.3496C43.6034 36.385 43.5659 36.4295 43.5389 36.4804C43.5119 36.5313 43.4958 36.5873 43.492 36.6448C43.4598 36.91 43.6205 37.0599 43.9137 37.1175V37.1189ZM46.8897 37.3974C46.9902 37.3822 47.0815 37.3301 47.1458 37.2513C47.21 37.1725 47.2425 37.0726 47.2371 36.971C47.2388 36.9204 47.2292 36.8699 47.2089 36.8234C47.1887 36.7769 47.1583 36.7356 47.12 36.7023C47.0818 36.669 47.0366 36.6447 46.9877 36.6311C46.9389 36.6175 46.8876 36.615 46.8376 36.6237C46.7869 36.6222 46.7364 36.6321 46.6899 36.6526C46.6435 36.6731 46.6022 36.7037 46.5691 36.7422C46.536 36.7807 46.5119 36.8261 46.4986 36.8751C46.4852 36.9241 46.4829 36.9755 46.4919 37.0254C46.4977 37.1265 46.5423 37.2215 46.6164 37.2905C46.6905 37.3596 46.7884 37.3973 46.8897 37.396V37.3974Z" fill="#FCFCFC"/>
<path d="M42.2006 33.1265L41.8968 33.282C41.2855 33.4145 41.4679 33.7211 41.7293 34.0453C41.75 34.2604 41.7028 34.4765 41.5946 34.6636C41.4751 34.6925 41.2551 34.7108 41.2502 34.753C41.0965 36.1028 40.3529 35.4344 39.7346 35.2084C39.5309 35.1075 39.312 35.0406 39.0867 35.0104C38.6922 35.0072 38.2048 34.9038 38.1127 35.5149L37.968 35.6183C37.8157 35.6243 37.6478 35.4483 37.5236 35.6168C37.4889 35.664 37.6056 35.822 37.6528 35.9294L37.647 35.9361C37.3865 35.7818 37.3645 36.4861 37.0391 36.106C37.2739 35.4738 36.8275 34.8882 36.9132 34.2662C37.021 33.6936 37.0171 33.1056 36.9019 32.5346C37.2119 30.2727 39.215 28.8005 41.8023 28.951C42.2856 28.9791 42.7662 29.0432 43.24 29.1429C43.887 29.2977 44.5614 29.2988 45.209 29.1462C45.8566 28.9935 46.4594 28.6914 46.9692 28.2638C47.5117 27.8276 48.1071 27.5847 48.811 27.7674C49.6852 27.9943 50.059 28.5906 49.744 29.4338C49.5397 29.9804 49.7061 30.0568 50.1915 30.1092C50.7678 30.1714 51.3617 30.2721 51.7198 30.8308C51.7236 31.0913 51.6429 31.368 51.8614 31.5889L51.7396 32.0781C51.7179 32.0822 51.6974 32.0911 51.6797 32.1041C51.6619 32.1172 51.6473 32.134 51.6368 32.1534C51.6264 32.1729 51.6205 32.1944 51.6195 32.2164C51.6185 32.2384 51.6224 32.2604 51.631 32.2807C51.6329 32.2997 51.6289 32.3188 51.6197 32.3355C51.6105 32.3522 51.5965 32.3657 51.5795 32.3742C51.5594 32.3767 51.5401 32.3833 51.5228 32.3937C51.5055 32.4041 51.4905 32.4179 51.4788 32.4344C51.4672 32.4509 51.4592 32.4697 51.4552 32.4894C51.4513 32.5092 51.4515 32.5296 51.4559 32.5493L51.4428 32.5627C51.4219 32.5591 51.4005 32.5607 51.3803 32.5673C51.3601 32.5738 51.3419 32.5851 51.327 32.6002C51.3122 32.6153 51.3011 32.6338 51.2949 32.6541C51.2887 32.6743 51.2875 32.6958 51.2914 32.7166L51.1383 32.8585C50.5594 32.8628 50.1342 33.1905 49.715 33.5321L49.1572 33.6496C48.2665 33.3486 48.1389 33.4082 47.9887 34.1938C47.5137 33.3975 46.0507 33.1259 45.257 33.6863L44.9748 33.6574C44.151 32.9615 43.1923 32.9578 42.2006 33.1265Z" fill="#050402"/>
<path d="M54.2238 32.3864C53.9907 32.4878 53.9997 32.3468 54.0255 32.1885C54.2032 32.1424 54.1789 32.2993 54.2238 32.3864Z" fill="#FCFCFC"/>
<path d="M42.3594 53.3644C42.5497 53.6969 42.6402 54.0771 42.6199 54.4597C42.6358 56.1415 42.6506 57.8233 42.6459 59.5051C42.6436 60.3929 42.4051 60.6479 41.546 60.739C39.4166 60.9602 37.2694 60.9474 35.1427 60.7008C35.0559 58.8193 35.051 56.9392 35.1101 55.058C35.1428 54.0099 35.6021 53.5603 36.6442 53.4628C38.5462 53.3301 40.454 53.2973 42.3594 53.3644ZM37.8047 58.7959C38.1619 58.7669 38.2924 58.5012 38.4644 58.2858C39.1631 57.4108 39.7702 56.4559 40.6994 55.7826C40.8852 55.6477 41.2617 55.487 41.0782 55.2227C40.8588 54.9063 40.5888 55.2065 40.3688 55.3674C39.5394 56.0105 38.828 56.7928 38.2664 57.6794C37.9925 58.0847 37.7653 58.1909 37.3806 57.7911C37.1307 57.5744 36.8505 57.3953 36.5489 57.2594C36.4917 57.2286 36.4262 57.2172 36.3619 57.227C36.2977 57.2367 36.2384 57.2671 36.1929 57.3135C36.1722 57.3288 36.1551 57.3484 36.1429 57.3711C36.1306 57.3937 36.1236 57.4188 36.1222 57.4445C36.1209 57.4703 36.1254 57.4959 36.1352 57.5197C36.145 57.5435 36.16 57.5648 36.179 57.5821C36.7201 57.9972 37.2715 58.4007 37.8047 58.7959Z" fill="#FFCA7B"/>
<path d="M42.361 53.365C40.4555 53.2979 38.5478 53.3308 36.6457 53.4634C35.6037 53.561 35.1443 54.0102 35.1116 55.0587C35.0537 56.9402 35.057 58.8217 35.1444 60.7015C34.5924 60.6653 34.4271 60.2731 34.3918 59.8204C34.2263 57.9188 34.2018 56.0075 34.3183 54.1023C34.3687 53.3532 34.7551 52.989 35.4706 52.9525C37.505 52.8483 39.541 52.8729 41.5762 52.9123C41.8978 52.9181 42.2484 52.9549 42.361 53.365Z" fill="#FCFCFC"/>
<path d="M42.4302 68.063C42.605 68.4054 42.6842 68.7886 42.6594 69.1722C42.6716 70.8549 42.6859 72.5376 42.6825 74.2202C42.6804 75.1465 42.4573 75.4186 41.542 75.5069C39.4378 75.7329 37.3141 75.708 35.2158 75.4328C35.0503 73.4457 35.0304 71.4491 35.1561 69.4591C35.1914 68.6743 35.7062 68.285 36.5323 68.2049C38.4958 68.0138 40.465 68.1345 42.4302 68.063ZM41.1417 70.1003C41.1417 69.9338 41.0873 69.8548 40.9802 69.8192C40.893 69.7989 40.8021 69.8013 40.7161 69.8264C40.6302 69.8514 40.5522 69.8982 40.4896 69.9622C39.6851 70.5506 38.9943 71.2803 38.4509 72.1158C38.0807 72.6774 37.7273 72.9463 37.1831 72.3216C37.0731 72.2145 36.9451 72.1276 36.805 72.0649C36.5919 71.9511 36.3418 71.7111 36.1502 72.0417C35.9828 72.3289 36.2877 72.4221 36.4622 72.5517C36.7622 72.7429 37.0463 72.9579 37.3118 73.1946C37.7411 73.639 38.0746 73.5999 38.4211 73.1078C39.1274 72.1074 39.8515 71.1215 40.8667 70.397C40.9694 70.3088 41.0615 70.2093 41.1417 70.1003Z" fill="#7B8DFF"/>
<path d="M42.4309 68.0623C40.4654 68.1336 38.4962 68.0131 36.533 68.2042C35.7075 68.2844 35.1918 68.674 35.1568 69.4584C35.0312 71.4485 35.0511 73.445 35.2165 75.4321C34.6126 75.4379 34.4274 75.0237 34.3881 74.538C34.2211 72.632 34.197 70.7161 34.3157 68.8065C34.3669 68.0632 34.7383 67.7066 35.4736 67.6672C37.5123 67.5578 39.5515 67.5636 41.5913 67.6264C41.758 67.6137 41.9248 67.6478 42.0732 67.7248C42.2215 67.8018 42.3454 67.9187 42.4309 68.0623Z" fill="#FCFCFC"/>
<path d="M97.4403 21.7781C97.5204 21.0115 97.5204 20.2386 97.4403 19.472C97.4465 14.5136 97.452 9.5552 97.4568 4.59667C97.4491 4.49518 97.433 4.39449 97.4088 4.29562C97.3455 3.84111 97.1539 3.41408 96.8566 3.06458C96.5592 2.71508 96.1683 2.45759 95.7298 2.32233L95.5822 2.28615L95.311 2.23173C92.0846 1.95269 88.8476 1.94459 85.6139 1.83662L85.306 1.83489C81.0173 1.74081 76.7291 1.61983 72.4398 1.55846C62.5048 1.41633 52.5713 1.52749 42.6398 1.80538C39.6797 1.88817 36.7179 1.92781 33.7625 2.14057L33.4541 2.1452H33.3043C33.1019 2.08594 32.8864 2.08865 32.6856 2.15301C32.3742 2.1386 32.0634 2.19133 31.7741 2.3076C30.7265 2.78898 29.9505 3.49206 29.9464 4.73907C29.9464 5.263 29.7438 5.43177 29.2413 5.47142C28.1535 5.55826 27.0668 5.68129 25.9865 5.83615C25.0504 5.97046 24.2164 6.28917 23.9981 7.37524C24.0578 7.4725 23.978 7.49364 23.9163 7.52432C23.674 7.83955 23.7426 8.20747 23.7614 8.55656C23.9986 12.6845 24.2408 16.8121 24.488 20.9393C24.9643 28.8941 25.5239 36.8432 26.1669 44.7865C26.2128 45.1158 26.1337 45.4503 25.9451 45.7241C25.3215 46.6076 24.9944 47.6662 25.0107 48.7475C24.9686 50.135 24.5458 51.4842 23.7884 52.6475C23.4824 53.1448 23.1863 53.6476 22.8858 54.1481L23.4432 54.1617C24.7966 52.5785 25.5606 50.576 25.6056 48.4937C25.6303 47.6213 25.9116 46.7756 26.4144 46.0622C27.1528 44.9512 28.1077 43.9685 28.4577 42.6233C28.4838 42.5212 28.6172 42.4274 28.7226 42.3686C30.4336 41.4134 30.9622 39.9414 30.2304 38.1566C30.1676 38.0032 29.987 37.8498 30.1627 37.6772C30.3233 37.5195 30.5001 37.6605 30.6613 37.7062C31.2869 37.865 31.8433 38.2244 32.2452 38.7294C32.6471 39.2344 32.8724 39.8572 32.8867 40.5024C32.9782 42.1641 32.8357 43.8303 32.4633 45.4523C31.5477 49.5641 30.6057 53.6699 29.7816 57.8017C29.6865 58.2227 29.7387 58.6635 29.9293 59.0507C31.0369 61.3854 31.7964 63.8697 32.1837 66.4245C32.7239 70.0556 32.4925 73.5796 30.4324 76.7556C29.9802 77.4526 29.7635 78.0581 29.9114 78.8877C30.1273 80.098 30.9552 81.138 32.1738 81.2613C33.7715 81.4331 35.3787 81.4998 36.985 81.4608L38.8113 81.5311C39.0785 81.7337 39.583 81.4263 39.6849 81.8024C39.7839 82.1671 39.3708 82.4085 39.1314 82.6603C36.7729 85.1422 33.8418 85.6505 30.6212 85.0675C30.288 85.0236 29.9677 84.9103 29.6811 84.7347C29.3946 84.5592 29.1481 84.3255 28.9576 84.0486C28.28 82.9402 27.242 82.4276 26.0798 82.0328C25.2404 81.7477 24.36 81.4996 23.8393 80.6723C23.8227 80.6372 23.7992 80.6059 23.77 80.5804C23.7409 80.5548 23.7067 80.5355 23.6698 80.5237C23.6329 80.5119 23.5939 80.5078 23.5553 80.5117C23.5168 80.5156 23.4795 80.5274 23.4456 80.5464C23.2393 80.6622 23.2821 80.8382 23.3782 81.0072C23.5996 81.3838 23.9184 81.6938 24.301 81.9045C24.9363 82.234 25.599 82.5074 26.2818 82.7217C26.9568 82.9709 27.6712 83.2138 28.0686 83.8454C28.3956 84.3824 28.844 84.8353 29.3777 85.1676C29.9114 85.4999 30.5157 85.7023 31.1419 85.7587C31.616 85.8166 31.5987 86.0155 31.4314 86.3684C31.1499 86.9756 30.7153 87.4991 30.1702 87.8875C28.1338 89.3244 26.6028 91.2389 25.1046 93.183C24.1403 94.4085 23.306 95.7309 22.6151 97.1289C22.5132 97.3399 22.3928 97.5848 22.7002 97.7093C22.9607 97.8144 23.0432 97.5625 23.1413 97.3909C23.2166 97.2586 23.2667 97.1115 23.344 96.9798C25.2021 93.7795 27.3458 90.8143 30.3114 88.5275C31.0041 87.9929 31.7072 87.4101 31.9614 86.5591C32.164 85.874 32.5467 85.8222 33.1311 85.8065C35.9253 85.7376 38.3264 84.7644 40.027 82.4753C40.2044 82.1942 40.4585 81.9695 40.7592 81.8278C41.06 81.686 41.3949 81.633 41.7247 81.675C50.4611 82.0224 59.2018 82.1144 67.9442 82.0458C70.9086 82.0226 73.8729 81.9673 76.8376 81.932C77.0301 81.9297 77.2849 81.8383 77.3954 82.0504C77.5127 82.2762 77.2371 82.3876 77.1433 82.5532C77.0871 82.6386 77.0223 82.718 76.9499 82.7903C76.8023 82.9576 76.5351 83.1437 76.7583 83.3631C77.0373 83.637 77.198 83.2867 77.3662 83.1316C77.8276 82.7064 78.0821 82.0669 78.7207 81.8241L79.1953 81.8058C79.5332 81.8973 79.89 81.8922 80.2252 81.7911L81.1706 81.7775C82.2464 81.8443 83.3261 81.8095 84.3953 81.6736L84.3904 81.2104C81.1484 81.2813 77.9064 81.3673 74.6621 81.4203C63.1873 81.6082 51.7148 81.5021 40.2446 81.1018C37.7937 81.0188 35.3438 80.8992 32.8941 80.7768C31.265 80.6957 30.4724 79.8505 30.4591 78.2506C30.4499 77.9451 30.54 77.6449 30.716 77.395C32.6555 74.5655 33.1846 71.3877 32.9392 68.0453C32.6729 64.858 31.8418 61.7435 30.4848 58.8472C30.3346 58.5278 30.2961 58.1671 30.3754 57.8231C31.1306 53.9411 31.9963 50.084 32.9058 46.2356C33.3279 44.4695 33.5201 42.6564 33.4775 40.8411C33.4275 38.8583 32.5753 37.6793 30.6865 37.118C30.2112 36.9767 30.0614 36.7883 30.0611 36.289C30.0582 25.9131 30.3001 15.5407 30.4663 5.16719C30.4848 3.98646 30.9543 3.16065 32.076 2.73861L32.6859 2.60893L32.9925 2.60749H33.1461L33.4541 2.60197L33.6029 2.59646L34.2238 2.58837L36.9818 2.45668C37.544 2.51965 38.1119 2.51256 38.6724 2.43555L42.0437 2.30035C42.7085 2.3607 43.3775 2.35478 44.041 2.28269L49.2514 2.13795L50.7902 2.13361C53.2888 2.10061 55.7877 2.05227 58.2873 2.03721C66.4238 1.98772 74.5598 2.05316 82.6937 2.29081C82.8463 2.29516 82.9991 2.28328 83.1519 2.27894L85.609 2.30788L88.3678 2.4335C89.133 2.50746 89.903 2.51802 90.67 2.46505L95.26 2.71515C96.5467 3.23619 96.9326 3.8151 96.9326 5.2274C96.9326 29.5617 96.9335 53.8961 96.9354 78.2304C96.9354 78.4854 96.9484 78.7401 96.9556 78.9951C96.8647 79.3357 96.7041 79.6535 96.4837 79.9286C96.2634 80.2037 95.9882 80.4299 95.6757 80.593C94.0671 80.9438 92.4244 80.8321 90.7984 80.9366C88.7632 81.0677 86.7222 81.1056 84.6838 81.1838L84.3909 81.2078L84.3959 81.6709L84.7177 81.6573C86.1468 81.7217 87.5788 81.6711 88.9998 81.5059L90.5269 81.4651C91.2969 81.5283 92.0718 81.4873 92.8308 81.3433L93.2986 81.3279C93.648 81.3889 94.0059 81.3817 94.3526 81.3068L94.6637 81.2906C94.7087 81.3214 94.7634 81.3348 94.8176 81.3285C94.8718 81.3222 94.9219 81.2965 94.9586 81.2561L95.315 81.2011C95.3894 81.2249 95.4689 81.2277 95.5448 81.2094C95.6207 81.191 95.6902 81.1521 95.7455 81.0969C97.0105 80.6005 97.4707 79.6207 97.4704 78.3215C97.4654 59.653 97.4638 40.9844 97.4657 22.3157C97.4678 22.1342 97.4499 21.9561 97.4403 21.7781ZM24.0193 7.95908C24.0031 7.93013 23.9837 7.90118 23.9614 7.86876C23.9837 7.90032 24.0032 7.93013 24.0188 7.95908H24.0193ZM23.9614 8.57363C23.9983 8.50951 24.03 8.44252 24.0561 8.37331C24.0299 8.44256 23.998 8.50956 23.9608 8.57363H23.9614ZM29.4728 36.8358C27.9537 36.8471 27.9627 36.8459 28.1812 38.3598C28.4806 40.1376 28.2068 41.9645 27.3996 43.5765C27.2674 43.9191 27.021 44.2054 26.7018 44.3871C26.4515 41.0695 26.1854 37.7722 25.9575 34.4726C25.6057 29.3794 25.2687 24.2848 24.9463 19.1889C24.7178 15.5964 24.5068 12.0028 24.3135 8.40805C24.2608 7.93799 24.3969 7.46626 24.692 7.09659C24.9871 6.72692 25.417 6.4896 25.887 6.43681C27.0208 6.25908 28.1673 6.16356 29.3046 6.00262C29.7918 5.93401 29.8958 6.09524 29.8868 6.57112C29.7635 13.0831 29.655 19.5954 29.5614 26.1079C29.5157 29.6565 29.5351 33.2056 29.5253 36.7544C29.5159 36.7552 29.507 36.7581 29.499 36.7629C29.491 36.7677 29.4842 36.7744 29.4792 36.7822C29.4742 36.7901 29.471 36.799 29.47 36.8083C29.469 36.8176 29.4701 36.827 29.4734 36.8358H29.4728ZM29.8838 37.1053C29.8999 37.0583 29.8998 37.0074 29.8834 36.9605C29.867 36.9137 29.8353 36.8737 29.7935 36.8471C29.8355 36.8737 29.8673 36.9137 29.8838 36.9605C29.9003 37.0074 29.9005 37.0585 29.8844 37.1056L29.8838 37.1053ZM80.9339 81.6235C80.8355 81.5803 80.7272 81.5648 80.6207 81.5787C80.5142 81.5926 80.4134 81.6353 80.3294 81.7022C80.4133 81.635 80.5142 81.592 80.6208 81.5779C80.7275 81.5638 80.8359 81.5792 80.9345 81.6223L80.9339 81.6235ZM39.6507 81.4298C39.6559 81.4315 39.6613 81.4325 39.6667 81.433C39.6615 81.4325 39.6563 81.4314 39.6513 81.4298H39.6507ZM39.6822 81.4298C39.699 81.4256 39.7149 81.4184 39.7292 81.4087C39.7151 81.4181 39.6995 81.4251 39.6831 81.4293L39.6822 81.4298ZM38.5271 81.3563C38.3683 81.284 38.1963 81.2453 38.0219 81.2425C38.1966 81.2451 38.3689 81.2837 38.5279 81.356L38.5271 81.3563ZM38.7669 81.4978C38.7339 81.4735 38.7007 81.4509 38.6674 81.4307C38.7016 81.4506 38.7349 81.4732 38.7679 81.4976L38.7669 81.4978ZM30.0031 37.7294C30.0075 37.7253 30.0127 37.7207 30.0182 37.7163C30.0133 37.7207 30.008 37.7253 30.0037 37.7294H30.0031ZM30.0075 37.5867C30.026 37.6157 30.0407 37.6471 30.0512 37.6799C30.0408 37.6471 30.0264 37.6157 30.0081 37.5867H30.0075Z" fill="#265ABF"/>
<path d="M22.8868 54.147C22.3724 54.8104 21.9009 55.5135 21.3356 56.1304C19.7117 57.9013 19.1726 60.0026 19.3061 62.3403C19.4239 64.7303 19.2793 67.126 18.8748 69.4845C18.8613 69.5777 18.8478 69.6709 18.8343 69.7639C18.7218 70.1989 18.6091 70.6337 18.4962 71.0685C18.4504 71.1277 18.4122 71.1924 18.3824 71.261C17.1056 75.5161 14.5442 78.8655 11.117 81.6192C9.48728 82.9287 7.89056 84.2799 6.29996 85.6369C6.09183 85.8147 5.5762 86.015 5.91198 86.3895C6.21562 86.7273 6.43593 86.2486 6.64087 86.0842C7.61492 85.3026 8.55749 84.4797 9.52604 83.69C11.9601 81.706 14.415 79.7443 16.1998 77.1044C17.4043 75.3228 18.4242 73.4528 18.8972 71.3287C19.0256 71.0947 19.1044 70.8367 19.1287 70.5709C19.1777 70.4993 19.2108 70.418 19.2258 70.3325C19.2408 70.2471 19.2372 70.1593 19.2155 70.0753L19.3105 69.7859C19.3476 69.7414 19.3707 69.6869 19.3769 69.6293C19.3831 69.5717 19.372 69.5136 19.3452 69.4623C19.3815 69.3183 19.4179 69.1743 19.4543 69.0304C19.4946 68.9566 19.5198 68.8756 19.5285 68.792C19.5372 68.7084 19.5291 68.624 19.5049 68.5435C19.6149 68.3639 19.6553 68.1502 19.6184 67.9429C19.66 67.8752 19.6843 67.7984 19.6894 67.7192C19.6944 67.64 19.68 67.5607 19.6474 67.4884C19.686 67.2354 19.7241 66.9824 19.7618 66.7294C19.8597 66.1693 19.8737 65.5977 19.8034 65.0334C19.888 64.3204 19.8874 63.5999 19.8015 62.8871C19.8675 62.1667 19.8728 61.442 19.8173 60.7207L19.9164 60.1328C19.9345 59.9707 19.9524 59.8086 19.9699 59.6465C20.3172 58.5032 20.9022 57.4463 21.6869 56.5452C22.3399 55.8028 22.927 55.005 23.4417 54.1609L22.8868 54.147Z" fill="#265ABF"/>
<path d="M17.833 62.1403C18.2869 62.1304 18.0935 61.6771 18.0882 61.4033C18.037 59.2419 18.7383 57.1298 20.072 55.4282C20.2222 55.2316 20.4772 54.9911 20.1944 54.7754C19.9115 54.5598 19.7494 54.8698 19.5986 55.0666C18.324 56.7034 17.5944 58.6985 17.5124 60.7714C17.5018 60.9836 17.5032 61.1962 17.5165 61.4082C17.5565 61.6861 17.4144 62.1493 17.833 62.1403Z" fill="#265ABF"/>
<path d="M17.8422 3.46296C18.0523 3.55299 18.2704 3.62391 18.484 3.70699C19.9085 4.26396 21.2665 4.97803 22.5327 5.83599C22.6809 5.93615 22.8248 6.07076 23.0147 5.96221C23.092 5.91792 23.1363 5.81746 23.1803 5.75956C23.1447 5.65652 23.0884 5.56179 23.0151 5.48109C22.9418 5.40039 22.8528 5.3354 22.7536 5.29007C21.8064 4.64487 20.8018 4.08812 19.7527 3.62681C19.1888 3.39177 18.6198 3.16943 18.0539 2.94047C18.0156 2.91651 17.972 2.902 17.927 2.89806C17.882 2.89413 17.8367 2.90087 17.7948 2.91782C17.7529 2.93476 17.7156 2.96139 17.686 2.99552C17.6564 3.02964 17.6351 3.07031 17.6242 3.11417C17.56 3.3029 17.6963 3.40073 17.8422 3.46296Z" fill="#265ABF"/>
<path d="M20.5233 0.878925C21.7642 1.89205 22.54 3.23084 23.1927 4.6579C23.2842 4.8585 23.3439 5.16417 23.649 5.04694C23.9477 4.93115 23.8118 4.6579 23.7267 4.4573C23.1387 2.98362 22.2358 1.65622 21.0811 0.568048C20.9369 0.454457 20.7825 0.354376 20.6199 0.269043C20.4486 0.279464 20.3635 0.321727 20.321 0.430277C20.2347 0.649401 20.3878 0.76835 20.5233 0.878925Z" fill="#265ABF"/>
<path d="M22.5245 6.90475C22.5899 6.5791 22.3015 6.56201 22.0734 6.53422C21.1874 6.42596 20.3007 6.32176 19.4144 6.21582L19.4097 6.24854C19.0525 6.24854 18.6951 6.2523 18.3388 6.24709C18.1327 6.24391 17.9604 6.32061 17.9624 6.53076C17.9642 6.74902 18.1547 6.80545 18.3507 6.80256C19.5759 6.79431 20.7996 6.88773 22.0094 7.08188C22.201 7.1117 22.4712 7.16874 22.5245 6.90475Z" fill="#265ABF"/>
<path d="M1.46334 56.0096C1.25696 55.6622 1.73619 54.9296 1.13671 54.9501C0.63767 54.9672 0.934089 55.679 0.949431 56.0657C0.963904 56.4345 0.801619 57.1512 1.2225 57.113C1.80461 57.0601 1.33916 56.3989 1.46334 56.0096Z" fill="#265ABF"/>
<path d="M72.9018 86.781C72.4247 87.1515 71.9654 87.5455 71.5077 87.9388C71.4842 87.9604 71.4653 87.9865 71.4519 88.0155C71.4385 88.0444 71.431 88.0758 71.4299 88.1077C71.4287 88.1396 71.4338 88.1714 71.445 88.2013C71.4562 88.2312 71.4732 88.2586 71.495 88.2818C71.5139 88.3078 71.5381 88.3294 71.566 88.3453C71.5938 88.3611 71.6246 88.3709 71.6566 88.3739C71.6885 88.3769 71.7208 88.3731 71.7511 88.3627C71.7815 88.3523 71.8092 88.3356 71.8325 88.3137C72.3035 87.9351 72.7652 87.5448 73.2243 87.1518C73.2744 87.1089 73.286 87.0209 73.3135 86.9593C73.2324 86.7419 73.0783 86.6449 72.9018 86.781Z" fill="#265ABF"/>
<path d="M15.6197 21.7949C15.7896 21.8239 17.1901 20.6081 17.2153 20.4055C17.2081 20.1956 17.0497 20.07 16.8709 20.182C16.3312 20.5163 15.8463 20.9319 15.4336 21.4143C15.2888 21.5848 15.3942 21.757 15.6197 21.7949Z" fill="#265ABF"/>
<path d="M43.2629 97.2202C42.6839 97.1785 42.1029 97.1357 41.5225 97.1067C41.4849 97.1002 41.4464 97.1023 41.4098 97.1129C41.3731 97.1234 41.3392 97.1421 41.3108 97.1676C41.2824 97.1931 41.2602 97.2247 41.2458 97.26C41.2314 97.2954 41.2251 97.3335 41.2276 97.3716C41.2299 97.5241 41.3535 97.587 41.482 97.6032C41.8076 97.6449 42.1351 97.6726 42.4622 97.7059C42.4622 97.7138 42.4622 97.7219 42.4622 97.7297C42.7146 97.7297 42.9673 97.7354 43.2198 97.7276C43.258 97.7308 43.2963 97.726 43.3325 97.7136C43.3688 97.7012 43.4022 97.6815 43.4305 97.6556C43.4588 97.6298 43.4815 97.5983 43.4971 97.5633C43.5126 97.5283 43.5207 97.4904 43.521 97.4521C43.515 97.388 43.4853 97.3285 43.4374 97.2855C43.3895 97.2425 43.3272 97.2192 43.2629 97.2202Z" fill="#265ABF"/>
<path d="M19.6219 18.0548C19.2013 18.3443 18.7893 18.6445 18.3771 18.9461C18.2324 19.0529 18.0631 19.1884 18.1951 19.3846C18.3572 19.6255 18.5555 19.4819 18.7228 19.3638C19.1179 19.0848 19.511 18.802 19.8965 18.5096C19.9809 18.4306 20.0557 18.3419 20.1194 18.2453C20.0042 17.9498 19.826 17.9147 19.6219 18.0548Z" fill="#265ABF"/>
<path d="M53.7821 96.2664C53.3103 96.3643 52.7675 96.4748 52.2257 96.5898C52.0636 96.6242 51.9303 96.7177 51.965 96.8957C51.9734 96.9331 51.9896 96.9682 52.0125 96.9988C52.0354 97.0295 52.0647 97.0549 52.0982 97.0735C52.1316 97.092 52.1686 97.1033 52.2067 97.1065C52.2448 97.1098 52.2832 97.1049 52.3194 97.0923C52.8633 96.9883 53.4075 96.8836 53.9479 96.7646C54.0946 96.7325 54.2472 96.6462 54.2116 96.4575C54.176 96.2687 54.0119 96.2603 53.7821 96.2664Z" fill="#265ABF"/>
<path d="M36.076 96.3718C35.5598 96.2442 35.0405 96.1301 34.5201 96.0219C34.3617 95.9889 34.1973 96.0276 34.1588 96.2094C34.1212 96.3866 34.2407 96.4847 34.4083 96.5241C34.9256 96.6462 35.443 96.7688 35.9602 96.8917C36.1533 96.8955 36.3428 96.8952 36.3738 96.6578C36.3989 96.4621 36.2166 96.4066 36.076 96.3718Z" fill="#265ABF"/>
<path d="M21.5497 17.399C22.002 17.1257 22.4532 16.8501 22.903 16.5723C22.9625 16.5458 23.0134 16.5034 23.0503 16.4498C23.0871 16.3961 23.1083 16.3333 23.1116 16.2683C23.0477 16.0729 22.8903 15.982 22.7094 16.0833C22.2034 16.3658 21.709 16.6701 21.2206 16.9824C21.1876 17.0022 21.1592 17.0289 21.1375 17.0607C21.1158 17.0924 21.1014 17.1286 21.095 17.1665C21.0886 17.2045 21.0905 17.2433 21.1006 17.2805C21.1107 17.3176 21.1288 17.3521 21.1535 17.3816C21.2702 17.548 21.4165 17.4797 21.5497 17.399Z" fill="#265ABF"/>
<path d="M1.1324 53.5326C1.70178 53.5237 1.27862 52.8263 1.45635 52.4665C1.45635 52.1858 1.46118 51.9076 1.45423 51.63C1.45047 51.4777 1.43135 51.3049 1.2377 51.2896C1.05244 51.2748 0.974054 51.4279 0.957844 51.5825C0.90806 51.8818 0.892028 52.1857 0.910071 52.4885C0.955517 52.8585 0.68286 53.5399 1.1324 53.5326Z" fill="#265ABF"/>
<path d="M6.20209 74.2959C6.35811 74.205 6.34199 74.0392 6.27078 73.8936C6.03776 73.4183 5.79654 72.9467 5.56295 72.4717C5.54118 72.4104 5.50299 72.3564 5.45242 72.3155C5.40184 72.2746 5.34092 72.2485 5.27645 72.2401C5.23225 72.2363 5.1878 72.245 5.14825 72.2651C5.10871 72.2852 5.07557 72.3159 5.05257 72.3538C5.02957 72.3918 5.01761 72.4354 5.01808 72.4797C5.01855 72.5241 5.03145 72.5674 5.05525 72.6049C5.29059 73.1343 5.55349 73.6519 5.81806 74.168C5.83278 74.2034 5.85484 74.2353 5.88294 74.2615C5.91104 74.2876 5.94447 74.3074 5.98089 74.3196C6.01731 74.3317 6.05593 74.3359 6.0941 74.3318C6.13227 74.3277 6.16905 74.3155 6.20209 74.2959Z" fill="#265ABF"/>
<path d="M2.54301 63.8492C2.42723 63.3282 2.3137 62.8043 2.1956 62.2821C2.15942 62.12 2.07085 61.9811 1.88762 62.0262C1.8503 62.0368 1.81552 62.0549 1.78543 62.0795C1.75535 62.104 1.7306 62.1344 1.71264 62.1687C1.69468 62.2031 1.68389 62.2409 1.68098 62.2796C1.67807 62.3183 1.68307 62.3571 1.69568 62.3938C1.80018 62.9186 1.90645 63.4437 2.03179 63.9639C2.07289 64.1341 2.16348 64.3292 2.40026 64.2415C2.57336 64.1775 2.57457 64.0096 2.54301 63.8492Z" fill="#265ABF"/>
<path d="M75.5025 84.3535C75.0492 84.7521 74.6277 85.1871 74.1999 85.6141C74.1798 85.6297 74.1631 85.6492 74.1508 85.6714C74.1385 85.6937 74.1309 85.7182 74.1284 85.7435C74.1258 85.7688 74.1285 85.7943 74.1361 85.8186C74.1438 85.8428 74.1563 85.8652 74.1729 85.8844C74.2326 85.9351 74.2994 85.9768 74.3712 86.008C74.6358 85.9863 75.9361 84.7306 75.9199 84.5439C75.8961 84.2582 75.6915 84.1873 75.5025 84.3535Z" fill="#265ABF"/>
<path d="M70.1809 88.9687C69.6508 89.316 69.1296 89.676 68.6177 90.0486C68.5895 90.087 68.5712 90.1316 68.5642 90.1787C68.5572 90.2258 68.5618 90.2738 68.5775 90.3187C68.6065 90.3925 68.7207 90.4322 68.8229 90.5054C69.3983 90.168 69.9401 89.7761 70.4405 89.3351C70.4597 89.318 70.475 89.2971 70.4856 89.2736C70.4962 89.2502 70.5017 89.2248 70.5019 89.1991C70.502 89.1734 70.4968 89.1479 70.4865 89.1244C70.4761 89.1009 70.4609 89.0797 70.4419 89.0624C70.3736 89.004 70.2292 88.9368 70.1809 88.9687Z" fill="#265ABF"/>
<path d="M39.6161 96.9159C39.1347 96.8612 38.6536 96.8024 38.1161 96.7385C37.9821 96.757 37.7068 96.6516 37.6672 96.933C37.6293 97.203 37.8988 97.2294 38.095 97.2577C38.5752 97.3272 39.0563 97.3886 39.5388 97.4387C39.72 97.4575 39.9227 97.4387 39.9238 97.1868C39.9244 97.0027 39.786 96.935 39.6161 96.9159Z" fill="#265ABF"/>
<path d="M57.387 95.3641C56.7947 95.5164 56.2072 95.6869 55.623 95.8672C55.5914 95.8737 55.5619 95.8877 55.5368 95.908C55.5117 95.9283 55.4919 95.9544 55.479 95.9839C55.4661 96.0135 55.4607 96.0458 55.4629 96.078C55.4651 96.1102 55.475 96.1413 55.4919 96.1688C55.537 96.2423 55.663 96.3347 55.7261 96.3182C56.3409 96.1579 56.9508 95.9795 57.559 95.7952C57.6169 95.7775 57.6524 95.6837 57.701 95.6214C57.6703 95.4376 57.558 95.3204 57.387 95.3641Z" fill="#265ABF"/>
<path d="M8.55965 29.9157C8.61755 29.8894 8.71311 29.8781 8.75103 29.8257C9.10881 29.3299 9.46199 28.8302 9.805 28.3237C9.82356 28.2971 9.83598 28.2667 9.84147 28.2347C9.84696 28.2028 9.84543 28.17 9.8368 28.1387C9.82818 28.1075 9.81268 28.0785 9.79157 28.0539C9.77047 28.0293 9.74426 28.0096 9.71469 27.9963C9.68118 27.977 9.6441 27.9647 9.60571 27.9601C9.56732 27.9554 9.52835 27.9586 9.49123 27.9695C9.4541 27.9803 9.41951 27.9985 9.3896 28.023C9.3597 28.0475 9.33514 28.0778 9.31724 28.1121C9.00848 28.5505 8.70371 28.9917 8.40305 29.4358C8.26324 29.6404 8.27887 29.8156 8.55965 29.9157Z" fill="#265ABF"/>
<path d="M50.0103 96.8955C49.6204 96.9447 49.1938 97.002 48.7657 97.0509C48.5755 97.0726 48.3749 97.1181 48.4116 97.345C48.4446 97.5508 48.6493 97.5766 48.8395 97.5569C49.2676 97.51 49.6971 97.4721 50.1241 97.4148C50.338 97.3858 50.6741 97.4148 50.6527 97.1181C50.6252 96.7392 50.2766 96.9154 50.0103 96.8955Z" fill="#265ABF"/>
<path d="M3.05964 65.8175C3.01448 65.6768 2.95078 65.5254 2.72876 65.5049C2.69409 65.5149 2.66177 65.5317 2.63364 65.5542C2.60551 65.5768 2.58218 65.6048 2.56495 65.6365C2.54771 65.6682 2.53682 65.703 2.53315 65.7389C2.52947 65.7748 2.533 65.8111 2.54346 65.8456C2.69746 66.4106 2.86654 66.9722 3.04282 67.5305C3.04937 67.5688 3.06539 67.6047 3.08946 67.6352C3.11353 67.6656 3.14493 67.6894 3.18063 67.7046C3.21633 67.7197 3.25524 67.7257 3.29384 67.7219C3.33243 67.7181 3.36935 67.7046 3.4014 67.6828C3.56668 67.5919 3.55047 67.4365 3.50387 67.281C3.35624 66.793 3.21566 66.3026 3.05964 65.8175Z" fill="#265ABF"/>
<path d="M3.94638 39.3084C4.16464 38.77 4.36865 38.2259 4.58807 37.6571C4.5992 37.5994 4.59059 37.5396 4.56347 37.4875C4.53636 37.4354 4.49244 37.3939 4.43881 37.3699C4.41299 37.3508 4.38307 37.338 4.35146 37.3323C4.31985 37.3267 4.2873 37.3285 4.25648 37.3374C4.22566 37.3464 4.19742 37.3625 4.1738 37.3842C4.15018 37.4059 4.13188 37.4328 4.12037 37.4628C3.89343 38.0247 3.6726 38.5894 3.47374 39.1614C3.46014 39.1975 3.45449 39.2362 3.4572 39.2747C3.45991 39.3132 3.4709 39.3506 3.48943 39.3845C3.50795 39.4183 3.53352 39.4478 3.56448 39.4709C3.59544 39.4939 3.63104 39.51 3.66879 39.518C3.82336 39.5542 3.9018 39.4181 3.94638 39.3084Z" fill="#265ABF"/>
<path d="M1.87081 60.2694C1.83144 59.8884 1.78021 59.5087 1.72 59.1306C1.67919 58.8701 1.74905 58.4516 1.36608 58.4892C1.02423 58.5231 1.22453 58.9069 1.18545 59.1631C1.23813 59.5449 1.29747 59.9492 1.34842 60.3548C1.37157 60.5392 1.39206 60.7456 1.62855 60.734C1.92873 60.7186 1.89107 60.4679 1.87081 60.2694Z" fill="#265ABF"/>
<path d="M3.83885 68.9254C3.80162 68.9346 3.76684 68.952 3.73709 68.9762C3.70734 69.0005 3.68329 69.031 3.6667 69.0656C3.65011 69.1002 3.64139 69.138 3.64112 69.1764C3.64085 69.2147 3.64905 69.2527 3.66515 69.2875C3.8643 69.8303 4.0794 70.3678 4.29708 70.9036C4.31854 70.9637 4.36186 71.0136 4.41849 71.0431C4.47512 71.0726 4.54078 71.0797 4.60237 71.0628C4.75087 71.0295 4.78972 70.9135 4.78654 70.7265C4.56626 70.1895 4.33378 69.6071 4.08253 69.0325C4.0542 68.9956 4.01701 68.9664 3.9744 68.9477C3.93179 68.9289 3.88521 68.9213 3.83885 68.9254Z" fill="#265ABF"/>
<path d="M13.1247 24.2959C13.2694 24.2959 14.5396 22.9756 14.5576 22.8321C14.5941 22.7096 14.5162 22.6367 14.4314 22.5831C14.3762 22.5493 14.3106 22.5365 14.2468 22.5471C14.1829 22.5577 14.1251 22.5911 14.0839 22.641C13.686 23.0372 13.2923 23.438 12.9029 23.8434C12.8532 23.8855 12.8217 23.9451 12.8149 24.0098C12.8081 24.0745 12.8266 24.1394 12.8664 24.1908C12.9354 24.2583 13.0282 24.296 13.1247 24.2959Z" fill="#265ABF"/>
<path d="M29.3549 94.4558C28.7956 94.2185 28.2341 93.9854 27.6685 93.7646C27.638 93.7538 27.6057 93.7493 27.5734 93.7515C27.5411 93.7537 27.5096 93.7624 27.4808 93.7772C27.4521 93.792 27.4266 93.8125 27.4061 93.8374C27.3855 93.8624 27.3704 93.8913 27.3614 93.9223C27.2876 94.1119 27.4366 94.2103 27.5706 94.2679C28.0598 94.479 28.5548 94.6775 29.051 94.87C29.2765 94.9568 29.4512 94.9129 29.4891 94.6141C29.4477 94.5638 29.4136 94.4807 29.3549 94.4558Z" fill="#265ABF"/>
<path d="M1.29308 49.9736C1.63263 50.0343 1.59791 49.7061 1.62976 49.5023C1.69923 49.0533 1.74174 48.6003 1.79413 48.1488C1.81613 47.9597 1.79208 47.7641 1.57209 47.7403C1.33415 47.7146 1.30384 47.9389 1.27923 48.1074C1.2141 48.5572 1.16799 49.0102 1.11415 49.4618C1.09504 49.6629 1.04241 49.9287 1.29308 49.9736Z" fill="#265ABF"/>
<path d="M6.79532 75.4883C6.74491 75.5286 6.71159 75.5865 6.70203 75.6503C6.69248 75.7141 6.70747 75.7792 6.74387 75.8325C7.0343 76.3321 7.33496 76.8259 7.64604 77.314C7.66053 77.3423 7.6806 77.3675 7.70498 77.388C7.72936 77.4085 7.75765 77.424 7.78809 77.4334C7.81852 77.4428 7.85052 77.446 7.88222 77.4429C7.91392 77.4397 7.94456 77.4302 7.97254 77.415C8.05242 77.3481 8.12318 77.271 8.18299 77.1857C7.80293 76.5941 7.44203 76.0235 7.06457 75.4643C7.03852 75.4261 6.86305 75.442 6.79532 75.4883Z" fill="#265ABF"/>
<path d="M2.56061 42.916C2.78379 42.9864 2.86894 42.7854 2.92047 42.6135C3.0652 42.1258 3.19171 41.6319 3.34194 41.1456C3.40765 40.9337 3.36042 40.7757 3.15693 40.7218C2.97109 40.6726 2.89174 40.8353 2.84485 40.9873C2.69491 41.4745 2.55018 41.9631 2.42224 42.3883C2.39648 42.6309 2.34409 42.8474 2.56061 42.916Z" fill="#265ABF"/>
<path d="M67.1699 90.9624C66.6315 91.2487 66.1081 91.5639 65.5848 91.8771C65.5561 91.892 65.5309 91.9129 65.511 91.9384C65.491 91.9638 65.4767 91.9931 65.469 92.0245C65.4613 92.0558 65.4604 92.0885 65.4662 92.1203C65.472 92.152 65.4844 92.1822 65.5028 92.2088C65.6052 92.375 65.7592 92.3503 65.9025 92.2704C66.3706 92.0099 66.839 91.7494 67.2981 91.4738C67.3843 91.402 67.4575 91.3159 67.5143 91.2191C67.4619 90.991 67.3195 90.8819 67.1699 90.9624Z" fill="#265ABF"/>
<path d="M1.82246 46.4408C2.00684 46.4674 2.07467 46.286 2.10796 46.1395C2.22606 45.6185 2.33104 45.0974 2.43785 44.5764C2.45021 44.5398 2.45521 44.5011 2.45241 44.4626C2.4496 44.4241 2.43913 44.3866 2.4216 44.3522C2.40407 44.3178 2.37987 44.2873 2.35036 44.2624C2.32085 44.2375 2.28658 44.2188 2.24973 44.2073C2.06736 44.1561 1.97127 44.3002 1.93567 44.4577C1.81757 44.9787 1.70967 45.4998 1.61907 45.9227C1.59852 46.2069 1.59638 46.4084 1.82246 46.4408Z" fill="#265ABF"/>
<path d="M5.19756 36.1165C5.50729 35.5375 5.80085 34.9508 6.10652 34.3533C6.02576 34.2459 5.98403 34.1478 5.90963 34.1012C5.8817 34.085 5.85052 34.075 5.81833 34.0722C5.78613 34.0693 5.75373 34.0735 5.72335 34.0846C5.69297 34.0956 5.66547 34.1132 5.64264 34.1361C5.61982 34.159 5.60217 34.1866 5.5912 34.217C5.32749 34.738 5.07837 35.2646 4.83291 35.7934C4.80723 35.8524 4.80258 35.9184 4.81976 35.9804C4.83694 36.0423 4.87481 36.0965 4.92718 36.1338C4.94472 36.153 4.96638 36.168 4.9905 36.1777C5.01462 36.1875 5.04059 36.1917 5.06654 36.19C5.09249 36.1883 5.11779 36.1809 5.14046 36.1681C5.16314 36.1554 5.18262 36.1378 5.19756 36.1165Z" fill="#265ABF"/>
<path d="M64.0203 92.6846C63.4602 92.9313 62.9088 93.1976 62.3628 93.474C62.3277 93.5077 62.3007 93.549 62.284 93.5947C62.2673 93.6404 62.2613 93.6893 62.2664 93.7377C62.2705 93.77 62.2818 93.8009 62.2995 93.8282C62.3173 93.8554 62.341 93.8783 62.3689 93.895C62.3968 93.9117 62.4281 93.9219 62.4605 93.9248C62.4929 93.9276 62.5255 93.923 62.5559 93.9114C63.1635 93.7184 63.7432 93.4467 64.2803 93.1032C64.3312 93.0711 64.3415 92.9747 64.3627 92.9267C64.3068 92.7301 64.1876 92.6108 64.0203 92.6846Z" fill="#265ABF"/>
<path d="M10.6948 27.0089C10.8928 26.9872 12.1241 25.5534 12.0841 25.3974C12.0193 25.1398 11.8324 25.0446 11.6416 25.251C11.2439 25.6814 10.8635 26.1306 10.5092 26.5973C10.3517 26.8054 10.4464 26.9799 10.6948 27.0089Z" fill="#265ABF"/>
<path d="M8.86707 78.4312C8.5776 78.5504 8.56349 78.7374 8.70127 78.9354C9.00724 79.3748 9.32614 79.8055 9.64571 80.2351C9.74239 80.3651 9.88397 80.4667 10.0365 80.3509C10.2102 80.2192 10.174 80.0493 10.0495 79.8828C9.74442 79.4741 9.4524 79.0561 9.14296 78.6506C9.06085 78.5659 8.96809 78.4921 8.86707 78.4312Z" fill="#265ABF"/>
<path d="M6.55567 32.9352C6.63122 32.9717 6.80172 32.9656 6.83298 32.917C7.18526 32.3647 7.51889 31.8005 7.86915 31.2204C7.82983 31.1276 7.77535 31.042 7.70774 30.9672C7.68239 30.9476 7.65306 30.9339 7.6218 30.927C7.59054 30.9201 7.55804 30.9202 7.52682 30.9273C7.4956 30.9343 7.4664 30.9482 7.44117 30.9679C7.41594 30.9876 7.39539 31.0127 7.38096 31.0412C7.06448 31.5588 6.7562 32.0814 6.45631 32.609C6.44005 32.6366 6.42971 32.6673 6.42592 32.6991C6.42214 32.731 6.42507 32.7632 6.4344 32.7939C6.44374 32.8246 6.45932 32.853 6.4802 32.8773C6.50107 32.9016 6.52678 32.9213 6.55567 32.9352Z" fill="#265ABF"/>
<path d="M60.6739 94.1804C60.1528 94.3683 59.6361 94.5712 59.1177 94.7674C59.0808 94.7763 59.0463 94.793 59.0164 94.8164C58.9865 94.8397 58.9619 94.8692 58.9443 94.9029C58.9267 94.9365 58.9166 94.9735 58.9145 95.0114C58.9124 95.0493 58.9184 95.0872 58.9321 95.1226C58.9758 95.2694 59.1059 95.2807 59.3085 95.2673C59.8096 95.072 60.3743 94.8572 60.9341 94.6305C60.9638 94.619 60.9908 94.6014 61.0134 94.5788C61.0359 94.5562 61.0535 94.5292 61.065 94.4994C61.0764 94.4697 61.0815 94.4378 61.0799 94.406C61.0784 94.3741 61.0702 94.3429 61.0559 94.3144C61.0413 94.2791 61.0195 94.2472 60.9917 94.2209C60.964 94.1946 60.931 94.1744 60.8949 94.1618C60.8588 94.1491 60.8205 94.1442 60.7824 94.1474C60.7443 94.1506 60.7073 94.1619 60.6739 94.1804Z" fill="#265ABF"/>
<path d="M32.6871 95.5475C32.1809 95.3849 31.674 95.2291 31.1393 95.0609C30.9842 95.032 30.7862 95.0048 30.7147 95.2205C30.6568 95.3964 30.8093 95.5085 30.9526 95.5551C31.4827 95.7288 32.0162 95.8905 32.553 96.0402C32.5829 96.052 32.6149 96.0577 32.647 96.057C32.6791 96.0564 32.7106 96.0493 32.74 96.0363C32.7694 96.0233 32.796 96.0046 32.818 95.9813C32.8401 95.958 32.8573 95.9304 32.8686 95.9004C32.8851 95.8657 32.8933 95.8277 32.8927 95.7893C32.892 95.751 32.8825 95.7133 32.8649 95.6791C32.8474 95.645 32.8223 95.6154 32.7915 95.5926C32.7606 95.5697 32.7249 95.5543 32.6871 95.5475Z" fill="#265ABF"/>
<path d="M46.0636 97.2179C45.7793 97.2179 45.5765 97.208 45.3753 97.2204C45.1648 97.2335 44.8543 97.1336 44.8378 97.4694C44.8184 97.8286 45.1384 97.7206 45.3425 97.7363C45.5434 97.7621 45.747 97.7609 45.9476 97.7325C46.3317 97.6558 47.0219 97.945 47.0202 97.4179C47.0185 96.966 46.3377 97.3336 46.0636 97.2179Z" fill="#265ABF"/>
<path d="M23.9974 7.375L23.9155 7.52404C23.9772 7.49278 24.0567 7.47168 23.9974 7.375Z" fill="#265ABF"/>
<path d="M93.512 15.877C93.5698 14.0125 93.5606 12.1461 93.631 10.2822C93.701 8.42645 92.6685 7.84433 91.3072 7.82494C87.884 7.77602 84.4622 7.6362 81.039 7.5566C70.7919 7.31953 60.5448 7.26714 50.2978 7.46745C46.5686 7.54011 42.8381 7.57193 39.1121 7.77716C38.4543 7.72376 37.7927 7.73597 37.1373 7.81363C36.2136 7.87152 35.2478 7.57542 34.384 8.13988C34.1032 8.26643 33.8648 8.47125 33.6974 8.72979C33.53 8.98834 33.4408 9.28964 33.4403 9.59762C33.3859 11.742 33.3349 13.8872 33.337 16.0321C33.3352 16.4998 33.5182 16.9492 33.8461 17.2826C34.174 17.616 34.6203 17.8064 35.0879 17.8123C35.98 17.8702 36.873 17.9136 37.7663 17.9397C47.4683 18.2205 57.1721 18.3774 66.8784 18.3284C69.9922 18.3128 73.1062 18.2511 76.2203 18.2103L77.9244 18.171L83.8833 18.0517C83.8989 17.8856 83.9145 17.7194 83.9301 17.5533C82.0363 17.4503 80.1375 17.4958 78.2509 17.6893L76.249 17.7405C76.2424 17.8473 76.2357 17.9534 76.2292 18.0589C76.2357 17.9524 76.2426 17.8463 76.249 17.7405C76.0388 17.6477 75.8048 17.6219 75.5794 17.6667C72.6551 17.6831 69.7308 17.7035 66.8066 17.7278C66.5804 17.6869 66.347 17.7172 66.1388 17.8146L63.685 17.8306H63.359L62.7431 17.8248C62.4863 17.6511 62.1963 17.7287 61.9224 17.7298C55.4564 17.7553 48.9921 17.6051 42.5283 17.4719C40.1275 17.4224 37.7281 17.3107 35.3279 17.2172C34.3999 17.1807 33.9191 16.6915 33.9266 15.7699C33.942 13.8279 33.9871 11.8864 34.0068 9.9444C34.0123 9.66307 34.0827 9.38678 34.2123 9.13703C34.3419 8.88728 34.5273 8.67079 34.7542 8.50432L35.1412 8.27274C35.2282 8.34665 35.3301 8.40107 35.44 8.43227C35.5498 8.46348 35.6651 8.47076 35.7781 8.45365C37.1018 8.38129 38.4254 8.3147 39.7494 8.24609L40.3545 8.25595C40.5571 8.26724 40.7596 8.293 40.9623 8.28779C44.0144 8.20539 47.0665 8.12078 50.1184 8.03394C51.5657 7.994 53.0156 7.95982 54.4641 7.92306C57.2924 7.90482 60.1208 7.87182 62.9489 7.87211C66.1087 7.87211 69.2682 7.9028 72.4277 7.91988C73.2092 7.94362 73.9908 7.9879 74.7724 7.98645C76.1329 7.98385 77.4933 8.14884 78.8523 7.98355L80.7263 8.03218C82.194 8.19438 83.6726 8.22858 85.1462 8.13436L87.1539 8.22988C88.1705 8.28777 89.1857 8.42731 90.2057 8.28171L91.9086 8.39083L92.5015 8.58651L92.5162 8.59605L92.667 8.72054L93.0228 9.19699C93.127 10.1166 92.9334 11.0464 93.1169 11.9631C93.0855 13.2422 93.0542 14.5212 93.0233 15.8003C92.9305 16.109 92.8378 16.4186 92.7452 16.7289L92.5374 16.9766C92.5308 17.014 92.5136 17.0487 92.4879 17.0768C92.4623 17.1048 92.4293 17.125 92.3927 17.135C92.4292 17.1248 92.4621 17.1045 92.4877 17.0765C92.5132 17.0485 92.5305 17.0139 92.5374 16.9766C92.5119 16.971 92.4853 16.9707 92.4597 16.9759C92.434 16.981 92.4097 16.9914 92.3883 17.0064C92.3669 17.0214 92.3489 17.0408 92.3353 17.0631C92.3217 17.0855 92.313 17.1105 92.3096 17.1364L92.0655 17.2316C91.3977 17.2577 90.7201 17.1422 90.0682 17.3735L86.5305 17.4681C86.3854 17.4099 86.2294 17.3836 86.0732 17.3913C85.9171 17.3989 85.7646 17.4403 85.6259 17.5125L83.9308 17.5533C83.9152 17.7196 83.8995 17.8858 83.8839 18.052L86.3805 17.9391C86.4228 17.9765 86.4777 17.9963 86.5341 17.9945C86.5906 17.9927 86.6442 17.9695 86.6841 17.9295C87.908 17.987 89.1345 17.9471 90.3522 17.8103C90.9915 17.9176 91.6474 17.8707 92.2651 17.6737C93.1653 17.4108 93.4862 16.7216 93.512 15.877ZM79.4252 17.7843C79.2413 17.7843 79.0588 17.7993 78.8796 17.7996C79.059 17.7996 79.2413 17.7851 79.4252 17.7843ZM78.8718 17.7993C78.8177 17.7993 78.7638 17.7973 78.7105 17.7935C78.7641 17.7973 78.818 17.799 78.8718 17.7993ZM66.6563 17.944C66.604 17.9385 66.5516 17.9307 66.4995 17.9215C66.5513 17.9316 66.6042 17.9397 66.6566 17.9452L66.6563 17.944ZM73.1424 7.78557C73.0402 7.7859 72.9381 7.79287 72.8367 7.80642C72.9382 7.79324 73.0404 7.78667 73.1427 7.78674L73.1424 7.78557ZM73.1475 7.78557C73.2862 7.78557 73.4254 7.7925 73.5641 7.80147C73.4257 7.79395 73.2868 7.78587 73.1478 7.78674L73.1475 7.78557ZM73.6687 7.80815C73.7381 7.81249 73.8075 7.81654 73.8767 7.81914C73.8078 7.81769 73.7384 7.81366 73.6689 7.80932L73.6687 7.80815ZM88.6843 8.08864C88.8115 8.08864 88.9386 8.09172 89.0655 8.0979C88.9388 8.09192 88.8118 8.08923 88.6846 8.08981L88.6843 8.08864ZM92.2535 8.34567C92.3024 8.37171 92.3466 8.40566 92.3845 8.44613C92.3465 8.40618 92.3023 8.37272 92.2535 8.34712V8.34567ZM92.1798 8.31963C92.1944 8.32343 92.2086 8.32838 92.2224 8.3344C92.2085 8.32887 92.1943 8.32441 92.1798 8.32107V8.31963ZM93.096 16.4521C93.0757 16.4901 93.0502 16.525 93.02 16.5558C93.0497 16.5254 93.075 16.491 93.0951 16.4536L93.096 16.4521ZM90.4032 17.4867C90.4553 17.4867 90.509 17.4849 90.5635 17.4867C90.5064 17.4841 90.4526 17.4861 90.4005 17.4858L90.4032 17.4867ZM90.3107 17.4815C90.3404 17.4846 90.3701 17.4862 90.3999 17.4864C90.3693 17.486 90.3387 17.4841 90.3082 17.4806L90.3107 17.4815ZM90.2529 17.4722C90.2607 17.4739 90.2686 17.4748 90.2761 17.4763C90.2648 17.4742 90.2569 17.4728 90.2491 17.471L90.2529 17.4722ZM92.1154 17.5443C92.1383 17.5811 92.1684 17.6127 92.2041 17.6372C92.1667 17.6128 92.135 17.5807 92.111 17.5431L92.1154 17.5443Z" fill="#265ABF"/>
<path d="M91.9616 68.2668C91.9376 67.8992 91.5758 68.0286 91.3402 68.0352C84.7077 68.2347 78.0749 68.3988 71.4389 68.4043C71.2603 68.4043 71.0808 68.4002 70.9037 68.4173C70.8261 68.4172 70.7514 68.447 70.6953 68.5007C70.6393 68.5543 70.6062 68.6275 70.6029 68.7051C70.5896 68.9042 70.7364 68.9656 70.8965 68.9792C71.0991 68.9951 71.3042 68.9902 71.5083 68.9902C74.7503 68.9902 77.9912 68.9902 81.2311 68.9902C81.2311 68.9557 81.2311 68.9213 81.2311 68.8869C84.598 68.7904 87.9655 68.6927 91.3335 68.5939C91.583 68.5872 91.9889 68.7001 91.9616 68.2668Z" fill="#265ABF"/>
<path d="M67.6399 54.2799C67.6719 54.2803 67.7035 54.2743 67.7331 54.2622C67.7626 54.2501 67.7895 54.2321 67.8119 54.2094C67.8344 54.1867 67.8521 54.1597 67.8639 54.1301C67.8758 54.1004 67.8815 54.0687 67.8808 54.0368C67.8868 53.9723 67.8697 53.9078 67.8326 53.8548C67.7955 53.8018 67.7407 53.7637 67.6781 53.7473C67.5035 53.7155 67.3262 53.7017 67.1488 53.7062C60.868 53.7035 54.5872 53.7046 48.3066 53.7097C48.0128 53.7097 47.4944 53.5389 47.5158 54.0194C47.5358 54.477 48.049 54.2747 48.3411 54.2758C51.4557 54.2906 54.5706 54.2851 57.6852 54.2851V54.2973C60.7998 54.2973 63.9147 54.2973 67.0298 54.2973C67.2321 54.2964 67.4367 54.2952 67.6399 54.2799Z" fill="#265ABF"/>
<path d="M67.5843 68.9892C67.7441 68.9747 67.8926 68.9137 67.8738 68.7142C67.8706 68.6366 67.8378 68.5631 67.7822 68.5088C67.7266 68.4544 67.6524 68.4234 67.5747 68.4219C67.4227 68.4083 67.2688 68.4152 67.1156 68.4152C60.8856 68.4139 54.6556 68.4129 48.4255 68.4123C48.1962 68.4068 47.9667 68.4148 47.7383 68.4364C47.6997 68.4399 47.6623 68.451 47.6281 68.4692C47.5939 68.4874 47.5636 68.5122 47.539 68.5422C47.5145 68.5722 47.4962 68.6067 47.4852 68.6439C47.4742 68.681 47.4706 68.72 47.4749 68.7585C47.4846 68.8224 47.5178 68.8803 47.5679 68.9211C47.6179 68.9619 47.6813 68.9827 47.7458 68.9794C47.9485 68.9939 48.1538 68.995 48.3578 68.995C51.4729 68.995 54.5878 68.995 57.7028 68.995V69.0011C60.818 69.0011 63.9331 69.0011 67.0479 69.0011C67.2274 69.0008 67.4069 69.0054 67.5843 68.9892Z" fill="#265ABF"/>
<path d="M49.1912 59.9992C48.757 59.9992 48.3228 59.9911 47.8886 59.9954C47.682 59.9974 47.5381 60.1037 47.5511 60.3211C47.5618 60.4982 47.7037 60.5743 47.8696 60.5842C48.0224 60.5931 48.1758 60.5926 48.3289 60.5926C53.4621 60.5966 58.5953 60.6 63.7285 60.6027C63.9064 60.6107 64.0847 60.6 64.2605 60.5709C64.3053 60.553 64.3457 60.5257 64.3789 60.4907C64.4122 60.4557 64.4375 60.4139 64.453 60.3682C64.463 60.3375 64.4661 60.3049 64.4623 60.2728C64.4585 60.2407 64.4478 60.2097 64.4308 60.1822C64.4138 60.1547 64.3911 60.1312 64.3641 60.1133C64.3371 60.0954 64.3066 60.0837 64.2746 60.0788C64.0747 60.0444 63.8719 60.0295 63.6691 60.0342C61.1411 60.0315 58.6131 60.0309 56.0851 60.0325V60.0001C53.7873 59.9997 51.4894 59.9994 49.1912 59.9992Z" fill="#265ABF"/>
<path d="M54.0106 74.7396C52.0712 74.7359 50.1318 74.728 48.1924 74.7301C47.9556 74.7301 47.5869 74.6262 47.5692 74.9796C47.5472 75.4181 47.9582 75.2505 48.2059 75.2931C48.2567 75.2986 48.3079 75.2998 48.3589 75.2968C53.4627 75.3047 58.5669 75.3124 63.6715 75.3197C63.8501 75.3197 64.0288 75.3197 64.2068 75.305C64.2716 75.304 64.3338 75.2792 64.3815 75.2351C64.4291 75.1911 64.4588 75.131 64.4649 75.0664C64.4686 75.0278 64.4645 74.9888 64.4527 74.9519C64.4409 74.9149 64.4216 74.8808 64.3962 74.8515C64.3707 74.8222 64.3396 74.7985 64.3046 74.7817C64.2696 74.7649 64.2315 74.7554 64.1928 74.7538C64.015 74.7369 63.8363 74.7335 63.658 74.7434H56.0018V74.7396C55.3375 74.7399 54.6741 74.7411 54.0106 74.7396Z" fill="#265ABF"/>
<path d="M85.7661 53.9929C86.4259 54.0721 87.0937 54.0543 87.7483 53.94C88.7706 53.9803 89.7946 53.9512 90.813 53.8531C91.1806 53.8577 91.5739 54.0236 91.8839 53.6794C91.8883 53.6305 91.8926 53.5816 91.8966 53.5327C91.3675 53.0858 90.7865 53.4013 90.2258 53.4195C89.0974 53.3749 87.9671 53.4079 86.8432 53.5182C86.0792 53.4511 85.3101 53.4698 84.5503 53.5741C82.9099 53.5573 81.2696 53.5475 79.6324 53.676C78.4598 53.5985 77.2829 53.6157 76.113 53.7272C74.457 53.7243 72.8015 53.7182 71.1455 53.7226C70.9316 53.7226 70.6083 53.6722 70.6074 53.9863C70.6074 54.3105 70.9334 54.241 71.1432 54.2404C73.5125 54.2332 75.8826 54.285 78.2498 54.1446C79.062 54.2395 79.8835 54.222 80.6909 54.0925C82.3832 54.1468 84.0773 54.1136 85.7661 53.9929Z" fill="#265ABF"/>
<path d="M91.5397 59.6239C90.5194 59.6239 89.4992 59.6239 88.479 59.6239C88.479 59.6861 88.479 59.7481 88.479 59.8103C87.3825 59.8103 86.2862 59.8103 85.19 59.8103C84.9842 59.8103 84.7349 59.8176 84.7268 60.085C84.7176 60.3586 84.9662 60.3846 85.1732 60.3788C87.3152 60.3209 89.4573 60.259 91.5993 60.193C91.8112 60.1866 92.0624 60.1623 92.0598 59.905C92.0555 59.577 91.7655 59.6239 91.5397 59.6239Z" fill="#265ABF"/>
<path d="M91.4192 74.3517C89.3792 74.403 87.3394 74.4609 85.2999 74.5254C85.0599 74.5329 84.7146 74.4637 84.7363 74.8383C84.754 75.1451 85.0741 75.0849 85.2924 75.0863C86.3119 75.0924 87.3316 75.0892 88.3514 75.0892C88.3514 75.0282 88.3514 74.9677 88.3514 74.9066C89.3712 74.9066 90.3911 74.915 91.4105 74.9005C91.6612 74.897 92.0699 75.0114 92.0442 74.5821C92.0228 74.2206 91.6516 74.345 91.4192 74.3517Z" fill="#265ABF"/>
<path d="M66.705 60.4726C67.526 60.7262 68.3551 60.5994 69.185 60.5322C72.5138 60.5542 75.8409 60.5589 79.1677 60.4423C80.0738 60.5254 80.9865 60.5026 81.8872 60.3742C82.1278 60.3948 82.4742 60.5189 82.5055 60.1716C82.5405 59.7817 82.1731 59.9018 81.9387 59.9015C81.8384 59.9089 81.7389 59.9245 81.6412 59.9481C80.1563 59.8802 78.6687 59.9026 77.1865 60.0153C73.8131 60.0002 70.4397 59.9629 67.0674 60.0813C66.5803 60.0497 66.5273 60.1059 66.6987 60.47L66.705 60.4726Z" fill="#265ABF"/>
<path d="M67.0902 75.3072C68.3091 75.2739 69.5316 75.3668 70.7473 75.2143C71.0598 75.2804 71.3825 75.282 71.6956 75.2189C74.7987 75.3055 77.9004 75.2724 81.0007 75.1193C81.4665 75.1132 81.946 75.2669 82.3901 74.9992C82.5748 74.9011 82.5076 74.8128 82.3793 74.7265C82.2809 74.4836 82.0997 74.6134 81.9451 74.6301C81.7951 74.6093 81.6441 74.596 81.4927 74.5905C78.3331 74.6242 75.1738 74.6597 72.0146 74.6967C70.3838 74.7141 68.7529 74.7213 67.1227 74.7384C66.9012 74.7407 66.6015 74.6996 66.5853 75.0168C66.5665 75.3555 66.8728 75.3124 67.0902 75.3072Z" fill="#265ABF"/>
<path d="M92.0602 26.9185C92.0448 26.7764 91.9153 26.7159 91.7819 26.7046C91.6293 26.6927 91.4757 26.6921 91.3225 26.6924C86.6967 26.6967 82.0709 26.7017 77.4451 26.7075C77.2666 26.7012 77.0879 26.7089 76.9106 26.7304C76.8719 26.7328 76.834 26.7433 76.7996 26.7612C76.7651 26.7791 76.7347 26.8039 76.7104 26.8342C76.686 26.8645 76.6684 26.8996 76.6584 26.9371C76.6483 26.9747 76.6463 27.0139 76.6523 27.0522C76.6601 27.1161 76.6907 27.175 76.7386 27.218C76.7865 27.261 76.8484 27.2852 76.9128 27.2861C77.0914 27.2966 77.2703 27.2963 77.4492 27.2963C79.7492 27.2963 82.0493 27.2963 84.3494 27.2963V27.2329C86.624 27.2329 88.8988 27.2329 91.1736 27.2329C91.3776 27.2329 91.5822 27.2329 91.7854 27.2167C91.8242 27.2192 91.8631 27.213 91.8992 27.1986C91.9353 27.1841 91.9677 27.1618 91.994 27.1332C92.0204 27.1046 92.04 27.0705 92.0514 27.0334C92.0629 26.9962 92.0659 26.957 92.0602 26.9185Z" fill="#265ABF"/>
<path d="M73.6387 26.7536C73.4607 26.742 73.2809 26.7466 73.1021 26.7492C70.3162 26.7898 67.5297 26.8071 64.7448 26.8827C63.2667 26.9229 61.7829 26.8204 60.3101 27.0239C59.7847 27.0144 59.2559 26.9394 58.7395 27.1035C58.5791 27.5739 58.5861 27.582 59.2748 27.5696C63.9255 27.4856 68.5767 27.4011 73.2286 27.316C73.3565 27.3137 73.4848 27.3192 73.6119 27.3088C73.8 27.2937 73.98 27.2489 73.9641 27.0054C73.9522 26.8129 73.7971 26.764 73.6387 26.7536Z" fill="#265ABF"/>
<path d="M78.0744 38.0307C77.9212 38.0277 77.7681 38.0333 77.6156 38.0475C77.551 38.0474 77.4885 38.0703 77.4392 38.112C77.3899 38.1537 77.3569 38.2116 77.3463 38.2753C77.3398 38.3132 77.3412 38.352 77.3503 38.3893C77.3594 38.4267 77.376 38.4618 77.3992 38.4925C77.4223 38.5232 77.4515 38.5488 77.485 38.5677C77.5184 38.5867 77.5553 38.5985 77.5935 38.6027C77.7699 38.6286 77.9484 38.6376 78.1265 38.6296C82.5426 38.6103 86.9586 38.5885 91.3745 38.5642C91.5739 38.5642 91.8541 38.6973 91.9484 38.3616C91.9583 38.3401 91.9799 38.3155 91.975 38.2979C91.9616 38.2582 91.9444 38.2201 91.9236 38.1838C91.7325 37.8619 91.4173 38.0226 91.1709 38.022C86.8052 38.0147 82.4397 38.0176 78.0744 38.0307Z" fill="#265ABF"/>
<path d="M58.5534 32.9675C58.5685 33.2323 58.8027 33.2468 59.0166 33.2465C59.7306 33.2465 60.4446 33.2465 61.1586 33.2465C61.1586 33.2086 61.1586 33.1704 61.1586 33.1324C61.8727 33.1324 62.5871 33.1342 63.3006 33.1324C63.5102 33.1324 63.7482 33.1168 63.7378 32.8357C63.7268 32.5497 63.4755 32.5671 63.2746 32.5709C61.8466 32.5969 60.4185 32.6269 58.9904 32.6609C58.7849 32.6644 58.5381 32.6901 58.5534 32.9675Z" fill="#265ABF"/>
<path d="M91.589 32.9C91.7917 32.9 92.0343 32.9055 92.0328 32.6157C92.0328 32.3815 91.8316 32.3552 91.6451 32.3552C90.2704 32.3517 88.8955 32.3497 87.5206 32.3491C87.3388 32.3491 87.1443 32.3824 87.1521 32.6282C87.1599 32.8739 87.3632 32.8887 87.5409 32.8907C88.2026 32.8974 88.8646 32.8936 89.5266 32.8936V32.902C90.2141 32.9017 90.9016 32.9043 91.589 32.9Z" fill="#265ABF"/>
<path d="M58.5686 44.3433C58.6007 44.5355 58.7401 44.5769 58.903 44.5726C60.8058 44.5185 62.7084 44.4636 64.6109 44.4076L65.9613 44.3786C67.8555 44.4145 69.7489 44.3865 71.6412 44.2779L72.1024 44.271C72.8553 44.3374 73.6121 44.3471 74.3665 44.2999C74.5535 44.2999 74.7368 44.242 74.7318 44.0128C74.7269 43.7835 74.5387 43.7311 74.3538 43.7424C73.6012 43.7887 72.8427 43.6489 72.0942 43.8125C71.391 43.7402 70.682 43.7499 69.9811 43.8414C68.7018 43.7596 67.4179 43.7845 66.1427 43.9158L64.6086 43.9279C63.8861 43.8367 63.1542 43.8508 62.4357 43.9699C61.9874 43.9015 61.5309 43.9073 61.0845 43.987C60.2757 43.9702 59.4634 43.8799 58.665 44.0956C58.5704 44.1546 58.4751 44.2122 58.5686 44.3433Z" fill="#265ABF"/>
<path d="M83.2092 32.3853C81.5448 32.3931 79.8804 32.4142 78.2168 32.4299C75.7752 32.3517 73.335 32.3809 70.8954 32.4898C70.6097 32.4987 70.2912 32.3285 70.0602 32.6414C69.0181 32.3595 67.9645 32.4605 66.912 32.5653L66.2197 32.5899C66.1659 32.5531 66.1021 32.5337 66.0368 32.5343C65.9716 32.5349 65.908 32.5555 65.8549 32.5934L65.6552 32.6249C65.3368 32.7543 65.3851 32.8884 65.6503 33.0247L65.8138 33.0623C68.3088 33.0372 70.8034 33.012 73.2976 32.9865C74.9519 32.968 76.6059 32.9416 78.2605 32.919L79.4664 32.9135C80.7549 32.9095 82.0434 32.9051 83.3319 32.9002C83.4856 32.9002 83.6422 32.8941 83.665 32.6857C83.7105 32.2892 83.4049 32.3841 83.2092 32.3853Z" fill="#265ABF"/>
<path d="M58.5724 38.6666C58.5961 38.8573 58.7269 38.9178 58.8934 38.9132C60.9521 38.8553 63.0105 38.7966 65.0688 38.7369C65.3157 38.7877 65.5712 38.777 65.813 38.7057L74.7331 38.5852H75.1705C75.3795 38.6402 75.489 38.5653 75.489 38.3441C75.346 37.839 74.9702 38.1415 74.6894 38.1125C73.3763 38.0275 72.0587 38.0409 70.7476 38.1525C70.2633 38.1635 69.7567 37.9603 69.3078 38.3053C68.3094 38.0529 67.3044 38.1363 66.2973 38.2431L65.0683 38.2596C64.1494 38.1708 63.2234 38.1869 62.3082 38.3077C61.8976 38.2459 61.4797 38.2526 61.0713 38.3273C60.2686 38.3059 59.4628 38.2214 58.6688 38.4304C58.5814 38.4848 58.4841 38.5363 58.5724 38.6666Z" fill="#265ABF"/>
<path d="M49.7153 33.5339C50.1345 33.1924 50.56 32.8647 51.1386 32.8604C50.7666 33.257 50.2579 33.4977 49.7153 33.5339Z" fill="#265ABF"/>
<path d="M36.9029 32.5347C37.0181 33.1058 37.0219 33.6937 36.9142 34.2662C36.7109 33.7076 36.7069 33.0959 36.9029 32.5347Z" fill="#265ABF"/>
<path d="M51.8623 31.5897C51.6437 31.3688 51.7241 31.0924 51.7206 30.8315C51.8323 30.9191 51.9083 31.0444 51.9343 31.1839C51.9604 31.3234 51.9348 31.4677 51.8623 31.5897Z" fill="#265ABF"/>
<path d="M51.6326 32.2822C51.6239 32.2619 51.6198 32.24 51.6207 32.2179C51.6217 32.1959 51.6276 32.1743 51.638 32.1549C51.6484 32.1354 51.663 32.1185 51.6808 32.1055C51.6986 32.0925 51.719 32.0836 51.7407 32.0796C51.7046 32.1465 51.6685 32.2145 51.6326 32.2822Z" fill="#265ABF"/>
<path d="M51.4575 32.5511C51.4531 32.5314 51.453 32.5109 51.457 32.4911C51.4609 32.4713 51.469 32.4526 51.4807 32.4361C51.4924 32.4196 51.5073 32.4057 51.5247 32.3953C51.542 32.385 51.5614 32.3784 51.5815 32.376C51.54 32.4344 51.4986 32.4928 51.4575 32.5511Z" fill="#265ABF"/>
<path d="M51.2937 32.7183C51.2898 32.6975 51.2911 32.676 51.2973 32.6558C51.3034 32.6355 51.3143 32.617 51.3292 32.6019C51.3441 32.5868 51.3625 32.5754 51.3826 32.5689C51.4028 32.5624 51.4242 32.5608 51.4451 32.5643L51.2937 32.7183Z" fill="#265ABF"/>
<path d="M45.8854 38.0451C45.8732 38.5314 45.9358 38.9393 45.4859 39.135C44.9791 39.3555 44.4901 39.1784 44.0044 39.0461C43.9733 39.0377 43.9444 39.0228 43.9195 39.0024C43.8945 38.982 43.874 38.9566 43.8595 38.9278C43.845 38.8991 43.8367 38.8676 43.8352 38.8354C43.8337 38.8032 43.839 38.771 43.8508 38.741C43.9087 38.576 44.0563 38.5468 44.2198 38.5384C45.4416 38.4805 45.4416 38.4791 45.162 37.2784C45.133 37.1551 45.1197 37.0277 45.0841 36.9067C45.0178 36.6815 44.9235 36.4273 45.2497 36.3567C45.5152 36.2988 45.5716 36.5472 45.626 36.7405C45.7024 37.0086 45.7745 37.2784 45.8287 37.551C45.8562 37.7146 45.8751 37.8795 45.8854 38.0451Z" fill="#265ABF"/>
<path d="M38.1118 35.5154C38.2036 34.9043 38.6907 35.0077 39.0858 35.0108C39.3111 35.041 39.5299 35.1079 39.7336 35.2089C40.351 35.4346 41.0959 36.1033 41.2496 34.7535C41.2545 34.7113 41.4745 34.6933 41.5937 34.6641C41.5199 35.1145 41.4693 35.5707 41.3645 36.0141C41.2698 36.4148 41.0669 36.6466 40.7071 36.2046C40.0072 35.3449 39.1383 35.1382 38.1118 35.5154Z" fill="#265ABF"/>
<path d="M44.427 41.4803C44.11 41.4842 43.7962 41.4187 43.5073 41.2883C43.2184 41.1579 42.9615 40.9659 42.7548 40.7256C42.637 40.5876 42.5188 40.4362 42.6841 40.2648C42.8494 40.0934 43.0144 40.1907 43.1437 40.3204C43.4958 40.6902 43.9795 40.9065 44.4899 40.9225C44.6942 40.93 44.9368 40.9442 44.9003 41.2313C44.8676 41.493 44.6328 41.4889 44.427 41.4803Z" fill="#265ABF"/>
<path d="M38.8792 35.9458C39.1175 35.9484 39.3676 35.9788 39.3925 36.2683C39.413 36.5068 39.1921 36.527 39.0138 36.5204C38.6621 36.5071 38.5394 36.7187 38.4561 37.0142C38.4489 37.0516 38.4337 37.0871 38.4117 37.1181C38.3897 37.1492 38.3613 37.1753 38.3284 37.1945C38.2955 37.2137 38.2588 37.2256 38.2209 37.2295C38.183 37.2333 38.1448 37.229 38.1087 37.2168C37.9416 37.1589 37.9269 36.9951 37.9283 36.8379C37.9456 36.5969 38.0531 36.3713 38.2294 36.2059C38.4056 36.0406 38.6376 35.9477 38.8792 35.9458Z" fill="#265ABF"/>
<path d="M43.1805 35.7578C42.8653 35.7867 42.6697 35.7983 42.6144 35.5705C42.5565 35.3308 42.751 35.2605 42.9247 35.2217C43.272 35.1438 43.6245 35.083 43.9765 35.0246C44.1647 34.9933 44.3673 35.0246 44.4168 35.2272C44.4703 35.4452 44.2857 35.5372 44.1008 35.5766C43.7525 35.6518 43.4016 35.7152 43.1805 35.7578Z" fill="#265ABF"/>
<path d="M42.1992 33.1273C43.1915 32.9582 44.15 32.9623 44.9756 33.6602C44.0253 33.6538 43.0843 33.4732 42.1992 33.1273Z" fill="#265ABF"/>
<path d="M43.9136 37.1176C43.6204 37.0598 43.4597 36.9098 43.4918 36.6435C43.4957 36.586 43.5117 36.53 43.5388 36.4791C43.5658 36.4283 43.6032 36.3837 43.6487 36.3483C43.6942 36.3129 43.7467 36.2876 43.8027 36.2739C43.8586 36.2602 43.9169 36.2585 43.9735 36.2689C44.0246 36.2724 44.0745 36.2862 44.1201 36.3095C44.1657 36.3327 44.2061 36.3649 44.239 36.4042C44.2718 36.4435 44.2963 36.4891 44.3111 36.5381C44.3258 36.5872 44.3306 36.6386 44.3249 36.6895C44.3211 36.799 44.277 36.9032 44.2011 36.9822C44.1252 37.0612 44.0228 37.1094 43.9136 37.1176Z" fill="#265ABF"/>
<path d="M46.8888 37.3955C46.7872 37.3969 46.6892 37.359 46.615 37.2897C46.5408 37.2203 46.4962 37.125 46.4908 37.0235C46.4817 36.9736 46.4841 36.9222 46.4974 36.8732C46.5107 36.8242 46.5348 36.7789 46.5679 36.7404C46.601 36.7019 46.6423 36.6712 46.6888 36.6507C46.7352 36.6302 46.7857 36.6203 46.8365 36.6218C46.8864 36.6131 46.9377 36.6156 46.9866 36.6292C47.0354 36.6428 47.0806 36.6671 47.1189 36.7004C47.1571 36.7336 47.1875 36.775 47.2078 36.8215C47.228 36.868 47.2376 36.9184 47.2359 36.9691C47.2413 37.0706 47.2087 37.1705 47.1446 37.2493C47.0804 37.3281 46.9892 37.3802 46.8888 37.3955Z" fill="#265ABF"/>
<path d="M41.728 34.045C41.4675 33.7208 41.2843 33.4143 41.8957 33.2817C41.9205 33.4137 41.9185 33.5493 41.8897 33.6805C41.8609 33.8117 41.8059 33.9356 41.728 34.045Z" fill="#265ABF"/>
<path d="M37.6519 35.9292C37.6047 35.8219 37.4884 35.6635 37.5229 35.6166C37.6468 35.4482 37.8146 35.6242 37.9671 35.6181L37.6519 35.9292Z" fill="#265ABF"/>
<path d="M93.0245 9.19675C92.906 9.03793 92.7875 8.87911 92.6688 8.72029L92.518 8.59581L92.5036 8.58627L91.9103 8.39058L90.2075 8.28115C89.1874 8.42588 88.1723 8.28695 87.1557 8.22935L85.1482 8.13384C83.6747 8.22806 82.1957 8.19386 80.7281 8.03165L78.8546 7.98303C77.4941 8.14831 76.1338 7.98303 74.7733 7.98593C73.9917 7.98737 73.2101 7.94306 72.4286 7.91932C69.2688 7.90224 66.1093 7.87187 62.9498 7.87158C60.1217 7.87158 57.2933 7.90426 54.465 7.9225C53.0177 7.95926 51.5677 7.99343 50.1189 8.03338C47.0672 8.11713 44.0152 8.20174 40.9629 8.28723C40.7603 8.29273 40.5576 8.26697 40.355 8.25539L39.7501 8.24557C38.426 8.31417 37.1023 8.38043 35.7785 8.45309C35.6656 8.47024 35.5505 8.46299 35.4406 8.43178C35.3307 8.40057 35.2288 8.34613 35.1418 8.27218L34.7545 8.50376C34.5277 8.67027 34.3423 8.88679 34.2128 9.13654C34.0832 9.38629 34.0129 9.66254 34.0074 9.94384C33.9874 11.8856 33.9422 13.8273 33.9268 15.7693C33.9193 16.6915 34.4005 17.181 35.3282 17.2166C37.7282 17.3104 40.1278 17.4221 42.5287 17.4716C48.9927 17.6048 55.457 17.755 61.9228 17.7296C62.1963 17.7296 62.4864 17.652 62.7431 17.8245L63.3591 17.8303H63.685L66.1391 17.8144C66.3472 17.717 66.5805 17.6866 66.8066 17.7275C69.731 17.7032 72.6552 17.6828 75.5793 17.6662C75.8047 17.6213 76.0384 17.6471 76.2486 17.74L78.2505 17.6887C80.1373 17.4952 82.0363 17.4497 83.9301 17.5524L85.6252 17.5116C85.7639 17.4394 85.9166 17.3981 86.0727 17.3905C86.2289 17.3828 86.3848 17.409 86.5298 17.4673L90.0677 17.3727C90.7207 17.1411 91.3992 17.2569 92.065 17.2308L92.3089 17.1356C92.3123 17.1096 92.3211 17.0847 92.3346 17.0623C92.3482 17.0399 92.3664 17.0206 92.3878 17.0056C92.4092 16.9906 92.4335 16.9801 92.4592 16.975C92.4848 16.9699 92.5112 16.9702 92.5368 16.9758C92.606 16.8934 92.6754 16.8109 92.7447 16.7283C92.8373 16.4195 92.93 16.11 93.0228 15.7997C93.0537 14.5207 93.0847 13.2416 93.116 11.9626C92.9351 11.0461 93.129 10.1178 93.0245 9.19675Z" fill="#FF6B7A"/>
<path d="M37.8033 58.7966C37.2709 58.4015 36.7195 57.998 36.1773 57.5832C36.1582 57.5659 36.1432 57.5446 36.1333 57.5208C36.1235 57.497 36.119 57.4714 36.1203 57.4457C36.1216 57.4199 36.1286 57.3948 36.1408 57.3722C36.153 57.3495 36.1701 57.3298 36.1909 57.3146C36.2363 57.2681 36.2958 57.2377 36.3601 57.2279C36.4243 57.2182 36.49 57.2296 36.5472 57.2604C36.8487 57.3964 37.1289 57.5755 37.3788 57.7922C37.7635 58.1919 37.9905 58.0857 38.2646 57.6804C38.8262 56.7939 39.5375 56.0117 40.3668 55.3685C40.5868 55.2073 40.8567 54.9071 41.0761 55.2238C41.2597 55.488 40.8832 55.649 40.6974 55.7836C39.7685 56.4571 39.1611 57.4118 38.4626 58.2869C38.2907 58.5019 38.1605 58.7688 37.8033 58.7966Z" fill="#FCFCFC"/>
<path d="M41.142 70.0996C41.062 70.2092 40.9696 70.3092 40.8669 70.3978C39.8518 71.1215 39.1276 72.1082 38.4213 73.1086C38.074 73.6007 37.7417 73.6384 37.3121 73.1955C37.0466 72.9588 36.7624 72.7438 36.4625 72.5526C36.2888 72.4229 35.9834 72.3297 36.1504 72.0425C36.3432 71.7117 36.5919 71.9516 36.8052 72.0654C36.9453 72.1282 37.0732 72.2151 37.1832 72.3221C37.7262 72.9465 38.0805 72.6779 38.451 72.1164C38.9944 71.2808 39.6853 70.551 40.4898 69.9627C40.5524 69.8987 40.6305 69.852 40.7164 69.827C40.8023 69.8019 40.8933 69.7994 40.9804 69.8198C41.0872 69.8545 41.1414 69.9332 41.142 70.0996Z" fill="#FCFCFC"/>
<path d="M72.5001 16.0566H72.4837C72.4236 16.0566 72.3717 16.0375 72.328 15.9992C72.2843 15.961 72.2597 15.9118 72.2542 15.8517C72.1777 15.1033 72.1395 14.3576 72.1395 13.6146C72.1395 12.6586 72.1832 11.7053 72.2706 10.7547L72.1149 10.7384C72.0439 10.7329 71.9893 10.6974 71.951 10.6318C71.9182 10.5663 71.9019 10.4953 71.9019 10.4188C71.9019 10.3314 71.921 10.2521 71.9592 10.1811C72.0029 10.1046 72.0657 10.0664 72.1477 10.0664H72.1641C73.0709 10.1156 73.9805 10.1402 74.8928 10.1402C74.9748 10.1402 75.0321 10.1729 75.0649 10.2385C75.1032 10.304 75.1223 10.3778 75.1223 10.4597C75.1223 10.5581 75.0977 10.6537 75.0485 10.7465C75.0048 10.834 74.942 10.8777 74.8601 10.8777L73.3933 10.8203C73.3113 11.7217 73.2703 12.6231 73.2703 13.5245V13.8768H74.352C74.434 13.8768 74.494 13.9178 74.5323 13.9998C74.576 14.0817 74.5978 14.1691 74.5978 14.262C74.5978 14.3494 74.5787 14.4286 74.5405 14.4996C74.5022 14.5706 74.4421 14.6062 74.3602 14.6062L73.2867 14.557C73.3031 14.8192 73.3222 15.0842 73.3441 15.3518L74.8273 15.2945C74.9092 15.2945 74.9693 15.33 75.0076 15.401C75.0458 15.4666 75.0649 15.5431 75.0649 15.6305C75.0649 15.7233 75.0431 15.8135 74.9994 15.9009C74.9557 15.9828 74.8956 16.0238 74.8191 16.0238L73.5899 16.0156C73.2239 16.0156 72.8606 16.0293 72.5001 16.0566Z" fill="#FCFCFC"/>
<path d="M71.15 16.1383C71.0572 16.1383 70.978 16.1219 70.9124 16.0892C70.8468 16.0618 70.8059 16.0154 70.7895 15.9499C70.6311 15.0048 70.5245 14.0487 70.4699 13.0818C70.2678 13.7701 70.0547 14.4421 69.8307 15.0976C69.7542 15.3435 69.675 15.5893 69.5931 15.8351C69.5658 15.8952 69.492 15.9471 69.3718 15.9908C69.2517 16.0291 69.126 16.0482 68.9949 16.0482C68.9075 16.0482 68.8283 16.0373 68.7573 16.0154C68.6917 15.9881 68.648 15.9499 68.6261 15.9007C68.2929 15.0102 68.0061 14.1061 67.7657 13.1883V13.8766C67.7657 14.5541 67.7575 15.2287 67.7411 15.9007C67.7357 15.9772 67.7002 16.0345 67.6346 16.0728C67.5745 16.111 67.5035 16.1301 67.4215 16.1301C67.3341 16.1301 67.2522 16.1083 67.1757 16.0646C67.1047 16.0263 67.0692 15.969 67.0692 15.8925V15.8843C67.0856 15.2233 67.0938 14.5623 67.0938 13.9012C67.0938 12.7048 67.0692 11.5112 67.02 10.3202V10.312C67.02 10.2192 67.1047 10.14 67.274 10.0744C67.4434 10.0089 67.6128 9.97607 67.7821 9.97607C67.8804 9.97607 67.9651 9.98973 68.0361 10.017C68.1126 10.0444 68.1591 10.0881 68.1754 10.1482C68.5087 11.5849 68.8911 13.0135 69.3227 14.4339C69.6942 13.2593 70.0547 12.0793 70.4043 10.8939C70.459 10.7027 70.5163 10.5087 70.5764 10.312C70.5983 10.252 70.6556 10.2083 70.7485 10.1809C70.8414 10.1482 70.9424 10.1318 71.0517 10.1318C71.1774 10.1318 71.2921 10.1536 71.3959 10.1973C71.5051 10.2356 71.5598 10.2984 71.5598 10.3858L71.5516 11.1889C71.5516 11.9482 71.5789 12.713 71.6335 13.4833C71.6881 14.2536 71.7783 15.0102 71.9039 15.7532V15.7778C71.9039 15.8761 71.8193 15.9608 71.6499 16.0318C71.4805 16.1028 71.3139 16.1383 71.15 16.1383Z" fill="#FCFCFC"/>
<path d="M64.8553 16.1459H64.7406C64.38 16.1459 64.0823 16.0449 63.8474 15.8427C63.618 15.6406 63.4377 15.3729 63.3066 15.0397C63.1809 14.7064 63.0908 14.3349 63.0362 13.9252C62.987 13.51 62.9624 13.0948 62.9624 12.6797C62.9624 12.1607 62.987 11.6772 63.0362 11.2292C63.0853 10.7813 63.129 10.4426 63.1673 10.2131C63.1837 10.1476 63.2383 10.1011 63.3312 10.0738C63.4295 10.041 63.5415 10.0246 63.6671 10.0246C63.8529 10.0246 64.0331 10.0547 64.208 10.1148C64.3882 10.1749 64.4784 10.2596 64.4784 10.3688V10.3934C64.4347 10.6775 64.3882 11.0653 64.3391 11.557C64.2954 12.0432 64.2735 12.5404 64.2735 13.0484C64.2735 13.6056 64.3227 14.1028 64.421 14.5398C64.5194 14.9714 64.6996 15.2145 64.9619 15.2691H65.0028C65.1613 15.2691 65.2951 15.1435 65.4044 14.8922C65.5136 14.6409 65.601 14.3186 65.6666 13.9252C65.7321 13.5264 65.7786 13.1003 65.8059 12.6469C65.8332 12.1935 65.8469 11.7673 65.8469 11.3685C65.8469 10.9206 65.8332 10.5491 65.8059 10.2541V10.2377C65.8059 10.1558 65.8551 10.0902 65.9534 10.041C66.0517 9.99187 66.1555 9.96729 66.2648 9.96729C66.3522 9.96729 66.4287 9.98367 66.4942 10.0165C66.5598 10.0492 66.598 10.0984 66.6089 10.164C66.6909 10.7157 66.7319 11.3303 66.7319 12.0077C66.7319 12.6414 66.6772 13.2724 66.568 13.9006C66.4587 14.5234 66.2675 15.0424 65.9944 15.4576C65.7212 15.8728 65.3415 16.1022 64.8553 16.1459Z" fill="#FCFCFC"/>
<path d="M61.0349 16.1383H60.9365C60.4558 16.1165 60.0597 15.9854 59.7483 15.745C59.4369 15.4992 59.2812 15.1659 59.2812 14.7453C59.2812 14.5704 59.314 14.382 59.3796 14.1798C59.4233 14.087 59.4943 14.0405 59.5926 14.0405C59.691 14.0405 59.803 14.0733 59.9286 14.1389C60.0543 14.2044 60.1608 14.2809 60.2482 14.3683C60.3411 14.4503 60.3875 14.5158 60.3875 14.565L60.3793 14.7371C60.3793 14.9938 60.4394 15.1768 60.5596 15.2861C60.6798 15.3954 60.8164 15.45 60.9693 15.45C61.1605 15.45 61.3381 15.3899 61.502 15.2697C61.6713 15.1441 61.756 14.9911 61.756 14.8108C61.756 14.7016 61.7068 14.5868 61.6085 14.4667C61.5101 14.341 61.3463 14.2235 61.1168 14.1143C60.505 13.8247 60.0625 13.4779 59.7893 13.0736C59.5216 12.6693 59.3878 12.2651 59.3878 11.8608C59.3878 11.3691 59.5544 10.9403 59.8876 10.5743C60.2209 10.2028 60.6579 10.0034 61.1988 9.97607H61.2397C61.5457 9.97607 61.8325 10.0608 62.1002 10.2301C62.3733 10.3995 62.5946 10.6371 62.7639 10.943C62.7912 10.9922 62.8049 11.0414 62.8049 11.0905C62.8049 11.2271 62.7202 11.3446 62.5508 11.4429C62.387 11.5358 62.2258 11.5822 62.0674 11.5822C61.9253 11.5822 61.8188 11.533 61.7478 11.4347C61.5839 11.0905 61.3681 10.872 61.1004 10.7791C61.0403 10.7627 60.983 10.7546 60.9283 10.7546C60.7535 10.7546 60.6115 10.8283 60.5022 10.9758C60.393 11.1178 60.3383 11.2954 60.3383 11.5084C60.3383 11.7597 60.4312 12.0302 60.617 12.3197C60.7535 12.5109 60.9092 12.6693 61.084 12.795C61.2643 12.9152 61.4446 13.0244 61.6249 13.1228C61.898 13.2648 62.1357 13.4369 62.3378 13.639C62.5454 13.8411 62.6683 14.1389 62.7065 14.5322V14.6305C62.7065 14.8928 62.6383 15.1386 62.5017 15.368C62.3706 15.5975 62.1794 15.7832 61.9281 15.9253C61.6768 16.0673 61.379 16.1383 61.0349 16.1383Z" fill="#FCFCFC"/>
<path d="M56.502 16.0566H56.4856C56.4255 16.0566 56.3736 16.0375 56.3299 15.9992C56.2862 15.961 56.2616 15.9118 56.2562 15.8517C56.1797 15.1033 56.1414 14.3576 56.1414 13.6146C56.1414 12.6586 56.1852 11.7053 56.2726 10.7547L56.1169 10.7384C56.0458 10.7329 55.9912 10.6974 55.953 10.6318C55.9202 10.5663 55.9038 10.4953 55.9038 10.4188C55.9038 10.3314 55.9229 10.2521 55.9612 10.1811C56.0049 10.1046 56.0677 10.0664 56.1496 10.0664H56.166C57.0729 10.1156 57.9825 10.1402 58.8948 10.1402C58.9767 10.1402 59.0341 10.1729 59.0669 10.2385C59.1051 10.304 59.1242 10.3778 59.1242 10.4597C59.1242 10.5581 59.0997 10.6537 59.0505 10.7465C59.0068 10.834 58.944 10.8777 58.862 10.8777L57.3952 10.8203C57.3133 11.7217 57.2723 12.6231 57.2723 13.5245V13.8768H58.354C58.4359 13.8768 58.496 13.9178 58.5342 13.9998C58.5779 14.0817 58.5998 14.1691 58.5998 14.262C58.5998 14.3494 58.5807 14.4286 58.5424 14.4996C58.5042 14.5706 58.4441 14.6062 58.3622 14.6062L57.2887 14.557C57.3051 14.8192 57.3242 15.0842 57.346 15.3518L58.8292 15.2945C58.9112 15.2945 58.9713 15.33 59.0095 15.401C59.0478 15.4666 59.0669 15.5431 59.0669 15.6305C59.0669 15.7233 59.045 15.8135 59.0013 15.9009C58.9576 15.9828 58.8975 16.0238 58.821 16.0238L57.5919 16.0156C57.2259 16.0156 56.8626 16.0293 56.502 16.0566Z" fill="#FCFCFC"/>
<path d="M53.2295 14.1802C53.7321 14.0436 54.12 13.7868 54.3931 13.4099C54.6717 13.0275 54.811 12.6287 54.811 12.2135C54.811 11.8529 54.6991 11.5279 54.4751 11.2384C54.2566 10.9488 53.9124 10.7576 53.4426 10.6647L53.2295 14.1802ZM52.6641 16.196H52.574C52.4483 16.196 52.3418 16.1496 52.2544 16.0567C52.167 15.9693 52.1233 15.8628 52.1233 15.7371L52.3117 10.7549C52.1915 10.7494 52.1014 10.7166 52.0413 10.6566C51.9812 10.5965 51.9512 10.5282 51.9512 10.4517C51.9512 10.3697 51.9812 10.2933 52.0413 10.2222C52.1014 10.1458 52.1888 10.0884 52.3035 10.0502C52.5985 9.96822 52.8963 9.92725 53.1967 9.92725H53.3442C53.9397 9.96002 54.4259 10.0829 54.8029 10.296C55.1798 10.5036 55.4557 10.7685 55.6305 11.0909C55.8108 11.4132 55.9009 11.7573 55.9009 12.1234C55.9009 12.6041 55.7589 13.0712 55.4748 13.5246C55.1962 13.9781 54.8001 14.3359 54.2866 14.5981C54.3631 14.8876 54.5188 15.1307 54.7537 15.3274C54.7646 15.3329 54.7755 15.3411 54.7865 15.352C54.8247 15.3848 54.8684 15.4066 54.9176 15.4176C54.9831 15.4339 55.0323 15.4776 55.0651 15.5487C55.0979 15.6142 55.1142 15.688 55.1142 15.7699C55.1142 15.8682 55.0869 15.9584 55.0323 16.0403C54.9831 16.1223 54.9039 16.1632 54.7947 16.1632C54.7455 16.1632 54.6909 16.1523 54.6308 16.1305C54.303 15.9939 54.0326 15.8054 53.8195 15.5651C53.6119 15.3247 53.4562 15.098 53.3524 14.8849L53.1803 14.9095L53.1476 15.5077C53.1476 15.6443 53.1284 15.7726 53.0902 15.8928C53.052 16.013 52.9646 16.1059 52.828 16.1714C52.7734 16.1878 52.7187 16.196 52.6641 16.196Z" fill="#FCFCFC"/>
</svg>
