
            <svg width="69" height="70" viewBox="0 0 69 70" fill="none" xmlns="http://www.w3.org/2000/svg">
                <path
                    d="M12.849 54.1883C15.9302 51.9021 19.287 50.0966 22.9192 48.7717C26.5509 47.4473 30.4163 46.7851 34.5156 46.7851C38.6149 46.7851 42.4804 47.4473 46.112 48.7717C49.7442 50.0966 53.101 51.9021 56.1822 54.1883C58.4358 51.7112 60.2214 48.8438 61.5391 45.5862C62.8568 42.3285 63.5156 38.8011 63.5156 35.0039C63.5156 26.9685 60.6911 20.1263 55.0422 14.4773C49.3932 8.82839 42.551 6.00391 34.5156 6.00391C26.4802 6.00391 19.638 8.82839 13.9891 14.4773C8.3401 20.1263 5.51562 26.9685 5.51562 35.0039C5.51562 38.8011 6.17447 42.3285 7.49216 45.5862C8.80984 48.8438 10.5955 51.7112 12.849 54.1883ZM34.5165 37.7227C31.2069 37.7227 28.416 36.5868 26.1437 34.3152C23.8708 32.0429 22.7344 29.2519 22.7344 25.9423C22.7344 22.6327 23.8702 19.8417 26.1419 17.5695C28.4141 15.2966 31.2051 14.1602 34.5147 14.1602C37.8243 14.1602 40.6153 15.296 42.8876 17.5677C45.1604 19.8399 46.2969 22.6309 46.2969 25.9405C46.2969 29.2501 45.161 32.0411 42.8894 34.3133C40.6171 36.5862 37.8262 37.7227 34.5165 37.7227ZM34.5156 69.4414C29.7336 69.4414 25.2477 68.5421 21.0578 66.7435C16.8679 64.9449 13.2233 62.4956 10.1239 59.3956C7.02393 56.2962 4.57464 52.6516 2.77603 48.4617C0.977427 44.2718 0.078125 39.7859 0.078125 35.0039C0.078125 30.2219 0.977427 25.736 2.77603 21.5461C4.57464 17.3562 7.02393 13.7116 10.1239 10.6122C13.2233 7.51221 16.8679 5.06292 21.0578 3.26431C25.2477 1.46571 29.7336 0.566406 34.5156 0.566406C39.2976 0.566406 43.7835 1.46571 47.9734 3.26431C52.1633 5.06292 55.808 7.51221 58.9073 10.6122C62.0073 13.7116 64.4566 17.3562 66.2552 21.5461C68.0538 25.736 68.9531 30.2219 68.9531 35.0039C68.9531 39.7859 68.0538 44.2718 66.2552 48.4617C64.4566 52.6516 62.0073 56.2962 58.9073 59.3956C55.808 62.4956 52.1633 64.9449 47.9734 66.7435C43.7835 68.5421 39.2976 69.4414 34.5156 69.4414ZM34.5156 64.0039C37.7872 64.0039 40.9415 63.4777 43.9787 62.4252C47.0158 61.3722 49.7125 59.9001 52.0688 58.0091C49.7125 56.1869 47.0509 54.7671 44.0838 53.7497C41.1161 52.7317 37.9267 52.2226 34.5156 52.2226C31.1045 52.2226 27.9094 52.7256 24.9302 53.7316C21.9511 54.7381 19.2952 56.1639 16.9625 58.0091C19.3187 59.9001 22.0154 61.3722 25.0526 62.4252C28.0897 63.4777 31.2441 64.0039 34.5156 64.0039ZM34.5156 32.2852C36.3191 32.2852 37.8271 31.6786 39.0396 30.4654C40.2528 29.2528 40.8594 27.7448 40.8594 25.9414C40.8594 24.138 40.2528 22.63 39.0396 21.4174C37.8271 20.2042 36.3191 19.5977 34.5156 19.5977C32.7122 19.5977 31.2042 20.2042 29.9916 21.4174C28.7785 22.63 28.1719 24.138 28.1719 25.9414C28.1719 27.7448 28.7785 29.2528 29.9916 30.4654C31.2042 31.6786 32.7122 32.2852 34.5156 32.2852Z"
                    fill="#265ABF"
                />
            </svg>
      