<?xml version="1.0" standalone="no"?>
<!DOCTYPE svg PUBLIC "-//W3C//DTD SVG 20010904//EN"
 "http://www.w3.org/TR/2001/REC-SVG-20010904/DTD/svg10.dtd">
<svg version="1.0" xmlns="http://www.w3.org/2000/svg"
 width="500.000000pt" height="500.000000pt" viewBox="0 0 500.000000 500.000000"
 preserveAspectRatio="xMidYMid meet">

<g transform="translate(0.000000,500.000000) scale(0.100000,-0.100000)"
fill="#000000" stroke="none">
<path d="M2460 4226 c-25 -7 -148 -72 -275 -146 -126 -73 -293 -169 -370 -213
-472 -269 -680 -394 -735 -444 -90 -81 -85 -19 -88 -938 -2 -567 0 -821 8
-848 23 -78 70 -111 495 -350 88 -49 189 -107 224 -128 34 -22 65 -39 67 -39
3 0 21 -11 42 -24 20 -13 82 -49 137 -81 55 -32 127 -75 160 -95 123 -77 292
-168 339 -184 41 -14 58 -15 105 -5 50 10 184 74 281 134 44 28 745 430 945
543 255 144 269 158 284 283 5 41 8 409 6 819 -2 668 -4 751 -19 798 -29 91
-61 118 -326 272 -235 137 -432 250 -473 273 -26 15 -118 69 -205 120 -86 52
-179 106 -207 122 -27 15 -79 44 -115 64 -128 72 -202 90 -280 67z m171 -74
c30 -16 130 -73 222 -128 92 -54 198 -117 235 -138 37 -21 144 -84 239 -140
94 -56 206 -121 249 -146 208 -121 315 -186 355 -213 52 -36 78 -95 81 -192
l3 -80 -97 -3 -97 -3 -3 48 -3 48 -85 57 c-47 32 -155 96 -240 144 -85 48
-216 123 -290 167 -74 44 -178 104 -230 135 -52 30 -122 72 -155 92 -99 61
-255 140 -275 140 -24 0 -189 -85 -375 -195 -77 -45 -189 -110 -250 -145 -468
-270 -617 -363 -637 -395 -17 -28 -18 -68 -18 -695 0 -423 4 -678 10 -702 7
-23 25 -48 48 -66 35 -28 286 -182 296 -182 3 0 45 -23 93 -51 48 -28 151 -88
228 -132 77 -44 196 -113 265 -155 201 -120 310 -175 339 -169 30 6 190 91
371 197 69 41 159 92 200 115 41 23 119 67 172 97 53 31 152 87 220 124 181
99 284 168 302 203 13 23 16 65 16 191 l0 160 98 0 98 0 -4 -217 c-6 -288 -5
-286 -207 -403 -60 -35 -141 -82 -180 -105 -38 -23 -90 -52 -115 -65 -25 -13
-101 -57 -170 -98 -69 -41 -163 -95 -210 -119 -47 -25 -92 -51 -100 -58 -15
-12 -97 -60 -240 -140 -41 -23 -105 -58 -143 -79 -108 -61 -154 -54 -322 46
-38 23 -141 83 -228 135 -88 52 -193 112 -235 135 -43 22 -84 46 -92 53 -8 7
-82 51 -165 98 -127 72 -342 199 -450 264 -16 10 -43 40 -60 67 l-30 49 -3
781 -2 780 24 51 c28 55 55 79 188 158 48 29 134 80 190 113 57 34 186 110
288 169 102 60 259 151 350 205 228 133 342 198 371 209 46 18 104 12 160 -17z
m-42 -417 c49 -48 15 -145 -51 -145 -104 0 -143 120 -55 164 39 19 74 13 106
-19z m-209 -114 c0 -10 -201 -136 -295 -186 -36 -19 -110 -63 -163 -98 -211
-140 -273 -179 -278 -174 -3 3 14 19 38 36 178 124 323 218 382 248 28 14 86
48 130 76 72 45 177 106 184 107 1 0 2 -4 2 -9z m810 -151 c27 -27 25 -55 -6
-79 -26 -20 -38 -21 -345 -21 -245 0 -318 3 -322 13 -7 21 -19 -121 -12 -144
7 -21 7 -21 19 2 l12 24 327 0 c321 0 327 0 348 -22 16 -15 20 -28 15 -46 -14
-59 -7 -58 -377 -55 l-339 3 0 -21 c0 -12 -3 -36 -6 -53 l-6 -31 420 0 c239 0
431 -4 445 -9 14 -6 28 -19 32 -30 7 -24 -17 -76 -40 -85 -9 -3 -124 -6 -255
-6 -228 0 -239 -1 -245 -20 -8 -26 11 -59 41 -70 15 -6 251 -10 575 -10 l549
0 0 -65 0 -65 -513 0 c-542 0 -537 0 -537 -46 0 -46 14 -49 324 -52 248 -3
294 -6 308 -19 24 -21 23 -68 -2 -93 -19 -19 -33 -20 -300 -20 l-280 0 -16
-25 c-16 -24 -16 -27 1 -45 17 -18 31 -20 172 -20 159 0 184 -5 204 -41 13
-26 -4 -76 -30 -84 -9 -3 -108 -7 -221 -10 -170 -4 -207 -8 -222 -22 -22 -20
-23 -31 -1 -55 14 -16 35 -18 210 -18 180 0 194 -1 213 -20 23 -23 26 -68 6
-96 -14 -18 -32 -19 -425 -22 l-411 -3 0 -93 c0 -60 -4 -97 -12 -105 -10 -11
-10 -13 0 -7 8 5 12 0 12 -13 0 -12 -6 -21 -12 -22 -10 0 -10 -2 0 -6 6 -2 12
-9 12 -14 0 -6 -5 -7 -11 -3 -8 5 -9 2 -1 -12 12 -21 -12 -80 -37 -89 -8 -3
-12 -3 -9 1 10 9 -17 34 -37 34 -9 0 -29 8 -43 18 -15 11 -88 52 -162 92 -74
40 -157 88 -185 105 -115 72 -259 146 -277 142 -10 -3 -18 -4 -18 -2 0 6 404
245 415 245 3 0 84 -43 179 -95 95 -52 179 -95 187 -95 8 0 48 21 89 46 41 25
95 57 120 70 25 14 76 44 114 67 l69 43 1 220 1 220 -59 35 c-51 29 -189 112
-303 181 l-32 19 -114 -68 c-63 -37 -138 -81 -167 -98 -29 -16 -66 -38 -84
-48 l-31 -19 -95 56 c-52 30 -141 81 -197 113 -57 32 -103 61 -103 64 0 3 27
21 60 40 33 19 123 72 200 119 77 47 183 110 237 140 53 30 131 78 173 106 41
28 91 56 112 63 20 7 39 18 42 26 7 20 33 22 349 24 275 1 288 0 307 -19z
m388 -206 c41 -47 24 -126 -33 -150 -32 -13 -39 -13 -70 2 -73 34 -69 148 5
177 28 11 75 -3 98 -29z m-2028 -99 c72 -65 26 -185 -70 -185 -31 0 -44 7 -69
35 -49 56 -38 140 23 166 30 13 94 4 116 -16z m2454 -131 c12 -5 16 -21 16
-65 l0 -59 -210 0 -211 0 -24 26 c-31 34 -31 49 0 79 24 25 25 25 219 25 107
0 201 -3 210 -6z m-2286 -133 c20 -10 62 -35 92 -55 30 -20 58 -36 62 -36 4 0
57 -30 118 -66 l110 -67 0 -161 c0 -88 3 -170 6 -182 4 -15 -1 -23 -22 -33
-15 -6 -50 -27 -78 -45 -28 -19 -80 -49 -116 -68 -36 -19 -94 -54 -129 -77
-35 -22 -70 -41 -78 -41 -11 0 -13 76 -13 425 0 234 2 425 5 425 3 0 22 -9 43
-19z m-224 -27 c11 -28 7 -774 -4 -774 -6 0 -10 126 -10 358 0 196 -3 374 -6
395 -7 37 8 53 20 21z m1016 -143 c0 -133 -5 -165 -22 -155 -6 4 -5 -2 1 -14
8 -16 8 -23 -1 -28 -6 -4 -14 -2 -16 4 -2 7 -11 12 -21 12 -9 0 -26 7 -37 15
-10 8 -22 15 -26 15 -6 0 -73 -117 -73 -130 0 -3 -4 -11 -9 -19 -7 -11 -6 -12
5 -6 12 8 12 6 0 -8 -15 -19 -105 -87 -115 -87 -3 0 -6 80 -6 178 l0 178 53
27 c28 14 97 53 152 86 55 33 103 60 108 60 4 1 7 -57 7 -128z m1510 -216 l0
-65 -120 0 c-115 0 -122 1 -145 25 -29 28 -31 51 -9 83 14 21 22 22 145 22
l129 0 0 -65z m-25 -165 c24 -9 26 -14 23 -62 l-3 -53 -224 -3 c-198 -2 -226
0 -242 14 -23 21 -24 62 -3 92 15 22 20 22 219 22 112 0 215 -4 230 -10z
m-2434 -369 c63 -63 16 -181 -72 -181 -60 0 -118 72 -104 129 20 80 118 109
176 52z m2061 2 c13 -12 18 -31 18 -70 0 -44 -5 -58 -25 -78 -26 -27 -72 -33
-106 -15 -40 22 -61 98 -38 141 24 46 111 59 151 22z m-328 -105 c22 -30 20
-60 -4 -86 -21 -22 -23 -22 -393 -22 l-372 0 -3 43 c-1 23 0 52 3 65 l5 22
375 0 374 0 15 -22z m-1612 -79 c18 -11 62 -39 98 -61 36 -23 126 -77 200
-121 74 -44 126 -76 115 -72 -11 4 -37 14 -58 21 -21 8 -54 25 -75 38 -110 70
-252 156 -289 175 -24 12 -43 26 -43 31 0 15 15 12 52 -11z m1476 -141 c6 -6
12 -27 12 -47 0 -30 -5 -40 -29 -54 -26 -15 -63 -17 -320 -17 l-291 0 0 68 0
67 307 -4 c190 -2 313 -7 321 -13z m-955 -178 c7 -8 -2 -4 -20 8 -17 12 -36
22 -42 22 -6 0 -11 5 -11 11 0 12 56 -19 73 -41z m699 -57 c25 -23 23 -68 -4
-87 -17 -12 -48 -16 -118 -16 l-95 0 -16 60 -16 60 115 0 c93 0 119 -3 134
-17z m-324 -18 c38 -32 48 -72 28 -118 -23 -57 -85 -75 -136 -40 -35 24 -40
33 -40 79 0 46 13 67 55 89 41 21 59 19 93 -10z"/>
<path d="M2372 1684 c10 -10 20 -16 22 -13 3 3 -5 11 -17 18 -21 13 -21 12 -5
-5z"/>
<path d="M2435 1690 c-3 -5 1 -10 10 -10 9 0 13 5 10 10 -3 6 -8 10 -10 10 -2
0 -7 -4 -10 -10z"/>
</g>
</svg>
