<?xml version="1.0" standalone="no"?>
<!DOCTYPE svg PUBLIC "-//W3C//DTD SVG 20010904//EN"
 "http://www.w3.org/TR/2001/REC-SVG-20010904/DTD/svg10.dtd">
<svg version="1.0" xmlns="http://www.w3.org/2000/svg"
 width="661.000000pt" height="377.000000pt" viewBox="0 0 661.000000 377.000000"
 preserveAspectRatio="xMidYMid meet">

<g transform="translate(0.000000,377.000000) scale(0.100000,-0.100000)"
fill="#000000" stroke="none">
<path d="M3805 3062 c-16 -10 -68 -39 -115 -64 -47 -25 -99 -54 -117 -64 -17
-11 -60 -35 -95 -56 -34 -20 -81 -48 -103 -63 -31 -22 -43 -25 -57 -16 -9 6
-57 31 -105 57 -48 25 -109 58 -134 72 -206 119 -218 124 -258 96 -23 -17
-187 -112 -246 -143 -99 -53 -198 -116 -210 -135 -10 -16 -14 -84 -17 -290 -2
-204 -6 -270 -15 -274 -7 -2 -13 -11 -13 -20 0 -8 -7 -24 -17 -34 -15 -17 -14
-18 20 -18 37 0 167 -63 167 -81 0 -5 -53 -9 -117 -9 l-118 0 1 -38 c1 -20 5
-45 9 -56 5 -11 3 -26 -3 -37 -7 -10 -12 -37 -12 -60 l0 -42 105 5 c93 4 107
3 122 -14 13 -15 14 -23 5 -43 -11 -23 -16 -25 -88 -25 -74 0 -76 -1 -61 -18
10 -10 17 -31 17 -46 0 -23 2 -25 19 -16 11 5 78 10 150 10 121 0 131 -1 141
-21 9 -16 8 -26 -5 -45 -15 -23 -19 -24 -141 -24 -69 0 -133 4 -143 10 -17 9
-19 -3 -25 -203 -7 -228 0 -308 31 -338 10 -11 48 -27 83 -35 36 -9 106 -35
155 -56 50 -22 126 -55 170 -73 123 -51 268 -125 418 -215 199 -118 231 -124
342 -59 120 70 566 294 645 324 112 42 200 86 210 104 4 9 10 170 12 359 l3
342 -46 0 c-50 0 -59 9 -59 56 0 24 2 24 86 24 85 0 86 0 80 23 -3 12 -6 30
-6 40 0 15 -14 17 -137 18 -115 0 -269 14 -210 18 16 1 56 19 67 31 18 19 72
30 140 30 l80 0 2 278 c4 413 2 506 -9 527 -6 10 -64 48 -129 85 -66 37 -135
76 -154 87 -165 95 -270 153 -277 153 -4 0 -21 -8 -38 -18z m86 -101 c13 -10
42 -28 64 -40 22 -12 47 -25 55 -31 8 -5 49 -28 90 -51 41 -23 93 -53 115 -65
22 -13 55 -31 73 -41 l32 -17 0 -263 0 -263 -51 -25 c-27 -14 -78 -43 -112
-64 -34 -20 -69 -41 -77 -45 -8 -4 -44 -24 -80 -46 -36 -21 -83 -49 -105 -60
l-40 -22 -55 26 c-30 15 -80 41 -110 60 -30 19 -77 46 -105 61 -27 14 -85 47
-127 72 l-78 46 0 262 0 263 28 11 c15 6 52 27 82 46 30 19 75 46 100 60 25
14 52 30 60 35 62 41 188 109 201 110 9 0 27 -8 40 -19z m-962 -53 c20 -13 48
-30 63 -38 80 -46 127 -73 163 -96 22 -13 59 -34 83 -45 l42 -20 -2 -256 -3
-257 -135 -82 c-167 -103 -258 -154 -271 -154 -10 0 -165 85 -278 152 -25 15
-67 38 -93 50 l-48 22 0 260 0 261 82 45 c45 25 100 56 122 68 23 13 75 43
116 67 86 50 109 53 159 23z m437 -846 c-3 -5 8 -9 24 -10 16 0 37 -5 47 -11
14 -8 -1 -11 -59 -10 -43 1 -78 5 -78 8 0 4 10 7 21 8 12 1 27 7 32 12 13 13
20 14 13 3z m-688 -145 c28 -16 52 -33 52 -38 0 -6 -73 -8 -176 -7 -156 3
-178 5 -188 21 -8 12 -8 22 0 35 9 14 31 18 120 22 125 6 122 6 192 -33z m932
8 c25 -13 53 -26 63 -29 9 -3 17 -10 17 -15 0 -15 -592 -9 -597 6 -3 7 -12 9
-21 6 -9 -3 1 8 23 25 l40 31 215 0 c205 -1 217 -2 260 -24z m577 -147 c17
-14 16 -28 -4 -50 -15 -17 -53 -18 -796 -18 -712 0 -782 1 -799 17 -22 19 -23
31 -4 52 13 14 95 16 802 13 541 -2 792 -6 801 -14z m-260 -145 c25 -5 36 -27
28 -54 -6 -18 -30 -19 -598 -19 -590 0 -592 0 -605 21 -11 18 -11 24 5 41 18
20 29 20 583 18 311 -2 575 -5 587 -7z m413 -18 c6 -8 9 -23 5 -35 -6 -18 -14
-20 -110 -20 -88 0 -105 3 -114 17 -6 11 -6 24 0 35 8 15 24 18 108 18 74 0
102 -4 111 -15z m-900 -426 c0 -188 -2 -210 -16 -205 -9 3 -22 6 -30 6 -8 0
-14 7 -14 15 0 14 -3 14 -24 0 -25 -17 -79 -22 -111 -11 -52 17 -97 126 -81
192 17 66 112 117 167 89 15 -8 30 -15 34 -15 3 0 5 24 5 54 0 73 6 86 41 86
l29 0 0 -211z m568 202 c8 -4 12 -19 10 -32 -2 -19 -10 -25 -35 -27 -27 -3
-33 1 -39 22 -3 14 -3 30 1 35 7 13 45 14 63 2z m-1425 -78 c32 -43 76 -102
97 -132 l39 -54 3 129 3 129 38 3 37 3 0 -205 0 -206 -32 0 c-40 0 -46 5 -79
55 -146 229 -139 225 -139 71 0 -113 -2 -127 -16 -122 -9 3 -24 6 -35 6 -18 0
-19 10 -19 200 l0 200 23 0 c16 0 38 -21 80 -77z m463 -45 c66 -31 86 -67 81
-146 -4 -52 -10 -69 -33 -93 -75 -79 -199 -56 -245 45 -24 53 -24 88 1 136 20
39 41 56 89 71 42 12 59 10 107 -13z m652 -6 c38 -19 75 -88 70 -130 l-3 -27
-102 -3 c-57 -1 -103 -6 -103 -10 0 -4 7 -15 14 -24 15 -21 95 -25 113 -7 8 8
18 6 38 -7 l27 -18 -25 -22 c-55 -47 -159 -39 -212 16 -26 27 -30 39 -33 104
-4 70 -3 74 27 103 51 51 118 60 189 25z m565 1 c26 -13 26 -15 11 -38 -15
-23 -17 -23 -51 -8 -40 16 -83 10 -83 -12 0 -19 36 -41 80 -50 71 -14 102 -79
65 -132 -32 -46 -139 -52 -205 -12 l-32 20 23 23 c21 22 25 23 43 10 29 -20
116 -19 116 1 0 16 -25 29 -73 40 -44 9 -90 57 -90 93 0 78 103 112 196 65z
m-249 -20 c11 -71 7 -252 -8 -286 -21 -51 -48 -69 -97 -65 -38 3 -44 6 -41 23
2 11 11 25 20 30 8 6 27 20 40 33 23 22 24 27 19 129 -3 59 -3 122 0 140 5 28
10 33 33 33 24 0 28 -5 34 -37z m-146 -192 c8 -4 12 -19 10 -32 -4 -34 -61
-40 -78 -9 -20 38 28 67 68 41z"/>
<path d="M3812 2834 c-16 -11 -22 -25 -22 -55 0 -28 -8 -51 -26 -75 -25 -32
-29 -34 -89 -34 -41 0 -74 6 -93 17 -28 16 -30 16 -60 -6 -21 -15 -32 -31 -32
-47 0 -33 17 -64 35 -64 9 0 31 -25 50 -55 l36 -55 -38 -65 c-20 -36 -45 -68
-55 -71 -19 -6 -32 -41 -26 -70 2 -10 15 -25 30 -33 22 -13 33 -13 61 -3 18 7
62 12 98 12 61 0 65 -2 87 -33 14 -21 22 -48 22 -75 0 -31 5 -45 22 -56 51
-36 115 -1 104 56 -4 18 -1 37 6 45 7 9 17 25 23 37 9 18 21 21 79 24 38 2 82
-2 99 -7 42 -15 74 -4 86 29 12 37 5 65 -22 79 -22 12 -87 114 -87 135 0 24
55 95 77 101 51 12 55 90 7 122 -25 16 -28 16 -56 0 -20 -11 -52 -17 -97 -17
l-67 0 -27 41 c-19 29 -25 48 -21 65 5 18 0 32 -17 50 -26 28 -55 31 -87 8z
m74 -145 c16 -32 16 -32 -8 -26 -12 4 -33 7 -46 7 -22 0 -22 1 -6 25 22 33 40
31 60 -6z m-186 -88 c0 -12 -43 -74 -55 -78 -5 -1 -17 10 -26 25 -22 39 -6 62
43 62 21 0 38 -4 38 -9z m261 -34 c13 -22 29 -47 34 -57 6 -10 16 -25 23 -33
11 -13 5 -30 -35 -101 l-48 -86 -78 0 c-70 0 -81 3 -98 23 -10 12 -18 26 -19
31 0 5 -14 31 -32 59 l-31 49 18 34 c10 19 21 34 24 34 4 0 17 20 30 44 l24
43 82 0 81 0 25 -40z m141 26 c2 -10 -5 -30 -16 -45 -20 -29 -36 -36 -36 -17
0 6 -9 22 -20 36 -29 37 -25 43 24 43 34 0 45 -4 48 -17z m-435 -236 c42 -61
41 -67 -10 -67 -60 0 -73 20 -43 67 11 18 23 33 26 33 3 0 15 -15 27 -33z
m425 2 c11 -15 15 -32 12 -46 -6 -20 -13 -23 -56 -23 -27 0 -48 3 -46 8 16 35
55 91 62 89 6 -2 18 -14 28 -28z m-202 -135 c0 -14 -22 -44 -33 -44 -7 0 -20
12 -30 25 l-18 25 41 0 c22 0 40 -3 40 -6z"/>
<path d="M3795 2504 c-50 -54 -22 -131 52 -141 36 -5 45 -2 67 22 36 39 36 96
0 124 -38 30 -89 28 -119 -5z"/>
<path d="M3004 2572 c-44 -4 -94 -53 -94 -92 0 -39 48 -86 105 -102 47 -13 70
-31 61 -47 -11 -17 -79 -13 -105 6 -23 16 -25 15 -48 -11 -27 -32 -24 -41 20
-60 53 -22 106 -28 142 -16 42 14 85 63 85 97 0 32 -45 75 -96 92 -22 7 -48
19 -59 27 -18 13 -18 15 -2 31 15 15 23 16 59 5 42 -11 44 -11 72 20 l29 32
-29 7 c-42 10 -104 15 -140 11z"/>
<path d="M2580 2410 l0 -160 40 0 40 0 0 105 0 105 33 20 c40 25 48 25 75 0
20 -19 22 -31 22 -125 l0 -105 41 0 41 0 -4 131 -3 131 -33 29 c-42 38 -113
41 -149 7 l-23 -21 0 21 c0 19 -6 22 -40 22 l-40 0 0 -160z"/>
<path d="M3268 1206 c-23 -17 -38 -59 -31 -87 8 -33 42 -69 65 -69 61 0 95
120 43 154 -29 19 -54 20 -77 2z"/>
<path d="M2945 1208 c-29 -16 -35 -28 -35 -71 0 -46 36 -87 75 -87 68 0 103
106 49 149 -30 23 -59 26 -89 9z"/>
<path d="M3572 1200 c-12 -12 -22 -25 -22 -30 0 -6 32 -10 70 -10 76 0 91 14
48 44 -31 22 -70 20 -96 -4z"/>
</g>
</svg>
