<svg width="1267" height="310" viewBox="0 0 1267 310" fill="none" xmlns="http://www.w3.org/2000/svg">
<path d="M648.416 98.9908C648.416 64.0869 676.693 35.792 711.571 35.792H1172.87C1207.75 35.792 1236.02 64.0869 1236.02 98.9908V203.406C1236.02 238.31 1207.75 266.605 1172.87 266.605H711.571C676.693 266.605 648.416 238.31 648.416 203.406V98.9908Z" fill="#265ABF"/>
<path d="M602.559 60.5208C597.07 60.5208 592.492 58.8722 588.833 55.5747C585.354 52.0944 583.613 47.7894 583.613 42.6605C583.613 37.5312 585.354 33.318 588.833 30.0206C592.492 26.5401 597.07 24.7998 602.559 24.7998C608.052 24.7998 612.537 26.5401 616.016 30.0206C619.678 33.318 621.509 37.5312 621.509 42.6605C621.509 47.7894 619.678 52.0944 616.016 55.5747C612.537 58.8722 608.052 60.5208 602.559 60.5208ZM588.009 222.64V86.35H617.113V222.64H588.009Z" fill="#265ABF"/>
<path d="M519.16 225.936C501.952 225.936 487.767 221.723 476.6 213.296C465.435 204.87 459.026 193.695 457.378 179.774H486.761C488.223 186.002 491.702 191.406 497.194 195.985C502.686 200.382 509.917 202.58 518.885 202.58C527.673 202.58 534.079 200.748 538.107 197.084C542.134 193.421 544.147 189.208 544.147 184.445C544.147 177.484 541.31 172.813 535.635 170.431C530.145 167.867 522.457 165.577 512.571 163.562C504.883 161.913 497.194 159.715 489.505 156.967C481.999 154.219 475.686 150.372 470.559 145.426C465.618 140.297 463.146 133.428 463.146 124.818C463.146 112.911 467.722 103.019 476.875 95.1421C486.026 87.0818 498.842 83.0518 515.316 83.0518C530.511 83.0518 542.775 86.7156 552.112 94.0428C561.628 101.37 567.214 111.72 568.858 125.093H540.851C539.937 119.231 537.193 114.651 532.614 111.354C528.222 108.057 522.274 106.408 514.768 106.408C507.445 106.408 501.769 107.965 497.742 111.079C493.715 114.01 491.702 117.857 491.702 122.62C491.702 127.383 494.449 131.138 499.939 133.886C505.614 136.633 513.027 139.106 522.181 141.304C531.335 143.32 539.755 145.701 547.443 148.449C555.315 151.013 561.628 154.86 566.39 159.989C571.148 165.119 573.527 172.629 573.527 182.521C573.71 194.978 568.858 205.328 558.973 213.571C549.274 221.814 536 225.936 519.16 225.936Z" fill="#265ABF"/>
<path d="M308.38 283.09V86.3492H334.464L337.484 107.507C341.88 101.096 347.921 95.4167 355.609 90.4707C363.295 85.5249 373.18 83.0518 385.261 83.0518C398.443 83.0518 410.065 86.166 420.133 92.3942C430.204 98.6224 438.073 107.141 443.748 117.948C449.606 128.756 452.536 141.03 452.536 154.769C452.536 168.508 449.606 180.781 443.748 191.589C438.073 202.214 430.204 210.64 420.133 216.869C410.065 222.914 398.353 225.936 384.989 225.936C374.37 225.936 364.943 223.83 356.706 219.616C348.652 215.403 342.245 209.449 337.484 201.756V283.09H308.38ZM380.045 200.656C392.495 200.656 402.745 196.443 410.8 188.017C418.854 179.407 422.881 168.233 422.881 154.494C422.881 145.518 421.05 137.549 417.389 130.588C413.727 123.627 408.693 118.223 402.287 114.376C395.881 110.346 388.468 108.331 380.045 108.331C367.598 108.331 357.347 112.636 349.293 121.246C341.421 129.856 337.484 140.938 337.484 154.494C337.484 168.233 341.421 179.407 349.293 188.017C357.347 196.443 367.598 200.656 380.045 200.656Z" fill="#265ABF"/>
<path d="M220.35 225.936C208.818 225.936 199.299 224.012 191.794 220.166C184.289 216.319 178.705 211.281 175.045 205.053C171.383 198.641 169.553 191.68 169.553 184.17C169.553 170.98 174.678 160.539 184.929 152.845C195.181 145.152 209.825 141.304 228.863 141.304H264.558V138.832C264.558 128.207 261.629 120.238 255.772 114.926C250.097 109.613 242.683 106.957 233.53 106.957C225.476 106.957 218.428 108.972 212.388 113.002C206.53 116.85 202.96 122.62 201.679 130.313H172.573C173.488 120.422 176.783 111.995 182.458 105.034C188.316 97.8899 195.638 92.4857 204.425 88.8221C213.394 84.9753 223.188 83.0518 233.805 83.0518C252.843 83.0518 267.579 88.0893 278.013 98.1646C288.447 108.057 293.664 121.612 293.664 138.832V222.639H268.402L265.931 199.283C262.087 206.793 256.504 213.113 249.182 218.242C241.859 223.371 232.249 225.936 220.35 225.936ZM226.117 202.305C233.988 202.305 240.578 200.473 245.887 196.81C251.378 192.963 255.589 187.925 258.518 181.697C261.629 175.469 263.551 168.599 264.284 161.089H231.883C220.35 161.089 212.113 163.104 207.171 167.134C202.411 171.164 200.031 176.201 200.031 182.246C200.031 188.475 202.319 193.421 206.896 197.084C211.655 200.565 218.062 202.305 226.117 202.305Z" fill="#265ABF"/>
<path d="M97.3493 225.936C83.9863 225.936 71.9963 222.914 61.3789 216.869C50.9449 210.823 42.7072 202.488 36.6665 191.864C30.8088 181.056 27.8799 168.599 27.8799 154.494C27.8799 140.389 30.8088 128.024 36.6665 117.399C42.7072 106.591 50.9449 98.1646 61.3789 92.1196C71.9963 86.0743 83.9863 83.0518 97.3493 83.0518C114.19 83.0518 128.285 87.4482 139.635 96.241C151.167 105.034 158.581 116.941 161.876 131.962H131.397C129.567 124.452 125.54 118.59 119.316 114.376C113.092 110.163 105.77 108.057 97.3493 108.057C90.2101 108.057 83.6201 109.888 77.5794 113.552C71.5384 117.033 66.6876 122.253 63.0263 129.214C59.3653 135.992 57.5348 144.419 57.5348 154.494C57.5348 164.569 59.3653 173.087 63.0263 180.048C66.6876 186.826 71.5384 192.047 77.5794 195.71C83.6201 199.374 90.2101 201.206 97.3493 201.206C105.77 201.206 113.092 199.099 119.316 194.886C125.54 190.673 129.567 184.719 131.397 177.026H161.876C158.764 191.68 151.442 203.496 139.909 212.472C128.377 221.448 114.19 225.936 97.3493 225.936Z" fill="#265ABF"/>
<path d="M1127.66 225.943C1114.49 225.943 1102.77 222.92 1092.52 216.875C1082.27 210.83 1074.21 202.404 1068.36 191.595C1062.68 180.788 1059.84 168.239 1059.84 153.951C1059.84 139.296 1062.68 126.565 1068.36 115.757C1074.21 104.766 1082.27 96.2478 1092.52 90.2028C1102.77 83.9743 1114.67 80.8604 1128.22 80.8604C1141.76 80.8604 1153.38 83.8829 1163.09 89.9279C1172.79 95.9732 1180.29 104.033 1185.6 114.108C1190.91 124 1193.57 134.991 1193.57 147.082C1193.57 148.913 1193.47 150.928 1193.29 153.127C1193.29 155.142 1193.2 157.432 1193.02 159.996H1079.89V140.487H1166.11C1165.56 128.946 1161.71 119.97 1154.57 113.559C1147.43 106.964 1138.56 103.667 1127.94 103.667C1120.43 103.667 1113.57 105.407 1107.35 108.887C1101.12 112.185 1096.09 117.131 1092.24 123.726C1088.58 130.137 1086.75 138.289 1086.75 148.181V155.874C1086.75 166.133 1088.58 174.834 1092.24 181.978C1096.09 188.939 1101.12 194.252 1107.35 197.915C1113.57 201.396 1120.34 203.136 1127.66 203.136C1136.45 203.136 1143.68 201.213 1149.36 197.366C1155.03 193.519 1159.24 188.298 1161.99 181.704H1189.45C1187.07 190.13 1183.04 197.732 1177.37 204.51C1171.69 211.105 1164.64 216.326 1156.22 220.172C1147.99 224.019 1138.47 225.943 1127.66 225.943Z" fill="white"/>
<path d="M983.728 222.645V84.1575H1008.44L1010.91 110.261C1014.02 104.033 1018.05 98.8125 1022.99 94.5992C1027.93 90.2028 1033.7 86.8139 1040.29 84.4325C1047.06 82.0511 1054.75 80.8604 1063.36 80.8604V109.987H1053.47C1047.8 109.987 1042.4 110.72 1037.27 112.185C1032.14 113.467 1027.57 115.757 1023.54 119.054C1019.7 122.352 1016.68 126.84 1014.48 132.518C1012.28 138.197 1011.18 145.25 1011.18 153.676V222.645H983.728Z" fill="white"/>
<path d="M901.726 225.943C888.731 225.943 877.015 222.92 866.581 216.875C856.331 210.83 848.183 202.404 842.143 191.595C836.285 180.604 833.357 167.965 833.357 153.676C833.357 139.022 836.378 126.29 842.419 115.482C848.459 104.491 856.696 95.9732 867.13 89.9279C877.563 83.8829 889.279 80.8604 902.277 80.8604C915.455 80.8604 927.171 83.8829 937.422 89.9279C947.676 95.9732 955.73 104.4 961.588 115.207C967.628 126.015 970.649 138.747 970.649 153.402C970.649 168.056 967.628 180.788 961.588 191.595C955.73 202.404 947.583 210.83 937.149 216.875C926.716 222.92 914.907 225.943 901.726 225.943ZM901.726 202.312C909.232 202.312 916.007 200.48 922.047 196.816C928.271 193.153 933.212 187.749 936.874 180.604C940.718 173.277 942.639 164.209 942.639 153.402C942.639 142.594 940.811 133.618 937.149 126.473C933.488 119.146 928.544 113.65 922.32 109.987C916.279 106.323 909.597 104.491 902.277 104.491C894.954 104.491 888.182 106.323 881.959 109.987C875.732 113.65 870.698 119.146 866.854 126.473C863.195 133.618 861.365 142.594 861.365 153.402C861.365 164.209 863.195 173.277 866.854 180.604C870.698 187.749 875.642 193.153 881.683 196.816C887.907 200.48 894.589 202.312 901.726 202.312Z" fill="white"/>
<path d="M761.684 225.943C748.32 225.943 736.421 222.92 725.988 216.875C715.554 210.647 707.314 202.129 701.274 191.321C695.416 180.513 692.488 167.965 692.488 153.676C692.488 139.205 695.416 126.565 701.274 115.757C707.314 104.766 715.554 96.2478 725.988 90.2028C736.421 83.9743 748.32 80.8604 761.684 80.8604C778.523 80.8604 792.618 85.2568 803.969 94.0496C815.319 102.842 822.549 114.75 825.66 129.771H797.104C795.273 121.711 791.063 115.482 784.474 111.086C778.065 106.689 770.379 104.491 761.408 104.491C754.085 104.491 747.313 106.415 741.09 110.261C734.866 113.925 729.832 119.421 725.988 126.748C722.326 133.892 720.495 142.777 720.495 153.402C720.495 161.278 721.595 168.331 723.792 174.559C725.988 180.604 728.915 185.734 732.577 189.947C736.421 194.16 740.814 197.366 745.758 199.564C750.699 201.579 755.916 202.587 761.408 202.587C767.449 202.587 772.848 201.671 777.61 199.839C782.551 197.824 786.671 194.893 789.964 191.046C793.442 187.199 795.822 182.619 797.104 177.307H825.66C822.549 191.962 815.319 203.778 803.969 212.754C792.618 221.546 778.523 225.943 761.684 225.943Z" fill="white"/>
</svg>
