<svg width="393" height="317" viewBox="0 0 393 317" fill="none" xmlns="http://www.w3.org/2000/svg">
<path d="M130.173 237.324C115.839 237.324 103.075 234.083 91.8825 227.602C80.6898 220.924 71.8535 211.791 65.3736 200.203C59.09 188.615 55.9482 175.162 55.9482 159.843C55.9482 144.328 59.09 130.776 65.3736 119.188C71.8535 107.404 80.6898 98.2712 91.8825 91.79C103.075 85.1122 115.839 81.7734 130.173 81.7734C148.238 81.7734 163.358 86.4871 175.533 95.9143C187.707 105.342 195.464 118.108 198.801 134.213H168.169C166.206 125.571 161.689 118.894 154.62 114.18C147.747 109.466 139.5 107.109 129.879 107.109C122.024 107.109 114.759 109.172 108.082 113.296C101.406 117.224 96.006 123.116 91.8825 130.972C87.9552 138.632 85.9917 148.157 85.9917 159.548C85.9917 167.995 87.1697 175.555 89.5261 182.233C91.8825 188.714 95.0243 194.214 98.9515 198.731C103.075 203.248 107.788 206.684 113.09 209.041C118.391 211.202 123.988 212.283 129.879 212.283C136.359 212.283 142.151 211.3 147.257 209.336C152.558 207.176 156.977 204.034 160.51 199.909C164.242 195.784 166.795 190.874 168.169 185.179H198.801C195.464 200.891 187.707 213.559 175.533 223.183C163.358 232.61 148.238 237.324 130.173 237.324Z" fill="#265ABF"/>
<path d="M274.176 237.324C259.841 237.324 247.078 234.083 235.885 227.602C224.693 220.924 215.857 211.791 209.377 200.203C203.092 188.615 199.951 175.162 199.951 159.843C199.951 144.328 203.092 130.776 209.377 119.188C215.857 107.404 224.693 98.2712 235.885 91.79C247.078 85.1122 259.841 81.7734 274.176 81.7734C292.241 81.7734 307.361 86.4871 319.536 95.9143C331.709 105.342 339.466 118.108 342.804 134.213H312.172C310.208 125.571 305.692 118.894 298.623 114.18C291.75 109.466 283.503 107.109 273.881 107.109C266.026 107.109 258.762 109.172 252.085 113.296C245.409 117.224 240.009 123.116 235.885 130.972C231.958 138.632 229.993 148.157 229.993 159.548C229.993 167.995 231.172 175.555 233.529 182.233C235.885 188.714 239.026 194.214 242.955 198.731C247.078 203.248 251.791 206.684 257.091 209.041C262.394 211.202 267.991 212.283 273.881 212.283C280.361 212.283 286.154 211.3 291.259 209.336C296.561 207.176 300.979 204.034 304.513 199.909C308.245 195.784 310.798 190.874 312.172 185.179H342.804C339.466 200.891 331.709 213.559 319.536 223.183C307.361 232.61 292.241 237.324 274.176 237.324Z" fill="#265ABF"/>
<path fill-rule="evenodd" clip-rule="evenodd" d="M309.013 34.1117H83.196C56.0841 34.1117 34.1054 56.0949 34.1054 83.2123V233.787C34.1054 260.905 56.0841 282.887 83.196 282.887H309.013C336.125 282.887 358.103 260.905 358.103 233.787V83.2123C358.103 56.0949 336.125 34.1117 309.013 34.1117ZM83.196 7.9248C41.6244 7.9248 7.92383 41.6322 7.92383 83.2123V233.787C7.92383 275.368 41.6244 309.075 83.196 309.075H309.013C350.585 309.075 384.285 275.368 384.285 233.787V83.2123C384.285 41.6322 350.585 7.9248 309.013 7.9248H83.196Z" fill="#265ABF"/>
</svg>
