<svg width="89" height="22" viewBox="0 0 89 22" fill="none" xmlns="http://www.w3.org/2000/svg">
<path d="M45.5469 7.02511C45.5469 4.54807 47.5332 2.54004 49.9832 2.54004H82.387C84.837 2.54004 86.8231 4.54807 86.8231 7.02511V14.4352C86.8231 16.9123 84.837 18.9203 82.387 18.9203H49.9832C47.5332 18.9203 45.5469 16.9123 45.5469 14.4352V7.02511Z" fill="white"/>
<path d="M42.327 4.2948C41.9414 4.2948 41.6197 4.17781 41.3628 3.94379C41.1184 3.6968 40.9961 3.39129 40.9961 3.0273C40.9961 2.66328 41.1184 2.36428 41.3628 2.13027C41.6197 1.88327 41.9414 1.75977 42.327 1.75977C42.7128 1.75977 43.0279 1.88327 43.2722 2.13027C43.5294 2.36428 43.658 2.66328 43.658 3.0273C43.658 3.39129 43.5294 3.6968 43.2722 3.94379C43.0279 4.17781 42.7128 4.2948 42.327 4.2948ZM41.3049 15.8V6.12784H43.3493V15.8H41.3049Z" fill="white"/>
<path d="M36.4688 16.0347C35.26 16.0347 34.2636 15.7357 33.4791 15.1377C32.6949 14.5397 32.2447 13.7467 32.1289 12.7587H34.1929C34.2956 13.2007 34.54 13.5842 34.9258 13.9092C35.3116 14.2212 35.8195 14.3772 36.4494 14.3772C37.0668 14.3772 37.5168 14.2472 37.7997 13.9872C38.0825 13.7272 38.224 13.4282 38.224 13.0902C38.224 12.5961 38.0247 12.2647 37.626 12.0956C37.2404 11.9136 36.7003 11.7511 36.006 11.6081C35.4659 11.4911 34.9258 11.3351 34.3857 11.1401C33.8584 10.9451 33.4149 10.6721 33.0548 10.3211C32.7077 9.9571 32.5341 9.4696 32.5341 8.85859C32.5341 8.01357 32.8555 7.31155 33.4985 6.75255C34.1413 6.18053 35.0415 5.89453 36.1988 5.89453C37.2661 5.89453 38.1276 6.15455 38.7835 6.67454C39.4519 7.19456 39.8443 7.92907 39.9598 8.87808H37.9925C37.9283 8.46209 37.7355 8.13708 37.4139 7.90306C37.1053 7.66907 36.6875 7.55205 36.1602 7.55205C35.6458 7.55205 35.2472 7.66256 34.9643 7.88357C34.6814 8.09156 34.54 8.36458 34.54 8.70259C34.54 9.0406 34.733 9.30708 35.1186 9.50209C35.5172 9.6971 36.0379 9.87259 36.681 10.0286C37.324 10.1716 37.9154 10.3406 38.4555 10.5356C39.0085 10.7176 39.4519 10.9906 39.7864 11.3546C40.1206 11.7186 40.2877 12.2517 40.2877 12.9536C40.3006 13.8377 39.9598 14.5722 39.2654 15.1572C38.5841 15.7422 37.6517 16.0347 36.4688 16.0347Z" fill="white"/>
<path d="M21.6602 20.0898V6.12757H23.4924L23.7046 7.62909C24.0133 7.17409 24.4377 6.77107 24.9778 6.42006C25.5176 6.06907 26.212 5.89355 27.0607 5.89355C27.9866 5.89355 28.803 6.11457 29.5102 6.55657C30.2177 6.99857 30.7704 7.60309 31.169 8.37009C31.5805 9.1371 31.7864 10.0081 31.7864 10.9831C31.7864 11.9582 31.5805 12.8292 31.169 13.5962C30.7704 14.3502 30.2177 14.9482 29.5102 15.3902C28.803 15.8192 27.9803 16.0337 27.0415 16.0337C26.2956 16.0337 25.6334 15.8842 25.0548 15.5852C24.489 15.2862 24.039 14.8637 23.7046 14.3177V20.0898H21.6602ZM26.6942 14.2397C27.5688 14.2397 28.2888 13.9407 28.8546 13.3427C29.4204 12.7317 29.7033 11.9387 29.7033 10.9637C29.7033 10.3266 29.5747 9.76113 29.3174 9.26712C29.0602 8.77311 28.7066 8.38961 28.2566 8.11659C27.8066 7.83059 27.2859 7.68759 26.6942 7.68759C25.8199 7.68759 25.0998 7.9931 24.5341 8.60411C23.9811 9.21511 23.7046 10.0016 23.7046 10.9637C23.7046 11.9387 23.9811 12.7317 24.5341 13.3427C25.0998 13.9407 25.8199 14.2397 26.6942 14.2397Z" fill="white"/>
<path d="M15.4784 16.0337C14.6683 16.0337 13.9997 15.8972 13.4725 15.6242C12.9453 15.3512 12.5531 14.9937 12.2959 14.5517C12.0387 14.0967 11.9102 13.6027 11.9102 13.0697C11.9102 12.1337 12.2702 11.3927 12.9903 10.8466C13.7104 10.3006 14.7391 10.0276 16.0764 10.0276H18.5838V9.85212C18.5838 9.09812 18.378 8.53261 17.9666 8.15559C17.5679 7.77858 17.0472 7.59008 16.4042 7.59008C15.8385 7.59008 15.3434 7.73308 14.9191 8.01908C14.5076 8.2921 14.2569 8.70161 14.1668 9.24761H12.1223C12.1866 8.54561 12.4181 7.94758 12.8167 7.45357C13.2282 6.94658 13.7425 6.56306 14.3597 6.30306C14.9898 6.03006 15.6777 5.89355 16.4235 5.89355C17.7608 5.89355 18.7959 6.25105 19.5289 6.96608C20.2618 7.6681 20.6283 8.63011 20.6283 9.85212V15.7997H18.8538L18.6802 14.1422C18.4102 14.6752 18.018 15.1237 17.5037 15.4877C16.9893 15.8517 16.3142 16.0337 15.4784 16.0337ZM15.8835 14.3567C16.4364 14.3567 16.8993 14.2267 17.2722 13.9667C17.658 13.6937 17.9537 13.3362 18.1595 12.8942C18.378 12.4522 18.5131 11.9647 18.5645 11.4317H16.2885C15.4784 11.4317 14.8998 11.5747 14.5526 11.8607C14.2183 12.1467 14.0511 12.5042 14.0511 12.9332C14.0511 13.3752 14.2118 13.7262 14.5333 13.9862C14.8676 14.2332 15.3177 14.3567 15.8835 14.3567Z" fill="white"/>
<path d="M6.84079 16.0347C5.90211 16.0347 5.05988 15.8202 4.31406 15.3912C3.58113 14.9622 3.00248 14.3707 2.57815 13.6167C2.16668 12.8497 1.96094 11.9656 1.96094 10.9646C1.96094 9.96361 2.16668 9.08609 2.57815 8.33207C3.00248 7.56506 3.58113 6.96705 4.31406 6.53805C5.05988 6.10903 5.90211 5.89453 6.84079 5.89453C8.02377 5.89453 9.01389 6.20654 9.81113 6.83054C10.6212 7.45455 11.142 8.29957 11.3735 9.3656H9.2325C9.10392 8.83259 8.82101 8.41657 8.38382 8.11756C7.94663 7.81856 7.43228 7.66907 6.84079 7.66907C6.3393 7.66907 5.87639 7.79907 5.45207 8.05907C5.02772 8.30608 4.68697 8.67659 4.42978 9.1706C4.17262 9.6516 4.04404 10.2496 4.04404 10.9646C4.04404 11.6796 4.17262 12.2841 4.42978 12.7782C4.68697 13.2592 5.02772 13.6297 5.45207 13.8897C5.87639 14.1497 6.3393 14.2797 6.84079 14.2797C7.43228 14.2797 7.94663 14.1302 8.38382 13.8312C8.82101 13.5322 9.10392 13.1097 9.2325 12.5637H11.3735C11.1549 13.6037 10.6405 14.4422 9.83041 15.0792C9.02034 15.7162 8.02377 16.0347 6.84079 16.0347Z" fill="white"/>
<path d="M79.2132 16.0345C78.2875 16.0345 77.4646 15.82 76.7445 15.3909C76.0245 14.9619 75.4587 14.3639 75.0472 13.5969C74.6485 12.8299 74.4492 11.9394 74.4492 10.9254C74.4492 9.88535 74.6485 8.98183 75.0472 8.21482C75.4587 7.43481 76.0245 6.8303 76.7445 6.4013C77.4646 5.95927 78.3004 5.73828 79.252 5.73828C80.2035 5.73828 81.02 5.95278 81.7015 6.38178C82.3831 6.8108 82.9101 7.3828 83.2831 8.09783C83.656 8.79982 83.8425 9.57983 83.8425 10.4379C83.8425 10.5679 83.836 10.7109 83.8232 10.8669C83.8232 11.0099 83.8166 11.1724 83.8038 11.3544H75.8571V9.96985H81.9137C81.8752 9.15083 81.6051 8.51382 81.1036 8.05882C80.602 7.59081 79.9783 7.3568 79.2326 7.3568C78.7053 7.3568 78.2231 7.48031 77.786 7.7273C77.3488 7.96132 76.9952 8.31233 76.7251 8.78033C76.4679 9.23534 76.3393 9.81385 76.3393 10.5159V11.0619C76.3393 11.7899 76.4679 12.4074 76.7251 12.9144C76.9952 13.4084 77.3488 13.7854 77.786 14.0454C78.2231 14.2924 78.699 14.4159 79.2132 14.4159C79.8306 14.4159 80.3385 14.2794 80.7371 14.0064C81.1358 13.7334 81.4315 13.3629 81.6243 12.8949H83.5531C83.386 13.4929 83.1031 14.0324 82.7045 14.5134C82.3058 14.9814 81.8108 15.352 81.2193 15.6249C80.6407 15.8979 79.972 16.0345 79.2132 16.0345Z" fill="#26262C"/>
<path d="M69.1017 15.8007V5.97252H70.8375L71.0112 7.82505C71.2296 7.38305 71.5125 7.01255 71.8598 6.71354C72.2069 6.40154 72.6121 6.16104 73.0749 5.99203C73.5506 5.82303 74.0907 5.73853 74.6952 5.73853V7.80556H74.0008C73.6022 7.80556 73.2229 7.85757 72.8628 7.96156C72.5026 8.05255 72.1812 8.21507 71.8983 8.44906C71.6283 8.68307 71.4161 9.00159 71.2618 9.40458C71.1076 9.8076 71.0303 10.3081 71.0303 10.9061V15.8007H69.1017Z" fill="#26262C"/>
<path d="M63.3415 16.0347C62.4286 16.0347 61.6056 15.8202 60.8727 15.3912C60.1527 14.9622 59.5804 14.3642 59.1561 13.5971C58.7446 12.8171 58.5389 11.9201 58.5389 10.9061C58.5389 9.8661 58.7511 8.96258 59.1754 8.19557C59.5998 7.41554 60.1784 6.81105 60.9113 6.38203C61.6442 5.95303 62.4671 5.73853 63.3802 5.73853C64.3059 5.73853 65.1289 5.95303 65.8489 6.38203C66.5692 6.81105 67.135 7.40905 67.5464 8.17606C67.9708 8.94307 68.1829 9.84659 68.1829 10.8866C68.1829 11.9266 67.9708 12.8301 67.5464 13.5971C67.135 14.3642 66.5627 14.9622 65.8298 15.3912C65.0969 15.8202 64.2674 16.0347 63.3415 16.0347ZM63.3415 14.3577C63.8687 14.3577 64.3446 14.2277 64.7689 13.9677C65.2061 13.7077 65.5532 13.3241 65.8104 12.8171C66.0804 12.2971 66.2154 11.6536 66.2154 10.8866C66.2154 10.1196 66.087 9.4826 65.8298 8.97558C65.5726 8.45557 65.2253 8.06555 64.7881 7.80556C64.3638 7.54556 63.8944 7.41554 63.3802 7.41554C62.8658 7.41554 62.3901 7.54556 61.9529 7.80556C61.5155 8.06555 61.1619 8.45557 60.8919 8.97558C60.6349 9.4826 60.5063 10.1196 60.5063 10.8866C60.5063 11.6536 60.6349 12.2971 60.8919 12.8171C61.1619 13.3241 61.5092 13.7077 61.9336 13.9677C62.3707 14.2277 62.8401 14.3577 63.3415 14.3577Z" fill="#26262C"/>
<path d="M53.5051 16.0345C52.5664 16.0345 51.7306 15.82 50.9977 15.3909C50.2648 14.9489 49.686 14.3444 49.2617 13.5774C48.8502 12.8104 48.6445 11.9199 48.6445 10.9059C48.6445 9.87886 48.8502 8.98183 49.2617 8.21482C49.686 7.43481 50.2648 6.8303 50.9977 6.4013C51.7306 5.95927 52.5664 5.73828 53.5051 5.73828C54.688 5.73828 55.6781 6.05029 56.4754 6.67429C57.2727 7.2983 57.7806 8.14332 57.9991 9.20933H55.9932C55.8646 8.63733 55.5689 8.19533 55.1061 7.8833C54.6558 7.5713 54.116 7.4153 53.4858 7.4153C52.9714 7.4153 52.4957 7.55181 52.0585 7.82481C51.6214 8.08482 51.2677 8.47482 50.9977 8.99483C50.7405 9.50184 50.6119 10.1324 50.6119 10.8864C50.6119 11.4454 50.6891 11.9459 50.8434 12.3879C50.9977 12.8169 51.2033 13.1809 51.4605 13.4799C51.7306 13.7789 52.0392 14.0064 52.3864 14.1624C52.7335 14.3054 53.1 14.3769 53.4858 14.3769C53.9101 14.3769 54.2894 14.3119 54.6239 14.1819C54.9709 14.0389 55.2603 13.8309 55.4917 13.5579C55.736 13.2849 55.9031 12.9599 55.9932 12.5829H57.9991C57.7806 13.6229 57.2727 14.4614 56.4754 15.0984C55.6781 15.7225 54.688 16.0345 53.5051 16.0345Z" fill="#26262C"/>
</svg>
